SplineFontDB: 3.0
FontName: GoudyBookletter1911Italic
FullName: GoudyBookletter1911 Italic
FamilyName: GoudyBookletter1911Italic
Weight: Italic
Copyright: This font has been released into the public domain by its author, Barry Schwartz. This applies worldwide.\n\nIn some countries this may not be legally possible; if so:\n\nBarry Schwartz grants anyone the right to use this work for any purpose, without any conditions, unless such conditions are required by law.
Version: 2010.07.03
ItalicAngle: 0
UnderlinePosition: -90
UnderlineWidth: 45
Ascent: 737
Descent: 263
LayerCount: 2
Layer: 0 0 "Back"  1
Layer: 1 0 "Fore"  0
NeedsXUIDChange: 1
XUID: [1021 658 797806517 331928]
UniqueID: 4088483
FSType: 0
OS2Version: 3
OS2_WeightWidthSlopeOnly: 0
OS2_UseTypoMetrics: 1
CreationTime: 1199071125
ModificationTime: 1329137372
PfmFamily: 17
TTFWeight: 400
TTFWidth: 5
LineGap: 90
VLineGap: 0
Panose: 2 0 5 3 0 0 0 0 0 0
OS2TypoAscent: 0
OS2TypoAOffset: 1
OS2TypoDescent: 0
OS2TypoDOffset: 1
OS2TypoLinegap: 90
OS2WinAscent: 0
OS2WinAOffset: 1
OS2WinDescent: -1
OS2WinDOffset: 1
HheadAscent: 0
HheadAOffset: 1
HheadDescent: 1
HheadDOffset: 1
OS2SubXSize: 650
OS2SubYSize: 700
OS2SubXOff: 0
OS2SubYOff: 140
OS2SupXSize: 650
OS2SupYSize: 700
OS2SupXOff: 0
OS2SupYOff: 480
OS2StrikeYSize: 49
OS2StrikeYPos: 258
OS2Vendor: 'PfEd'
OS2CodePages: 00000092.0d940000
OS2UnicodeRanges: 8000002f.0000004a.00000000.00000000
Lookup: 1 0 0 "'ss01' Style Set 1 in Latin lookup 0"  {"'ss01' Style Set 1 in Latin lookup 0 subtable"  } ['aalt' ('DFLT' <'dflt' > 'latn' <'dflt' > ) 'ss01' ('DFLT' <'dflt' > 'latn' <'dflt' > ) ]
Lookup: 4 0 1 "'liga' Standard Ligatures in Latin lookup 1"  {"'liga' Standard Ligatures in Latin lookup 1 per glyph data 0"  "'liga' Standard Ligatures in Latin lookup 1 per glyph data 1"  "'liga' Standard Ligatures in Latin lookup 1 per glyph data 2"  "'liga' Standard Ligatures in Latin lookup 1 per glyph data 3"  } ['liga' ('DFLT' <'dflt' > 'latn' <'dflt' > ) ]

StartChar: .notdef
Encoding: 65536 -1 0
Width: 500
Flags: HW
HStem: 0 50<100 400> 441 50<100 400>
VStem: 50 50<50 441> 400 50<50 441>
LayerCount: 2
Fore
SplineSet
6.71191 0 m 1
 93.2881 491 l 1
 493.288 491 l 1
 406.712 0 l 1
 6.71191 0 l 1
65.5283 50 m 1
 365.528 50 l 1
 434.472 441 l 1
 134.472 441 l 1
 65.5283 50 l 1
EndSplineSet
EndChar

StartChar: exclam
Encoding: 33 33 2
Width: 325
GlyphClass: 2
Flags: HW
HStem: -16 101<123.334 207.265>
VStem: 108 96<367.096 637.634> 114 103<-6.4071 75.7681> 127 32<195.064 282.718>
LayerCount: 2
Fore
SplineSet
254.833 674 m 0xc0
 263.833 674 263.599 667 260.248 648 c 2
 256.192 625 l 2xc0
 218.459 411 148.896 232 138.193 211 c 0
 135.136 205 128.372 195 118.372 195 c 0
 105.372 195 106.018 210 108.662 225 c 2
 111.659 242 l 1x90
 144.804 464 157.548 610 157.725 611 c 0
 160.192 625 165.898 629 174.779 634 c 0
 249.833 674 248.833 674 254.833 674 c 0xc0
122.977 85 m 0
 149.977 85 170.097 63 164.983 34 c 0
 160.223 7 134.167 -16 105.167 -16 c 0
 78.167 -16 56.8701 5 62.1602 35 c 0xa0
 67.4492 65 95.9766 85 122.977 85 c 0
EndSplineSet
EndChar

StartChar: quotedbl
Encoding: 34 34 3
Width: 389
GlyphClass: 2
Flags: HW
HStem: 457 258
VStem: 38 314
LayerCount: 2
Fore
SplineSet
172.746 715 m 0
 195.746 715 206.572 697 203.046 677 c 0
 200.225 661 190.108 649 182.169 638 c 0
 140.118 581 58.7227 471 55.0176 467 c 0
 48.959 461 42.2539 457 35.2539 457 c 0
 23.2539 457 17.1934 468 19.1328 479 c 2
 19.3096 480 l 2
 20.5439 487 21.7197 488 109.872 659 c 0
 123.104 683 141.746 715 172.746 715 c 0
338.746 715 m 0
 360.746 715 371.572 697 368.046 677 c 0
 365.225 661 356.108 649 348.169 638 c 0
 305.118 581 224.723 471 220.018 467 c 0
 213.959 461 207.254 457 200.254 457 c 0
 188.254 457 182.193 468 184.133 479 c 2
 184.31 480 l 2
 185.544 487 186.72 488 275.872 659 c 0
 288.104 683 306.746 715 338.746 715 c 0
EndSplineSet
EndChar

StartChar: numbersign
Encoding: 35 35 4
Width: 552
GlyphClass: 2
Flags: HW
HStem: 157 45<54.0142 152.998 206.138 318.839 372.236 497.98> 353 45<54.0204 179.998 234.002 345.999 400.001 497.891>
VStem: 153 45<-3.6207 156.771> 189 45<398 553.952> 319 44<-10.2178 157> 327 45<202 347.564> 355 45<398 558.829>
LayerCount: 2
Fore
SplineSet
356.933 348 m 0xd4
 357.461 351 356.813 353 350.813 353 c 2
 245.813 353 l 2
 238.813 353 237.285 350 235.58 346 c 0
 221.469 300 192.952 212 192.07 207 c 0
 191.365 203 194.188 202 199.188 202 c 2
 301.188 202 l 2
 305.188 202 311.188 202 313.6 210 c 0
 345.408 311 355.346 339 356.933 348 c 0xd4
462.012 615 m 1
 469.012 615 l 2
 479.012 615 484.482 612 483.072 604 c 0
 481.309 594 422.394 413 420.63 403 c 0xd2
 420.102 400 420.749 398 424.749 398 c 2
 498.749 398 l 2
 513.749 398 516.338 390 513.164 372 c 0
 510.343 356 503.813 353 493.813 353 c 2
 407.813 353 l 2
 403.813 353 403.285 350 401.756 347 c 0
 387.645 301 358.952 212 358.246 208 c 0xc4
 357.541 204 359.188 202 364.188 202 c 2
 465.188 202 l 2
 476.188 202 482.659 199 479.31 180 c 0
 476.488 164 471.254 157 457.254 157 c 2
 353.254 157 l 2
 343.254 157 340.372 152 338.314 146 c 0
 281.928 -32 284.81 -27 280.752 -33 c 0
 275.341 -41 266.988 -43 256.988 -43 c 0
 241.988 -43 238.047 -37 239.457 -29 c 0
 240.691 -22 294.314 146 295.196 151 c 0
 296.077 156 292.254 157 288.254 157 c 2
 219.254 157 l 2
 178.254 157 176.077 156 173.843 149 c 0
 117.104 -31 118.457 -29 115.575 -34 c 0
 110.341 -41 103.988 -43 88.9883 -43 c 0
 78.9883 -43 70.5176 -40 72.457 -29 c 0
 73.5146 -23 128.138 145 129.02 150 c 0xe8
 129.901 155 127.254 157 121.254 157 c 2
 47.2539 157 l 2
 33.2539 157 32.6641 165 34.6045 176 c 0
 37.6016 193 39.1885 202 55.1885 202 c 2
 142.188 202 l 2
 144.188 202 145.188 202 145.541 204 c 0
 161.005 252 190.051 343 190.933 348 c 0
 191.638 352 188.813 353 184.813 353 c 2
 83.8135 353 l 2
 72.8135 353 66.3428 356 69.6934 375 c 0
 72.3379 390 77.749 398 91.749 398 c 2
 199.749 398 l 2
 206.749 398 209.277 401 210.159 406 c 0
 273.072 604 270.72 602 274.601 607 c 0
 279.659 613 285.012 615 299.012 615 c 2
 300.012 615 l 2
 308.012 615 319.835 614 317.72 602 c 0
 316.485 595 255.688 409 254.63 403 c 0
 253.925 399 256.749 398 261.749 398 c 2
 365.749 398 l 2
 369.749 398 373.749 398 375.982 405 c 0xd2
 438.896 603 438.072 604 441.777 608 c 0
 446.835 614 455.012 615 459.012 615 c 2
 462.012 615 l 1
EndSplineSet
EndChar

StartChar: dollar
Encoding: 36 36 5
Width: 482
GlyphClass: 2
Flags: HW
HStem: 1 41<126.287 185.998> 599 39<139.978 185.991 228 265.03>
VStem: 16 91<74.0898 178.771> 41 58<446.429 562.384> 186 41<-96.9934 1.49219 48.8126 294.997 409.001 594.467 636.303 684.991> 332 70<101.123 239.657>
LayerCount: 2
Fore
SplineSet
417.789 531 m 0xdc
 413.381 506 394.031 487 369.031 487 c 0
 306.031 487 348.487 586 288.779 599 c 1
 286.779 599 l 2
 284.779 599 281.604 598 280.898 594 c 2
 250.217 420 l 2
 249.159 414 246.925 407 246.396 404 c 0
 242.869 384 255.398 387 288.754 372 c 0
 368.229 335 381.061 283 385.241 250 c 0
 387.715 230 387.012 209 383.485 189 c 0
 363.737 77 270.157 17 183.688 3 c 0
 175.336 1 174.631 -3 173.573 -9 c 2
 161.406 -78 l 2
 159.644 -88 154.057 -97 138.057 -97 c 0
 123.057 -97 119.467 -89 121.406 -78 c 2
 133.573 -9 l 2
 134.808 -2 133.336 1 126.336 1 c 0
 27.8652 4 -21.7344 80 -12.3887 133 c 0
 -6.92285 164 18.3096 188 46.3096 188 c 0
 69.3096 188 85.3115 171 80.1982 142 c 0xec
 78.082 130 73.3193 120 71.0273 107 c 0
 61.8574 55 113.565 42 136.565 42 c 0
 139.565 42 141.742 43 142.271 46 c 2
 188.116 306 l 2
 189.879 316 187.231 318 181.408 319 c 0
 91.9346 339 63.041 419 74.502 484 c 0
 88.7842 565 159.246 630 237.304 636 c 0
 243.48 637 246.656 638 247.715 644 c 2
 251.417 665 l 2
 252.651 672 255.943 685 274.943 685 c 2
 275.943 685 l 2
 292.943 685 295.181 675 293.417 665 c 2
 290.067 646 l 1
 289.715 644 l 2
 289.186 641 289.656 638 294.656 638 c 0
 380.894 628 425.195 573 417.789 531 c 0xdc
236.779 599 m 0
 219.779 599 147.843 571 136.028 504 c 0xdc
 123.51 433 197.277 409 201.277 409 c 0
 205.277 409 206.63 411 207.159 414 c 2
 220.384 489 l 1
 235.019 572 l 2
 239.427 597 239.779 599 236.779 599 c 0
234.177 295 m 0
 228.177 295 226.471 291 225.59 286 c 0
 204.254 165 192.674 105 187.385 75 c 0
 181.918 44 182.918 44 185.918 44 c 2
 187.918 44 l 2
 202.918 44 294.619 82 310.312 171 c 0
 325.828 259 245.177 295 234.177 295 c 0
EndSplineSet
EndChar

StartChar: percent
Encoding: 37 37 6
Width: 820
GlyphClass: 2
Flags: HW
HStem: -93 39<596.026 686.047> 170 38<148.026 238.047> 252 38<583.686 671.302> 515 38<135.782 223.302>
VStem: 41 60<264.374 459.62> 271 60<265.244 456.628> 489 60<2.06218 116 118 196.557> 719 60<2.68817 193.628>
LayerCount: 2
Fore
SplineSet
149.698 -123 m 0
 137.698 -123 126.109 -115 128.049 -104 c 0
 128.931 -99 131.459 -96 134.165 -92 c 0
 648.009 582 646.833 581 651.538 585 c 0
 657.596 591 666.302 595 676.302 595 c 0
 684.302 595 705.596 591 703.128 577 c 0
 702.422 573 699.717 569 697.188 566 c 0
 176.991 -110 179.52 -107 173.639 -112 c 0
 167.58 -118 159.698 -123 149.698 -123 c 0
228.195 515 m 0
 164.195 515 134.679 427 126.215 379 c 0
 118.985 338 116.526 256 147.061 225 c 0
 161.592 211 179.062 208 188.062 208 c 0
 247.062 208 269.348 272 276.051 293 c 0
 282.225 311 287.575 330 290.749 348 c 0
 304.502 426 289.195 515 228.195 515 c 0
248.896 553 m 0
 303.896 553 379.843 513 355.51 375 c 0
 334.174 254 258.362 170 167.362 170 c 0
 112.362 170 36.2393 209 60.3955 346 c 0
 84.7295 484 168.896 553 248.896 553 c 0
629.821 252 m 0
 565.821 252 535.48 165 527.193 118 c 1
 527.841 116 l 1
 520.788 76 518.329 -6 548.862 -37 c 0
 563.218 -52 580.865 -54 589.865 -54 c 0
 648.865 -54 671.15 10 677.677 30 c 0
 683.851 48 689.201 67 692.551 86 c 0
 706.128 163 690.821 252 629.821 252 c 0
650.521 290 m 0
 705.521 290 781.469 250 757.136 112 c 0
 735.977 -8 659.988 -93 568.988 -93 c 0
 513.988 -93 437.865 -54 462.021 83 c 0
 486.355 221 570.521 290 650.521 290 c 0
EndSplineSet
EndChar

StartChar: ampersand
Encoding: 38 38 7
Width: 828
GlyphClass: 2
Flags: HW
HStem: -23 77<253.323 436.75> 154 35<392.292 467.569> 360 32<183.728 301.127> 384 62<131.409 174.589> 440 33<181.692 300.583> 645 56<151.444 248.706> 677 38<643.513 724.85>
VStem: 30 79<178.938 345.842> 58 44<460.076 594.439> 100 76<400.864 431.197> 303 35<395.011 436.183> 338 36<206.326 300.965> 468 53<191.42 247> 573 70<616.704 676.103> 586 33<156.893 293.79> 768 41<504.154 630.001>
LayerCount: 2
Fore
SplineSet
113.4 422 m 2xd249
 115.341 433 78.6299 463 90.2676 529 c 0
 106.138 619 202.596 701 295.596 701 c 0
 331.596 701 400.304 688 391.84 640 c 0
 387.256 614 360.905 595 338.905 595 c 0
 297.905 595 304.722 645 260.722 645 c 0
 218.722 645 146.963 601 134.268 529 c 0
 127.038 488 144.633 446 158.633 446 c 0xd489
 166.633 446 213.394 473 273.394 473 c 0
 322.394 473 356.515 451 350.52 417 c 0
 344.524 383 299.469 360 248.469 360 c 2
 247.469 360 l 2xe8a9
 192.469 360 162.7 384 155.7 384 c 0
 147.7 384 141.761 373 140.585 372 c 0
 116.942 340 101.595 304 95.2461 268 c 0
 80.2588 183 117.1 63 307.513 54 c 1
 325.513 54 l 2
 487.513 54 552.851 158 565.018 227 c 0xd12b
 576.831 294 545.177 347 482.177 347 c 0
 423.177 347 365.889 300 357.249 251 c 0
 351.606 219 369.316 189 404.316 189 c 0
 417.316 189 441.551 196 443.314 206 c 0
 445.254 217 422.02 210 410.546 230 c 0
 407.604 236 406.015 244 407.425 252 c 0
 410.775 271 429.773 288 452.773 288 c 0
 481.773 288 506.541 264 500.546 230 c 0
 493.669 191 450.146 154 401.146 154 c 0
 347.146 154 312.08 199 321.954 255 c 0
 331.3 308 377.116 358 442.405 388 c 0
 533.812 430 626.225 421 700.515 451 c 0
 745.864 470 796.741 509 807.497 570 c 0
 818.605 633 779.364 677 731.364 677 c 0
 722.364 677 701.012 675 699.777 668 c 0
 698.896 663 713.661 656 709.605 633 c 0
 705.727 611 685.377 592 661.377 592 c 0
 635.377 592 620.432 615 625.017 641 c 0xd21d
 632.599 684 680.064 715 726.064 715 c 0
 797.064 715 862.074 647 844.618 548 c 0
 825.574 440 713.41 354 601.058 352 c 0
 593.058 352 586.058 352 584.647 344 c 0
 583.413 337 611.065 301 598.898 232 c 2
 598.546 230 l 2
 574.918 96 419.936 -23 255.936 -23 c 0
 88.9355 -23 -13.0234 102 12.1914 245 c 0xd30b
 30.7051 350 104.756 407 109.99 414 c 0
 111.343 416 112.872 419 113.225 421 c 2
 113.4 422 l 2xd249
269.111 392 m 0xe869
 289.111 392 311.816 396 315.167 415 c 0
 316.93 425 312.575 440 276.575 440 c 0
 226.575 440 190.106 426 188.52 417 c 0
 187.99 414 189.638 412 190.461 411 c 0
 211.287 393 236.111 392 269.111 392 c 0xe869
EndSplineSet
EndChar

StartChar: quotesingle
Encoding: 39 39 8
Width: 224
GlyphClass: 2
Flags: HW
HStem: 457 258
VStem: 38 149
LayerCount: 2
Fore
SplineSet
172.746 715 m 0
 195.746 715 206.572 697 203.046 677 c 0
 200.4 662 190.108 649 182.169 638 c 0
 140.118 581 58.7227 471 55.0176 467 c 0
 48.959 461 42.2539 457 35.2539 457 c 0
 23.2539 457 17.1934 468 19.3096 480 c 2
 19.4854 481 l 2
 20.5439 487 21.7197 488 109.872 659 c 0
 123.104 683 141.746 715 172.746 715 c 0
EndSplineSet
EndChar

StartChar: parenleft
Encoding: 40 40 9
Width: 363
GlyphClass: 2
Flags: HW
HStem: 698 20G<291 303>
VStem: 45 76<116.498 405.186>
LayerCount: 2
Fore
SplineSet
239.121 -174 m 0
 237.006 -186 225.595 -194 214.595 -194 c 0
 205.595 -194 198.3 -190 192.358 -184 c 0
 76.8721 -79 13.6143 84 45 262 c 0
 73.3887 423 182.835 590 344.937 704 c 0
 353.994 710 365.405 718 377.405 718 c 0
 389.405 718 396.994 710 395.055 699 c 0
 392.939 687 382.528 679 376.823 675 c 0
 259.777 584 152.739 442 121.177 263 c 0
 92.6113 101 133.867 -45 227.882 -147 c 0
 232.001 -152 241.414 -161 239.121 -174 c 0
EndSplineSet
EndChar

StartChar: parenright
Encoding: 41 41 10
Width: 363
GlyphClass: 2
Flags: HW
HStem: 702 20G<63.5 73.5>
VStem: 242 76<121.91 410.739>
LayerCount: 2
Fore
SplineSet
124.79 701 m 0
 127.083 714 138.493 722 149.493 722 c 0
 158.493 722 164.611 717 171.554 711 c 0
 287.039 606 349.298 443 317.912 265 c 0
 289.523 104 180.076 -63 17.9756 -177 c 0
 8.91699 -183 -2.49316 -191 -14.4932 -191 c 0
 -25.4932 -191 -34.083 -183 -31.9668 -171 c 0
 -30.0273 -160 -18.6162 -152 -12.7354 -147 c 0
 104.311 -56 210.173 85 241.735 264 c 0
 270.477 427 230.044 572 136.206 675 c 0
 131.088 680 122.498 688 124.79 701 c 0
EndSplineSet
EndChar

StartChar: asterisk
Encoding: 42 42 11
Width: 335
GlyphClass: 2
Flags: HW
HStem: 448 21G<263.5 290.5> 497 109<106.146 135.998 198.001 226.26> 701 20G<159 183>
VStem: 129 78<389.462 485.336 613.573 717.469> 136 62<426.987 496.937 607.071 673.685>
LayerCount: 2
Fore
SplineSet
332.373 617 m 0xe8
 324.968 575 230.557 567 227.912 552 c 0
 224.738 534 317.501 544 307.45 487 c 0
 303.396 464 281.574 448 262.574 448 c 0
 227.574 448 206.919 501 195.919 501 c 0
 189.919 501 188.391 498 187.332 492 c 0xe8
 182.924 467 186.634 437 184.166 423 c 0
 178.699 392 145.289 384 135.289 384 c 0
 123.289 384 100.876 393 106.694 426 c 0xf0
 110.397 447 121.806 472 124.274 486 c 0xe8
 125.332 492 125.214 497 120.214 497 c 0
 104.214 497 65.4551 453 28.4551 453 c 0
 3.45508 453 1.39258 481 2.62695 488 c 0
 10.5615 533 103.148 542 106.322 560 c 0
 109.849 580 20.2617 571 29.6074 624 c 0
 33.3105 645 56.7793 659 73.7793 659 c 0
 106.779 659 118.434 606 142.434 606 c 0
 145.434 606 147.609 607 148.668 613 c 0
 150.784 625 146.545 652 150.776 676 c 0xf0
 156.948 711 178.711 721 198.711 721 c 0
 226.711 721 234.185 701 229.6 675 c 0
 224.663 647 207.196 616 205.963 609 c 0
 205.786 608 206.609 607 207.609 607 c 0
 220.609 607 265.25 656 300.25 656 c 0
 319.25 656 336.252 639 332.373 617 c 0xe8
EndSplineSet
EndChar

StartChar: plus
Encoding: 43 43 12
Width: 701
GlyphClass: 2
Flags: HW
HStem: 231 57<53 322 380 648.954>
VStem: 322 58<-38 231 288 556.954>
LayerCount: 2
Fore
SplineSet
70.9746 231 m 2
 55.9746 231 48.6797 235 51.8535 253 c 2
 54.1465 266 l 2
 57.8486 287 71.0254 288 82.0254 288 c 2
 327.025 288 l 1
 370.931 537 l 2
 373.223 550 378.457 557 394.457 557 c 2
 408.457 557 l 2
 430.457 557 429.988 543 427.873 531 c 2
 385.025 288 l 1
 634.025 288 l 2
 647.025 288 653.32 284 650.675 269 c 2
 648.207 255 l 2
 644.151 232 629.975 231 616.975 231 c 2
 374.975 231 l 1
 331.422 -16 l 2
 328.777 -31 322.543 -38 305.543 -38 c 2
 291.543 -38 l 2
 270.543 -38 271.658 -26 273.599 -15 c 2
 316.975 231 l 1
 70.9746 231 l 2
EndSplineSet
EndChar

StartChar: comma
Encoding: 44 44 13
Width: 227
GlyphClass: 2
Flags: HW
HStem: -147 247<77 108>
VStem: 137 51<-86.0814 -11.7099>
LayerCount: 2
Fore
SplineSet
121.776 100 m 0
 168.776 100 200.784 49 189.499 -15 c 0
 173.806 -104 86.2236 -147 65.2236 -147 c 0
 55.2236 -147 47.2812 -141 49.2207 -130 c 0
 52.2188 -113 72.3955 -112 99.0977 -91 c 0
 125.801 -70 131.799 -53 133.386 -44 c 0
 142.378 7 72.9697 -18 54.4941 19 c 0
 50.7285 26 49.3154 35 51.0781 45 c 0
 56.7207 77 90.7764 100 121.776 100 c 0
EndSplineSet
EndChar

StartChar: hyphen
Encoding: 45 45 14
Width: 227
GlyphClass: 2
Flags: HW
HStem: 154 181
VStem: 12 203
LayerCount: 2
Fore
SplineSet
214.958 335 m 0
 227.958 335 227.96 318 224.081 296 c 0
 221.789 283 212.555 276 201.144 268 c 0
 37.1582 166 27.042 154 14.042 154 c 0
 -0.958008 154 -1.48926 168 0.626953 180 c 2
 3.0957 194 l 2
 5.56445 208 9.09277 211 27.0322 222 c 0
 197.724 328 204.958 335 214.958 335 c 0
EndSplineSet
EndChar

StartChar: period
Encoding: 46 46 15
Width: 227
GlyphClass: 2
Flags: HW
HStem: -17 118<68.3914 158.932>
VStem: 54 119<-2.99638 86.7526>
LayerCount: 2
Fore
SplineSet
123.403 101 m 0
 155.403 101 178.818 75 173 42 c 0
 167.534 11 137.597 -17 103.597 -17 c 0
 72.5967 -17 48.0049 8 54.1768 43 c 0
 60.3477 78 92.4033 101 123.403 101 c 0
EndSplineSet
EndChar

StartChar: slash
Encoding: 47 47 16
Width: 435
GlyphClass: 2
Flags: HW
LayerCount: 2
Fore
SplineSet
-31.6211 -187 m 0
 -39.6211 -187 -61.4453 -186 -59.1523 -173 c 0
 -58.2715 -168 -58.4473 -169 449.034 571 c 0
 452.916 576 456.621 580 465.621 580 c 0
 473.621 580 496.093 577 493.447 562 c 0
 492.39 556 490.037 554 264.612 234 c 1
 -17.5635 -181 -14.3867 -180 -17.916 -183 c 0
 -22.4453 -186 -26.6211 -187 -31.6211 -187 c 0
EndSplineSet
EndChar

StartChar: zero
Encoding: 48 48 17
Width: 475
GlyphClass: 2
Flags: HW
HStem: -18 60<162.468 311.127> 385 55<159.25 309.448>
VStem: 12 66<130.19 299.792> 394 62<126.916 295.427>
LayerCount: 2
Fore
SplineSet
275.379 440 m 0
 396.379 440 478.394 338 456 211 c 0
 433.783 85 315.621 -18 193.621 -18 c 0
 73.6211 -18 -10.7461 82 12 211 c 0
 34.3936 338 153.379 440 275.379 440 c 0
264.681 385 m 0
 178.681 385 95.1035 308 78.7051 215 c 0
 61.9541 120 119.201 42 207.201 42 c 0
 287.201 42 376.015 109 394 211 c 0
 411.633 311 348.681 385 264.681 385 c 0
EndSplineSet
EndChar

StartChar: one
Encoding: 49 49 18
Width: 356
GlyphClass: 2
Flags: HW
HStem: -6 40<41.0061 134.862 211.525 317.949> 381 43<26.298 135 211 299.99>
VStem: 135 76<39.854 381.18>
LayerCount: 2
Fore
SplineSet
201.381 421 m 0
 274.381 421 311.91 424 323.91 424 c 0
 335.91 424 336.5 416 334.031 402 c 0
 330.328 381 318.033 385 255.328 381 c 0
 243.152 380 240.271 375 238.507 365 c 2
 184.903 61 l 2
 182.788 49 184.377 41 199.201 40 c 0
 270.143 34 288.201 40 283.264 12 c 0
 281.324 1 274.09 -6 263.09 -6 c 0
 259.09 -6 206.147 0 140.147 0 c 0
 75.1475 0 21.0898 -6 17.0898 -6 c 0
 5.08984 -6 4.67676 3 6.79297 15 c 0
 9.4375 30 17.9668 33 28.1426 34 c 0
 99.2012 40 104.319 35 108.375 58 c 2
 162.507 365 l 2
 164.799 378 159.152 380 150.328 381 c 0
 72.0332 385 55.7988 378 61.0889 408 c 0
 62.8525 418 68.9102 424 78.9102 424 c 0
 90.9102 424 127.381 421 201.381 421 c 0
EndSplineSet
EndChar

StartChar: two
Encoding: 50 50 19
Width: 450
GlyphClass: 2
Flags: HW
HStem: -13 21G<65 80.5> 0 58<193.709 336.688> 362 62<84.85 216.758>
VStem: 25 36<265.197 333.097> 276 62<205.76 305.971> 389 30<119.161 154.717>
LayerCount: 2
Fore
SplineSet
37.4727 -13 m 0xbc
 15.4727 -13 12.5889 -1 13.8232 6 c 0
 16.9971 24 34.6436 22 103.932 69 c 0
 156.279 105 205.509 146 249.619 192 c 0
 260.735 204 279.262 224 283.847 250 c 0
 295.132 314 229.595 362 171.595 362 c 0
 119.595 362 84.2471 326 76.0762 291 c 0
 74.1367 280 70.4912 265 56.4912 265 c 2
 55.4912 265 l 2
 47.4912 265 36.7256 272 41.8389 301 c 0
 54.5352 373 122.527 424 201.527 424 c 0
 292.527 424 365.948 364 350.783 278 c 0
 336.501 197 256.037 149 170.637 73 c 0
 168.107 70 165.755 68 165.402 66 c 0
 164.697 62 165.992 58 174.992 58 c 0
 176.992 58 223.345 60 248.697 62 c 0
 291.226 65 332.989 75 378.332 145 c 0
 381.214 150 385.096 155 392.096 155 c 0
 394.096 155 409.919 154 407.979 143 c 0
 407.098 138 407.45 140 348.41 15 c 0
 340.589 -1 331.941 1 316.765 0 c 0x7c
 223.06 -4 46.4727 -13 37.4727 -13 c 0xbc
EndSplineSet
EndChar

StartChar: three
Encoding: 51 51 20
Width: 360
GlyphClass: 2
Flags: HW
HStem: -182 43<135.253 239.111> 370 73<64.1018 173.42>
VStem: 26 35<298.009 363.51> 205 9<180 273> 285 54<-79.2107 66.58>
LayerCount: 2
Fore
SplineSet
174.103 443 m 0
 214.103 443 321.283 410 306.472 326 c 0
 295.893 266 223.609 185 222.729 180 c 0
 220.612 168 247.67 174 285.262 149 c 0
 308.617 134 334.151 103 322.161 35 c 0
 316.694 4 296.47 -71 252.359 -117 c 0
 209.248 -163 141.897 -182 87.8975 -182 c 0
 7.89746 -182 -18.2861 -132 -14.2305 -109 c 0
 -9.99805 -85 14.8232 -69 36.8232 -69 c 0
 87.8232 -69 65.4795 -139 146.479 -139 c 0
 214.479 -139 249.47 -71 260.227 -10 c 0
 271.158 52 256.327 104 158.327 104 c 0
 134.327 104 125.975 102 117.975 102 c 0
 105.975 102 102.386 110 103.267 115 c 0
 105.03 125 110.678 123 144.614 151 c 0
 183.257 183 221.486 224 230.127 273 c 0
 236.298 308 229.23 370 155.23 370 c 0
 108.23 370 99.7041 350 96.5303 332 c 0
 94.9434 323 94.1797 313 93.8271 311 c 0
 92.0635 301 77.5352 298 73.5352 298 c 0
 62.5352 298 57.1221 307 62.7646 339 c 0
 72.1094 392 113.103 443 174.103 443 c 0
EndSplineSet
EndChar

StartChar: four
Encoding: 52 52 21
Width: 447
GlyphClass: 2
Flags: HW
HStem: 0 74<330.031 406.859> 0 66<109.001 270> 409 20G<313.5 320>
VStem: 270 60<-186 -1.19998e-07 74.157 299.997>
LayerCount: 2
Fore
SplineSet
18.5762 0 m 2x70
 10.5762 0 1.92871 2 4.04492 14 c 0
 6.16113 26 17.9238 36 26.6875 46 c 0
 352.634 420 345.047 411 353.634 420 c 0
 358.516 425 364.221 429 371.221 429 c 0
 377.221 429 384.691 426 382.047 411 c 2
 323.564 85 l 2
 322.33 78 323.624 74 331.624 74 c 2
 347.624 74 l 2
 377.624 74 381.978 76 389.978 76 c 0
 404.978 76 409.096 71 407.685 63 c 0
 407.332 61 391.163 9 386.281 4 c 0
 382.753 1 379.576 0 373.576 0 c 2
 317.576 0 l 2xb0
 312.576 0 308.4 -1 307.342 -7 c 2
 277.896 -174 l 2
 276.484 -182 274.779 -186 265.779 -186 c 2
 225.779 -186 l 2
 216.779 -186 216.661 -181 217.896 -174 c 2
 246.813 -10 l 2
 247.871 -4 247.576 0 240.576 0 c 2
 18.5762 0 l 2x70
250.214 66 m 2x70
 258.214 66 261.448 73 262.506 79 c 2
 300.063 292 l 2
 300.77 296 300.475 300 296.475 300 c 0
 292.475 300 290.945 297 289.77 296 c 0
 100.624 74 100.624 74 100.096 71 c 0
 99.7432 69 100.214 66 105.214 66 c 2
 250.214 66 l 2x70
EndSplineSet
EndChar

StartChar: five
Encoding: 53 53 22
Width: 381
GlyphClass: 2
Flags: HW
HStem: 191 66<98.135 170.388> 299 88<215.446 309.304> 347 88<113.76 191.234>
VStem: 235 61<-40.5996 120.982>
LayerCount: 2
Fore
SplineSet
141.068 257 m 2xb0
 232.068 257 307.021 183 285.509 61 c 0
 275.105 2 243.76 -51 212.235 -88 c 0
 165.538 -143 84.5449 -194 58.5449 -194 c 0
 50.5449 -194 42.4268 -189 44.1904 -179 c 0
 48.0693 -157 101.245 -156 163.47 -81 c 0
 187.76 -51 211.989 -10 220.453 38 c 0
 237.381 134 180.431 191 114.431 191 c 0
 86.4307 191 67.668 181 61.668 181 c 0
 52.668 181 49.9023 188 51.3125 196 c 0
 52.5469 203 153.986 421 154.162 422 c 0
 157.044 427 163.455 435 173.455 435 c 0xb0
 185.455 435 316.991 387 331.991 387 c 0
 349.991 387 373.339 423 381.573 430 c 0
 386.103 433 389.103 433 390.103 433 c 0
 396.103 433 405.221 428 403.634 419 c 0
 402.929 415 403.104 416 338.414 310 c 0
 335.356 304 331.475 299 323.475 299 c 0xd0
 311.475 299 176.762 346 168.938 347 c 1
 167.938 347 l 2
 156.938 347 155.175 337 124.008 268 c 0
 123.832 267 122.479 265 122.127 263 c 0
 121.774 261 123.068 257 128.068 257 c 2
 141.068 257 l 2xb0
EndSplineSet
EndChar

StartChar: six
Encoding: 54 54 23
Width: 483
GlyphClass: 2
Flags: HW
HStem: -28 40<187.686 316.189> 365 36<149.312 263.195>
VStem: 33 64<112.246 315.477> 368 77<76.1476 246.159>
LayerCount: 2
Fore
SplineSet
339.964 142 m 0
 355.48 230 326.285 365 211.285 365 c 0
 129.285 365 94.002 284 82.1885 217 c 0
 61.2061 98 118.041 12 202.041 12 c 0
 266.041 12 325.682 61 339.964 142 c 0
221.633 401 m 0
 351.633 401 445.353 303 421.725 169 c 0
 403.034 63 310.988 -28 196.988 -28 c 0
 87.9883 -28 -8.96582 63 19.9521 227 c 0
 53.6299 418 235.312 592 441.835 629 c 0
 444.012 630 446.012 630 449.012 630 c 0
 462.012 630 466.543 616 464.956 607 c 0
 463.017 596 453.312 592 445.782 589 c 0
 341.14 557 241.854 493 166.809 402 c 0
 166.633 401 165.456 400 165.28 399 c 0
 164.928 397 166.751 396 168.751 396 c 0
 169.751 396 193.633 401 221.633 401 c 0
EndSplineSet
EndChar

StartChar: seven
Encoding: 55 55 24
Width: 450
GlyphClass: 2
Flags: HW
HStem: 330 82<91.4919 218.976> 337 75<112.548 348.999>
VStem: 35 33<217.026 286.324> 54 39<412 469.92>
LayerCount: 2
Fore
SplineSet
68.1338 217 m 0xa0
 63.1338 217 51.6631 220 53.9551 233 c 0xa0
 55.542 242 88.0586 330 111.395 451 c 0
 113.334 462 117.745 470 132.745 470 c 0
 148.745 470 144.629 458 145.634 424 c 0
 145.694 413 150.518 412 157.518 412 c 2x90
 459.518 412 l 2
 471.518 412 480.988 409 478.344 394 c 2
 478.168 393 l 2
 476.934 386 475.757 385 388.781 215 c 0
 169.255 -219 191.784 -216 167.432 -218 c 0
 161.255 -219 154.255 -219 148.255 -219 c 2
 147.255 -219 l 1
 141.255 -219 l 2
 125.255 -219 113.432 -218 115.724 -205 c 0
 116.782 -199 116.605 -200 284.912 125 c 1
 350.247 246 380.945 301 382.18 308 c 0
 385.53 327 368.059 330 356.411 332 c 0
 323.94 335 292.293 337 258.293 337 c 0x50
 215.293 337 159.588 333 148.059 330 c 0
 128.354 326 129.472 321 86.7793 232 c 0
 83.7207 226 79.1338 217 68.1338 217 c 0xa0
EndSplineSet
EndChar

StartChar: eight
Encoding: 56 56 25
Width: 447
GlyphClass: 2
Flags: HW
HStem: -22 47<146.258 291.197> 308 58<176.219 227.156> 621 47<141.339 256.162>
VStem: 16 74<81.6211 226.516> 33 69<439.759 579.141> 300 74<442.856 574.658> 342 83<85.8585 202.16>
LayerCount: 2
Fore
SplineSet
135.679 514 m 0xec
 118.222 415 209.582 366 233.582 366 c 0
 239.582 366 244.111 369 248.816 373 c 0
 288.282 404 322.57 451 331.739 503 c 0
 342.848 566 310.546 621 250.546 621 c 2
 249.546 621 l 1
 195.369 620 145.905 572 135.679 514 c 0xec
167.454 25 m 0
 232.454 25 297.742 72 309.027 136 c 0
 320.841 203 267.244 262 194.297 302 c 0
 189.826 305 185.355 308 180.355 308 c 0
 166.355 308 75.1885 239 59.6719 151 c 0xf2
 46.4473 76 98.4541 25 167.454 25 c 0
148.167 -22 m 0
 40.167 -22 -30.374 60 -13.9756 153 c 0xf2
 -3.57227 212 36.9521 249 76.8887 277 c 0
 144 323 144.823 322 145.529 326 c 0
 145.882 328 144.234 330 141.587 332 c 0
 89.6396 372 52.5723 434 64.5625 502 c 0
 78.4922 581 164.833 668 269.833 668 c 0
 355.833 668 426.546 621 409.794 526 c 0xec
 397.804 458 340.99 391 273.995 357 c 0
 271.818 356 270.466 354 270.113 352 c 0
 269.761 350 271.585 349 272.408 348 c 0
 358.002 306 409.659 236 396.435 161 c 0
 379.331 64 261.167 -22 148.167 -22 c 0
EndSplineSet
EndChar

StartChar: nine
Encoding: 57 57 26
Width: 509
GlyphClass: 2
Flags: HW
HStem: -5 39<209.335 352.072> 383 45<154.45 294.59>
VStem: 32 73<148.813 316.685> 395 77<81.1 269.826>
LayerCount: 2
Fore
SplineSet
129.95 250 m 0
 113.022 154 152.863 34 270.863 34 c 0
 335.863 34 363.33 65 383.383 105 c 0
 394.438 128 402.67 152 406.902 176 c 0
 427.18 291 359.401 383 269.401 383 c 0
 217.401 383 146.878 346 129.95 250 c 0
254.987 -5 m 0
 119.987 -5 31.2061 104 52.8945 227 c 0
 73.1719 342 183.337 428 294.337 428 c 0
 420.337 428 508.94 318 483.726 175 c 0
 457.101 24 303.478 -144 99.8975 -204 c 0
 84.1924 -208 73.6631 -211 67.6631 -211 c 0
 52.6631 -211 51.8379 -193 52.8955 -187 c 0
 54.6582 -177 62.3643 -173 72.8926 -170 c 0
 238.533 -121 340.045 1 340.75 5 c 0
 341.103 7 340.279 8 338.279 8 c 0
 336.279 8 297.987 -5 254.987 -5 c 0
EndSplineSet
EndChar

StartChar: colon
Encoding: 58 58 27
Width: 228
GlyphClass: 2
Flags: HW
HStem: -17 118<78.9846 169.66> 293 118<78.9846 169.66>
VStem: 65 119<-2.99638 86.7526 307.004 396.622>
LayerCount: 2
Fore
SplineSet
161.734 411 m 0
 193.734 411 217.149 385 211.331 352 c 0
 205.864 321 174.928 293 140.928 293 c 0
 109.928 293 86.3359 318 92.5068 353 c 0
 98.502 387 130.734 411 161.734 411 c 0
107.072 101 m 0
 139.072 101 162.488 75 156.669 42 c 0
 151.203 11 120.266 -17 86.2656 -17 c 0
 55.2656 -17 31.6738 8 37.8457 43 c 0
 44.0176 78 76.0723 101 107.072 101 c 0
EndSplineSet
EndChar

StartChar: semicolon
Encoding: 59 59 28
Width: 227
GlyphClass: 2
Flags: HW
HStem: 293 118<78.9846 169.66>
VStem: 65 119<307.004 396.622> 161 51<-85.0525 -12.0097>
LayerCount: 2
Fore
SplineSet
118.357 100 m 0xa0
 165.357 100 197.365 49 186.08 -15 c 0
 170.387 -104 82.8047 -147 60.8047 -147 c 0
 51.8047 -147 43.8623 -141 45.8027 -130 c 0
 48.7998 -113 68.9766 -112 95.6787 -91 c 0
 121.382 -70 128.38 -53 129.967 -44 c 2
 130.143 -43 l 1
 137.959 7 69.5508 -18 51.0752 19 c 1
 46.3096 26 45.8965 35 47.6592 45 c 0
 53.3018 77 87.3574 100 118.357 100 c 0xa0
173.195 411 m 0
 205.195 411 228.61 385 222.792 352 c 0
 217.326 321 186.389 293 152.389 293 c 0
 121.389 293 97.7969 318 103.969 353 c 0xc0
 109.963 387 142.195 411 173.195 411 c 0
EndSplineSet
EndChar

StartChar: less
Encoding: 60 60 29
Width: 672
GlyphClass: 2
Flags: HW
LayerCount: 2
Fore
SplineSet
53.499 249 m 2
 55.4385 260 66.1436 264 74.6729 267 c 0
 629.175 457 628.352 458 636.352 458 c 0
 648.352 458 657.411 447 652.65 420 c 0
 650.535 408 640.653 403 630.124 400 c 2
 160.735 239 l 1
 579.171 77 l 2
 586.642 74 590.76 69 589.173 60 c 0
 587.41 50 576.648 23 553.648 23 c 0
 545.648 23 548.648 23 63.9746 212 c 0
 55.5039 215 48.209 219 50.1484 230 c 2
 53.499 249 l 2
EndSplineSet
EndChar

StartChar: equal
Encoding: 61 61 30
Width: 701
GlyphClass: 2
Flags: HW
HStem: 156 58<54 648.954> 305 58<53 647.872>
LayerCount: 2
Fore
SplineSet
84.0225 305 m 2
 69.0225 305 61.7285 309 64.9023 327 c 2
 67.3711 341 l 2
 71.0732 362 83.25 363 94.25 363 c 2
 646.25 363 l 2
 659.25 363 665.545 359 662.724 343 c 2
 660.431 330 l 2
 656.376 307 642.022 305 630.022 305 c 2
 84.0225 305 l 2
57.75 156 m 2
 42.75 156 36.6318 161 39.6289 178 c 2
 42.0977 192 l 2
 45.8008 213 57.9775 214 68.9775 214 c 2
 620.978 214 l 2
 633.978 214 640.271 210 637.45 194 c 2
 634.982 180 l 2
 630.927 157 616.75 156 604.75 156 c 2
 57.75 156 l 2
EndSplineSet
EndChar

StartChar: greater
Encoding: 62 62 31
Width: 672
GlyphClass: 2
Flags: HW
LayerCount: 2
Fore
SplineSet
622.499 249 m 2
 619.148 230 l 2
 617.209 219 608.504 215 598.975 212 c 0
 49.8252 24 49.6484 23 42.6484 23 c 0
 19.6484 23 18.4102 50 20.1729 60 c 0
 21.7598 69 27.6416 74 36.1709 77 c 2
 511.735 239 l 1
 99.124 400 l 2
 89.6533 403 81.5352 408 83.6504 420 c 0
 88.4111 447 101.352 458 113.352 458 c 0
 121.352 458 120.175 457 607.673 267 c 0
 615.144 264 624.438 260 622.499 249 c 2
EndSplineSet
EndChar

StartChar: question
Encoding: 63 63 32
Width: 380
GlyphClass: 2
Flags: HW
HStem: -17 118<113.391 204.66> 577 103<31.9434 95.0571> 651 38<120.281 214.194>
VStem: 99 120<-2.99638 86.7526> 119 52<192.704 327.862> 252 85<470.93 612.194>
LayerCount: 2
Fore
SplineSet
117.563 101 m 0x94
 149.563 101 172.979 75 167.16 42 c 0
 161.693 11 130.757 -17 96.7568 -17 c 0
 65.7568 -17 41.165 8 47.3359 43 c 0
 53.5078 78 86.5635 101 117.563 101 c 0x94
222.243 689 m 0xac
 350.243 689 383.727 601 373.323 542 c 0
 351.282 417 180.521 390 155.836 250 c 0
 154.249 241 154.191 235 152.957 228 c 0
 148.196 201 130.609 192 120.609 192 c 0
 109.609 192 95.0195 200 103.307 247 c 0
 126.405 378 268.928 432 289.205 547 c 0
 299.256 604 269.543 651 220.543 651 c 0xac
 156.543 651 149.495 577 99.4951 577 c 0
 75.4951 577 61.0215 597 65.2529 621 c 0
 67.3691 633 76.3643 667 139.656 680 c 0xcc
 166.715 686 195.243 689 222.243 689 c 0xac
EndSplineSet
EndChar

StartChar: at
Encoding: 64 64 33
Width: 1000
GlyphClass: 2
Flags: HW
HStem: -176 38<388.066 610.518> -14 66<382.487 465.106> -8 46<602.669 713.161> 363 33<534.747 597.381> 409 20G<644 651.5> 572 39<426.292 651.985>
VStem: 88 82<70.9096 316.808> 302 74<57.2769 161.388> 824 42<176.781 411.103>
LayerCount: 2
Fore
SplineSet
674.13 -71 m 0xbf80
 679.13 -71 685.601 -74 684.014 -83 c 0
 679.782 -107 594.435 -143 551.142 -156 c 0
 504.673 -170 458.615 -176 412.615 -176 c 2
 411.615 -176 l 1
 193.792 -175 42.4199 -41 82.4453 186 c 2
 82.6221 187 l 2
 99.7256 284 165.054 456 384.863 557 c 0
 443.624 584 524.385 611 611.385 611 c 0
 807.385 611 910.347 469 879.842 296 c 0
 849.866 126 709.238 -8 592.238 -8 c 0xbf80
 496.238 -8 511.286 66 504.286 66 c 0
 502.286 66 500.934 64 498.581 62 c 0
 463.233 26 407.181 -14 354.181 -14 c 0xdf80
 303.181 -14 268.057 25 278.284 83 c 0
 294.683 176 445.955 325 531.242 372 c 0
 556.711 386 583.475 396 610.475 396 c 0
 628.475 396 633.945 393 638.945 393 c 0
 651.945 393 661.53 419 669.588 425 c 0
 674.117 428 679.293 429 683.293 429 c 0
 694.293 429 705.235 423 703.296 412 c 0
 700.827 398 646.604 306 583.689 125 c 0
 580.103 116 574.281 100 571.812 86 c 0
 565.112 48 591.35 38 611.35 38 c 0
 652.35 38 714.463 67 754.397 112 c 0
 795.509 158 826.204 230 838.547 300 c 2
 838.724 301 l 2
 869.934 478 758.508 572 605.508 572 c 0
 411.508 572 206.588 425 166.562 198 c 0
 132.178 3 239.315 -138 437.315 -138 c 0
 534.315 -138 618.135 -105 653.543 -80 c 0
 659.071 -77 667.13 -71 674.13 -71 c 0xbf80
610.893 353 m 0
 611.95 359 608.655 363 601.655 363 c 0
 564.655 363 451.255 287 380.214 162 c 0
 368.863 143 359.161 122 355.634 102 c 0
 348.581 62 371.818 52 388.818 52 c 0xdf80
 408.818 52 459.992 70 496.163 105 c 0
 515.337 123 518.514 124 524.158 139 c 0
 610.54 351 610.188 349 610.893 353 c 0
EndSplineSet
EndChar

StartChar: A
Encoding: 65 65 34
Width: 821
GlyphClass: 2
Flags: HW
HStem: -6 51<9.70312 96.8955 184.385 268.276 543.905 621.989> 300 52<298.001 517.997>
VStem: 622 195<9.5 73>
DStem2: 111 93 271 288 0.40364 0.914918<11.178 264.736 316.421 512.08> 485 668 430 565 0.391141 -0.920331<62.6289 296.73 353.02 608.612>
LayerCount: 2
Fore
SplineSet
75.2852 0 m 0
 16.2852 0 -30.7725 -6 -33.7725 -6 c 0
 -49.7725 -6 -51.4805 7 -50.0693 15 c 0
 -45.3086 42 -30.4854 41 0.220703 45 c 0
 32.9258 49 44.6885 59 65.6836 93 c 0
 132.551 200 202.418 307 275.108 413 c 1
 475.361 698 466.599 688 480.361 698 c 0
 488.243 703 496.772 706 505.772 706 c 0
 531.772 706 538.835 678 541.072 668 c 2
 626.531 336 l 1
 688.805 71 685.862 77 690.275 68 c 0
 708.752 31 756.631 53 758.399 29 c 0
 758.693 25 758.459 18 758.106 16 c 0
 755.814 3 747.228 -6 734.228 -6 c 0
 730.228 -6 681.285 0 620.285 0 c 0
 548.285 0 512.228 -6 500.228 -6 c 0
 486.228 -6 481.462 1 483.226 11 c 0
 488.691 42 499.162 39 548.221 45 c 0
 553.396 46 568.573 47 571.57 64 c 0
 574.744 82 559.728 201 536.42 290 c 0
 534.008 299 529.184 300 520.184 300 c 2
 285.184 300 l 2
 274.184 300 268.008 299 260.067 288 c 0
 195.021 197 138.508 92 134.981 72 c 0
 130.044 44 151.221 45 192.339 40 c 0
 201.162 39 213.634 36 210.106 16 c 0
 207.814 3 197.228 -6 184.228 -6 c 0
 173.228 -6 141.285 0 75.2852 0 c 0
509.353 352 m 2
 514.353 352 518.529 353 519.587 359 c 0
 521.351 369 478.679 541 467.91 565 c 0
 465.792 570 463.145 572 458.145 572 c 0
 449.145 572 441.381 562 436.147 555 c 0
 353.693 439 300.116 362 299.058 356 c 0
 298.705 354 300.353 352 304.353 352 c 2
 509.353 352 l 2
EndSplineSet
EndChar

StartChar: B
Encoding: 66 66 35
Width: 564
GlyphClass: 2
Flags: HMW
HStem: -6 47<17.3125 93.935 182.305 356.782> 355 43<180 347.133> 651 44<182.763 340.509>
VStem: 94 86<46.989 355 398 639.812> 402 89<461.932 592.593> 447 89<121.063 282.491>
LayerCount: 2
Fore
SplineSet
150.216 686 m 0xf4
 211.216 686 265.803 695 325.803 695 c 0
 366.803 695 439.098 691 484.75 655 c 0
 510.047 634 534.993 594 525.472 540 c 0xf8
 514.363 477 462.137 419 403.317 386 c 0
 402.142 385 400.965 384 400.789 383 c 0
 400.612 382 401.436 381 403.26 380 c 0
 477.614 365 527.271 295 511.579 206 c 0
 494.651 110 414.838 43 351.253 17 c 0
 339.371 12 299.197 -6 227.197 -6 c 0
 181.197 -6 137.255 0 91.2549 0 c 0
 56.2549 0 21.9023 -2 -23.0977 -2 c 2
 -25.0977 -2 l 2
 -35.0977 -2 -43.9209 -1 -39.8652 22 c 0
 -36.5156 41 -23.6914 40 20.1904 45 c 0
 31.543 47 41.7188 48 44.7168 65 c 2
 141.167 612 l 2
 146.104 640 128.281 641 94.8096 644 c 0
 84.8096 644 77.5156 648 81.2178 669 c 0
 83.1572 680 90.3916 687 102.392 687 c 0
 106.392 687 121.216 686 150.216 686 c 0xf4
432.77 519 m 0
 441.232 567 426.044 651 309.044 651 c 0
 289.044 651 248.516 648 237.104 640 c 0
 231.399 636 230.518 631 229.812 627 c 2
 229.46 625 l 1
 191.726 411 l 2
 190.315 403 190.434 398 199.434 398 c 2
 244.434 398 l 1
 257.434 398 l 2
 297.434 398 365.963 401 408.719 462 c 0
 420.893 480 429.242 499 432.77 519 c 0
203.484 41 m 0
 302.484 41 403.183 96 421.697 201 c 0xf4
 432.101 260 413.443 330 329.793 349 c 0
 303.852 355 274.852 355 246.852 355 c 2
 195.852 355 l 2
 182.852 355 180.617 348 179.206 340 c 2
 133.714 82 l 2
 130.717 65 129.071 50 157.19 45 c 0
 171.838 43 187.484 41 203.484 41 c 0
EndSplineSet
EndChar

StartChar: C
Encoding: 67 67 36
Width: 700
GlyphClass: 2
Flags: HW
HStem: -24 51<296.333 499.546> 439 21G<629 650.5> 650 46<283.328 486.406>
VStem: 19 96<225.341 451.697> 613 49<439.285 545.701>
LayerCount: 2
Fore
SplineSet
118.174 354 m 0
 85.7295 170 185.515 27 341.515 27 c 0
 456.515 27 579.092 104 637.251 224 c 0
 638.78 227 642.544 237 654.544 237 c 0
 661.544 237 670.015 234 668.604 226 c 1
 668.604 226 619.097 70 614.862 63 c 1
 608.218 48 595.041 47 590.041 47 c 2
 589.041 47 l 1
 561.041 47 l 2
 537.041 47 533.631 39 510.339 26 c 0
 439.814 -11 372.522 -24 316.522 -24 c 0
 223.522 -24 137.223 14 81.6836 79 c 0
 25.3213 145 2.07227 240 18.8232 335 c 0
 36.6328 436 99.3838 531 175.492 594 c 0
 254.953 659 355.478 696 448.478 696 c 2
 449.478 696 l 2
 570.478 696 623.133 643 636.133 643 c 0
 653.133 643 651.599 674 671.48 679 c 0
 674.48 679 680.656 680 682.656 680 c 0
 692.656 680 693.599 674 693.541 668 c 0
 693.364 667 684.923 466 683.159 456 c 0
 681.925 449 677.162 439 660.162 439 c 0
 634.162 439 637.396 446 639.449 486 c 0
 640.21 513 639.031 529 625.087 552 c 0
 593.256 604 530.367 650 438.366 650 c 0
 301.366 650 150.794 539 118.174 354 c 0
EndSplineSet
EndChar

StartChar: D
Encoding: 68 68 37
Width: 709
GlyphClass: 2
Flags: HW
HStem: 0 48<10.3898 109.178 205.353 418.413> 633 42<11.0095 108.044 200.812 393.155>
VStem: 111 89<58.0293 626.875> 595 100<233.039 436.012>
LayerCount: 2
Fore
SplineSet
248.953 48 m 0
 394.953 48 559.999 139 591.209 316 c 0
 608.137 412 584.77 512 516.172 571 c 1
 458.636 619 381.104 633 319.104 633 c 0
 261.104 633 251.047 627 246.639 602 c 2
 156.888 93 l 2
 152.479 68 160.893 59 186.012 54 c 0
 206.306 50 226.953 48 248.953 48 c 0
66.8076 654 m 0
 70.1572 673 83.5107 675 92.5107 675 c 2
 274.511 675 l 2
 372.511 675 474.981 672 556.752 631 c 0
 647.641 585 721.008 485 695.97 343 c 0
 664.76 166 494.132 32 346.548 6 c 0
 316.666 1 286.489 0 256.489 0 c 2
 -26.5107 0 l 2
 -35.5107 0 -49.1572 2 -44.5732 28 c 0
 -40.165 53 -19.8701 49 33.6582 52 c 0
 56.835 53 63.127 66 67.0068 88 c 2
 156.228 594 l 2
 163.104 633 139.399 629 80.752 631 c 0
 65.752 631 64.3389 640 66.8076 654 c 0
EndSplineSet
EndChar

StartChar: E
Encoding: 69 69 38
Width: 578
GlyphClass: 2
Flags: HW
HStem: -12 73<27.9152 103.47> 0 62<197.782 319.547> 0 55<229.453 464.01> 369 58<198.975 407.8> 638 53<15.3204 107 199.183 454.471>
VStem: 107 89<64.3716 365.73 427 636.673> 409 55<271.454 368.907 428.208 512.546>
LayerCount: 2
Fore
SplineSet
466.593 513 m 0x9e
 492.593 513 491.419 495 489.479 484 c 2
 457.035 300 l 2
 455.096 289 449.922 271 423.922 271 c 0
 398.922 271 399.214 284 400.801 293 c 2
 410.322 347 l 2
 413.849 367 402.201 369 388.201 369 c 2
 250.201 369 l 2
 227.201 369 200.849 367 194.148 329 c 2
 153.77 100 l 2
 150.596 82 150.774 66 179.069 62 c 0x5e
 209.188 57 239.835 55 270.835 55 c 0
 302.835 55 395.893 61 418.538 76 c 0
 439.007 90 488.642 173 506.405 183 c 0
 510.758 185 513.934 186 516.934 186 c 0
 523.934 186 533.876 180 530.878 163 c 2
 530.702 162 l 2
 529.644 156 528.291 154 474.663 20 c 0
 469.019 5 462.137 0 441.137 0 c 2
 97.1367 0 l 2x3e
 22.1367 0 -10.9785 -12 -28.9785 -12 c 0
 -47.9785 -12 -48.5703 13 -47.6895 18 c 0
 -44.5156 36 -34.5156 36 35.8926 61 c 0
 56.127 68 60.8906 78 64.7695 100 c 2
 156.636 621 l 2
 159.281 636 154.457 637 133.162 641 c 0
 95.2207 647 66.9863 640 72.0996 669 c 0
 75.626 689 85.9785 691 94.9785 691 c 2
 554.979 691 l 2
 568.979 691 572.921 685 574.158 675 c 0
 575.223 630 580.588 547 579.706 542 c 0
 578.648 536 573.062 527 556.062 527 c 0
 539.062 527 535.001 538 531.235 545 c 0
 496.929 634 500.634 638 469.634 638 c 2
 281.634 638 l 2
 252.634 638 247.283 619 243.934 600 c 2
 217.308 449 l 2
 215.545 439 214.429 427 233.429 427 c 2
 386.429 427 l 2
 403.429 427 424.604 428 430.247 460 c 2
 435.714 491 l 2
 437.477 501 442.593 513 466.593 513 c 0x9e
EndSplineSet
EndChar

StartChar: F
Encoding: 70 70 39
Width: 541
GlyphClass: 2
Flags: HW
HStem: -6 53<11.5821 97.6384 193.251 320.983> 360 58<194.165 395.801> 636 51<10.3223 97.588 194.854 441.997>
VStem: 98 94<49.7348 360 418 634.561> 395 55<270.499 360> 403 47<418.264 503.907>
LayerCount: 2
Fore
SplineSet
475.038 483 m 0xf4
 473.275 473 464.515 446 454.64 390 c 0
 444.59 333 443.652 305 442.065 296 c 0
 438.362 275 421.48 270 410.48 270 c 0
 386.48 270 392.654 288 395.882 346 c 0xf8
 396.821 357 392.351 360 380.351 360 c 2
 217.351 360 l 2
 196.351 360 192.882 346 190.413 332 c 2
 146.684 84 l 2
 143.687 67 140.513 49 181.16 47 c 0
 245.808 45 269.865 51 265.104 24 c 2
 263.518 15 l 2
 261.578 4 255.814 -6 242.814 -6 c 0
 237.814 -6 180.872 0 108.872 0 c 0
 35.8721 0 -23.1855 -6 -27.1855 -6 c 0
 -42.1855 -6 -48.5986 3 -46.1299 17 c 0
 -41.0166 46 -27.8984 41 15.8076 45 c 0
 42.3359 48 48.2754 59 51.2734 76 c 2
 144.727 606 l 2
 150.369 638 134.84 635 85.1924 637 c 0
 80.1924 637 62.1924 637 65.8955 658 c 0
 69.9512 681 78.1855 688 89.1855 688 c 0
 98.1855 688 122.48 684 172.48 684 c 0
 210.48 684 281.009 687 335.009 687 c 2
 525.009 687 l 1
 530.009 687 l 2
 542.009 687 556.833 686 558.601 662 c 0
 559.84 635 563.792 561 562.734 555 c 0
 560.266 541 549.679 532 538.679 532 c 0
 518.679 532 515.676 549 490.313 615 c 0
 483.135 631 479.017 636 459.017 636 c 2
 275.017 636 l 2
 248.017 636 243.019 619 239.669 600 c 2
 210.222 433 l 2
 208.459 423 210.577 418 222.577 418 c 2
 389.577 418 l 2
 410.577 418 409.164 427 426.98 477 c 0
 431.272 490 438.741 504 455.741 504 c 0
 468.741 504 477.331 496 475.038 483 c 0xf4
EndSplineSet
EndChar

StartChar: G
Encoding: 71 71 40
Width: 691
GlyphClass: 2
Flags: HW
HStem: -24 53<280.988 476.936> 260 46<423.046 542.581> 441 21G<595 622> 658 48<250.345 437.146>
VStem: 16 100<226.103 480.292> 545 84<76.6719 251.789>
LayerCount: 2
Fore
SplineSet
301.641 -24 m 0
 114.641 -24 -18.7363 144 18.292 354 c 0
 54.0869 557 232.359 706 416.359 706 c 0
 535.359 706 596.427 644 607.898 641 c 1
 611.898 641 l 2
 630.898 641 650.717 674 662.774 680 c 0
 666.128 682 670.304 683 675.304 683 c 0
 682.304 683 688.774 680 686.835 669 c 2
 682.074 642 l 2
 664.089 540 661.159 461 660.454 457 c 0
 658.69 447 650.633 441 628.633 441 c 0
 596.633 441 630.275 473 592.441 542 c 0
 555.256 609 482.896 658 395.896 658 c 0
 294.896 658 158.848 584 120.585 367 c 0
 74.0342 103 217.986 29 321.986 29 c 0
 407.986 29 486.449 77 498.447 94 c 0
 502.505 100 503.563 106 504.444 111 c 2
 524.37 224 l 2
 530.188 257 508.483 253 436.718 260 c 0
 424.894 261 409.6 265 412.773 283 c 0
 414.889 295 423.828 306 438.828 306 c 0
 449.828 306 479.123 302 541.123 302 c 2
 543.123 302 l 2
 607.123 302 640.828 306 650.828 306 c 0
 669.828 306 674.713 294 673.126 285 c 0
 667.659 254 622.423 264 612.015 239 c 0
 610.485 236 609.957 233 609.251 229 c 2
 579.452 60 l 2
 577.513 49 572.926 40 561.926 40 c 0
 549.926 40 544.629 61 535.629 61 c 0
 529.629 61 523.747 56 520.218 53 c 0
 448.696 -1 368.641 -24 301.641 -24 c 0
EndSplineSet
EndChar

StartChar: H
Encoding: 72 72 41
Width: 762
GlyphClass: 2
Flags: HW
HStem: -6 50<15.2519 108.504 199.068 294.781 466.413 565.843 655.964 744.797> 365 62<198 565.916> 636 51<14.6575 108.262 198.337 296.024 474.512 564.115 655.349 749.377>
VStem: 109 89<48.884 365 427 634.922> 567 88<45.9662 365 427 634.938>
LayerCount: 2
Fore
SplineSet
97.7842 0 m 0
 30.7842 0 -22.2734 -6 -26.2734 -6 c 0
 -42.2734 -6 -44.1572 6 -41.5127 21 c 0
 -37.6338 43 -25.1621 40 30.543 44 c 0
 54.8955 46 59.1875 59 62.1855 76 c 2
 155.462 605 l 2
 161.104 637 139.752 635 110.457 639 c 0
 92.9863 642 66.2812 638 70.1602 660 c 0
 71.3945 667 78.9209 687 97.9209 687 c 0
 109.921 687 144.568 685 214.568 685 c 2
 217.568 685 l 2
 289.568 685 325.921 687 337.921 687 c 0
 352.921 687 353.334 678 353.218 666 c 0
 352.689 663 353.16 660 352.631 657 c 0
 349.104 637 334.634 640 272.929 636 c 0
 252.752 635 247.812 624 244.639 606 c 2
 215.545 441 l 2
 214.134 433 215.076 427 226.076 427 c 2
 564.076 427 l 2
 580.076 427 582.839 437 584.25 445 c 2
 610.347 593 l 2
 613.344 610 615.694 629 596.929 636 c 1
 572.868 647 525.047 631 530.689 663 c 0
 533.334 678 542.921 687 558.921 687 c 0
 568.921 687 599.568 685 661.568 685 c 0
 732.568 685 789.273 689 793.273 689 c 0
 805.273 689 810.863 681 808.747 669 c 0
 803.634 640 782.162 643 733.929 636 c 0
 708.399 633 704.107 620 701.814 607 c 2
 609.243 82 l 1
 608.361 77 l 2
 606.246 65 605.071 47 630.719 45 c 0
 668.19 42 692.896 46 688.311 20 c 0
 686.195 8 679.727 -6 663.727 -6 c 0
 659.727 -6 607.784 0 542.784 0 c 0
 477.784 0 424.727 -6 420.727 -6 c 0
 407.727 -6 406.489 4 408.253 14 c 0
 413.719 45 422.838 40 484.719 45 c 1
 512.896 46 517.54 61 521.42 83 c 2
 569.204 354 l 2
 570.791 363 567.144 365 558.144 365 c 2
 217.144 365 l 2
 204.144 365 200.909 358 199.146 348 c 2
 151.361 77 l 2
 148.893 63 146.425 49 193.543 44 c 0
 208.19 42 242.719 45 238.663 22 c 0
 235.666 5 230.727 -6 217.727 -6 c 0
 214.727 -6 162.784 0 97.7842 0 c 0
EndSplineSet
EndChar

StartChar: I
Encoding: 73 73 42
Width: 323
GlyphClass: 2
Flags: HW
HStem: -6 52<14.1856 117.673 209.024 305.574> 631 49<30.4961 118.99 209 287.661>
VStem: 118 91<48.0003 628.443>
LayerCount: 2
Fore
SplineSet
112.48 680 m 0
 116.48 680 164.599 675 226.599 675 c 0
 289.599 675 321.304 679 331.304 679 c 0
 339.304 679 347.774 676 344.953 660 c 0
 339.664 630 328.192 633 276.312 628 c 0
 262.135 627 258.725 619 257.313 611 c 2
 162.097 71 l 2
 160.334 61 158.041 48 175.688 46 c 0
 230.983 42 254.865 47 250.634 23 c 0
 248.518 11 242.52 -6 225.52 -6 c 0
 221.52 -6 167.578 0 99.5781 0 c 0
 31.5781 0 -25.4805 -6 -29.4805 -6 c 0
 -44.4805 -6 -43.3643 6 -42.4248 17 c 0
 -42.8955 20 -42.3662 23 -41.8379 26 c 0
 -38.1348 47 -24.8398 43 46.041 48 c 0
 64.2178 49 68.9814 59 71.9785 76 c 2
 163.669 596 l 2
 164.727 602 166.608 607 167.138 610 c 0
 170.84 631 156.312 628 104.84 631 c 0
 93.0166 632 82.5459 635 85.543 652 c 0
 87.6592 664 95.4805 680 112.48 680 c 0
EndSplineSet
EndChar

StartChar: J
Encoding: 74 74 43
Width: 316
GlyphClass: 2
Flags: HW
HStem: -212 60<-26 61.3199> 632 48<15.3288 115.409 210.754 298.798>
VStem: 118 91<-47.6 625.019>
LayerCount: 2
Fore
SplineSet
242.76 675 m 2
 312.76 675 348.466 679 360.466 679 c 0
 374.466 679 375.702 669 373.939 659 c 0
 368.297 627 352.178 632 304.297 627 c 0
 280.943 625 275.651 612 272.302 593 c 2
 177.614 56 l 2
 163.331 -25 112.459 -98 53.9961 -146 c 0
 42.2324 -156 -31.6416 -212 -80.6416 -212 c 0
 -128.642 -212 -153.236 -170 -147.064 -135 c 0
 -142.48 -109 -120.425 -86 -93.4248 -86 c 0
 -44.4248 -86 -52.0625 -152 -9.0625 -152 c 0
 24.9375 -152 43.3438 -110 51.6934 -91 c 0
 63.1016 -66 67.5703 -52 72.1553 -26 c 2
 181.654 595 l 2
 187.825 630 163.12 626 107.178 632 c 0
 98.3545 633 85.8838 636 88.8809 653 c 0
 90.9971 665 98.6416 680 115.642 680 c 0
 119.642 680 172.76 675 238.76 675 c 2
 242.76 675 l 2
EndSplineSet
EndChar

StartChar: K
Encoding: 75 75 44
Width: 654
GlyphClass: 2
Flags: HW
HStem: -6 50<14.4806 107.22 200.15 299.736> -5 38<587.122 647.484> 315 55<199.002 237.997> 630 57<502.154 616.167> 640 48<12.1716 106.871 200.3 290.377>
VStem: 111 88<49.4271 312.167 370.007 633.513>
LayerCount: 2
Back
SplineSet
218.814 -6 m 0
 214.814 -6 161.872 0 94.8721 0 c 0
 28.8721 0 -26.1855 -6 -30.1855 -6 c 0
 -44.1855 -6 -45.0693 6 -43.1299 17 c 0
 -36.9102 52.2725 6.89844 40.0459 33.1602 47 c 0
 54.2178 53 61.8047 62 67.2705 93 c 2
 154.905 590 l 2
 163.369 638 144.84 635 92.7217 640 c 0
 79.8984 641 65.7793 646 68.9531 664 c 0
 70.541 673 80.1855 688 102.186 688 c 0
 113.186 688 145.48 684 211.48 684 c 2
 212.48 684 l 2
 278.48 684 312.186 688 323.186 688 c 0
 346.186 688 349.012 670 347.601 662 c 0
 342.312 632 289.956 647 266.192 637 c 0
 250.959 630 247.138 614 245.374 604 c 2
 207.111 387 l 2
 205.877 380 206.113 370 217.113 370 c 0
 227.113 370 236.053 381 246.816 391 c 0
 319.807 459 458.553 588 464.963 596 c 0
 469.845 601 475.256 609 476.666 617 c 0
 484.248 660 412.959 630 419.307 666 c 0
 421.599 679 432.009 687 446.009 687 c 0
 457.009 687 487.656 685 550.656 685 c 2
 556.656 685 l 2
 616.656 685 647.009 687 657.009 687 c 0
 679.009 687 682.894 675 681.307 666 c 0
 676.369 638 624.604 645 585.959 630 c 0
 552.666 617 528.905 590 502.85 567 c 0
 289.818 374 290.348 377 288.761 368 c 0
 287.703 362 289.998 358 294.116 353 c 0
 521.275 59 511.039 69 524.275 59 c 0
 553.573 38 574.513 49 587.691 33 c 0
 589.986 29 591.928 23 591.047 18 c 0
 589.459 9 578.991 -5 557.991 -5 c 0
 543.991 -5 539.696 -1 511.696 -1 c 0
 437.872 0 437.991 -5 418.104 24 c 0
 218.71 311 220.415 315 208.415 315 c 2
 207.415 315 l 2
 194.415 315 191.3 303 189.889 295 c 2
 152.684 84 l 2
 145.808 45 161.513 49 225.631 44 c 0
 232.454 43 247.102 41 243.752 22 c 0
 241.106 7 234.814 -6 218.814 -6 c 0
EndSplineSet
Fore
SplineSet
218.814 -6 m 0xa4
 214.814 -6 161.872 0 94.8721 0 c 0
 28.8721 0 -26.1855 -6 -30.1855 -6 c 0
 -44.1855 -6 -45.0693 6 -43.1299 17 c 0
 -38.1924 45 -11.7217 42 13.6309 44 c 0
 44.9834 46 60.3945 54 67.2705 93 c 2
 154.905 590 l 2
 163.369 638 144.84 635 92.7217 640 c 0
 79.8984 641 65.7793 646 68.9531 664 c 0
 70.541 673 80.1855 688 102.186 688 c 0
 113.186 688 145.48 684 211.48 684 c 2
 212.48 684 l 2
 278.48 684 312.186 688 323.186 688 c 0xac
 346.186 688 349.012 670 347.601 662 c 0
 342.312 632 289.956 647 266.192 637 c 0
 250.959 630 247.138 614 245.374 604 c 2
 207.111 387 l 2
 205.877 380 206.113 370 217.113 370 c 0
 227.113 370 236.053 381 246.816 391 c 0
 319.807 459 458.553 588 464.963 596 c 0
 469.845 601 475.256 609 476.666 617 c 0
 484.248 660 412.959 630 419.307 666 c 0
 421.599 679 432.009 687 446.009 687 c 0
 457.009 687 487.656 685 550.656 685 c 2
 556.656 685 l 2
 616.656 685 647.009 687 657.009 687 c 0
 679.009 687 682.894 675 681.307 666 c 0
 676.369 638 624.604 645 585.959 630 c 0
 552.666 617 528.905 590 502.85 567 c 0
 289.818 374 290.348 377 288.761 368 c 0
 287.703 362 289.998 358 294.116 353 c 0
 521.275 59 511.039 69 524.275 59 c 0
 553.573 38 574.513 49 587.691 33 c 0
 589.986 29 591.928 23 591.047 18 c 0
 589.459 9 578.991 -5 557.991 -5 c 0x74
 543.991 -5 539.696 -1 511.696 -1 c 0
 437.872 0 437.991 -5 418.104 24 c 0
 218.71 311 220.415 315 208.415 315 c 2
 207.415 315 l 2
 194.415 315 191.3 303 189.889 295 c 2
 152.684 84 l 2
 145.808 45 161.513 49 225.631 44 c 0
 232.454 43 247.102 41 243.752 22 c 0
 241.106 7 234.814 -6 218.814 -6 c 0xa4
EndSplineSet
EndChar

StartChar: L
Encoding: 76 76 45
Width: 563
GlyphClass: 2
Flags: HW
HStem: 0 60<185.415 455.946> 0 45<14.7662 91.4135> 629 49<11.0815 91.9614 185.402 288.929>
VStem: 92 93<60.5237 626.364> 502 45<127.281 178.977>
LayerCount: 2
Fore
SplineSet
210.774 675 m 2x78
 282.774 675 320.304 678 332.304 678 c 0
 348.304 678 347.364 667 344.543 651 c 0
 341.017 631 329.487 628 318.487 628 c 0
 250.135 626 237.369 633 231.374 599 c 2
 141.977 92 l 2
 138.979 75 138.334 60 162.334 60 c 2
 353.334 60 l 1
 356.334 60 l 2xb8
 373.334 60 394.51 61 416.095 87 c 0
 428.739 102 465.848 165 473.082 172 c 0
 477.964 177 483.493 180 489.493 180 c 0
 495.493 180 518.964 177 515.438 157 c 0
 514.556 152 485.862 63 470.575 16 c 0
 466.636 5 462.696 -6 439.696 -6 c 0
 425.696 -6 247.754 0 23.7539 0 c 2
 -29.2461 0 l 2
 -42.2461 0 -43.835 8 -42.4248 16 c 0
 -38.8984 36 -26.8984 36 17.6885 45 c 1
 40.7471 51 44.0391 64 46.3311 77 c 2
 46.8604 80 l 1
 139.432 605 l 2
 144.369 633 130.487 628 87.6641 629 c 0
 74.8398 630 63.5459 634 66.8955 653 c 0
 70.2461 672 78.3037 678 90.3037 678 c 0
 101.304 678 134.951 676 203.774 675 c 1
 210.774 675 l 2x78
EndSplineSet
EndChar

StartChar: M
Encoding: 77 77 46
Width: 998
GlyphClass: 2
Flags: HW
HStem: -15 21G<492.5 504> -6 59<198.424 290.543> -6 55<19.7654 120.397 703.77 805.323 899.654 995.52> 635 40<22.071 98.7458>
VStem: 124 70<53.3311 334.948> 149 51<334.948 477.998> 809 89<51.3681 476.999>
DStem2: 209 662 138 574 0.520486 -0.85387<-27.1884 64.7399 409.819 606.783>
LayerCount: 2
Back
SplineSet
661.754 -6 m 4xd8
 646.754 -6 645.399 9 646.986 18 c 4
 654.921 63 742.339 20 763.742 79 c 4
 765.8 85 767.034 92 768.092 98 c 6
 805.649 311 l 6
 817.816 380 831.333 468 830.862 471 c 4
 830.744 476 827.92 477 824.92 477 c 4
 817.92 477 812.686 470 808.804 465 c 4
 694.766 323 487.162 19 465.283 -3 c 4
 454.344 -14 445.167 -15 441.167 -15 c 4
 422.167 -15 417.047 7 412.515 21 c 4
 343.659 243 240.038 472 232.92 477 c 4
 232.097 478 231.097 478 230.097 478 c 4
 227.097 478 225.567 475 225.215 473 c 4
 208.872 403 194.882 335 182.539 265 c 4
 175.133 223 151.508 72 152.744 62 c 4
 156.926 29 247.273 65 238.81 17 c 4
 237.223 8 230.754 -6 216.754 -6 c 4
 212.754 -6 161.812 0 97.8125 0 c 4
 33.8125 0 -19.2461 -6 -23.2461 -6 c 4
 -30.2461 -6 -40.541 -2 -37.3662 16 c 4
 -32.0771 46 -8.60547 43 42.4521 49 c 4
 76.1572 53 75.8604 74 83.7979 102 c 4
 130.184 280 179.681 504 187.615 549 c 4
 189.908 562 184.966 568 181.023 574 c 4
 168.845 590 153.604 634 95.7793 635 c 4
 88.9561 636 75.9561 636 78.9531 653 c 4
 82.6562 674 93.833 675 100.833 675 c 6
 244.833 675 l 6
 258.833 675 263.304 672 267.541 662 c 6
 400.821 346 l 5
 485.024 160 l 6
 486.319 156 490.908 148 499.908 148 c 4
 506.908 148 511.614 152 515.848 159 c 4
 876.246 666 875.246 666 876.246 666 c 4
 881.48 673 886.833 675 895.833 675 c 6
 1040.83 675 l 6xb8
 1047.83 675 1055.66 674 1051.95 653 c 4
 1047.19 626 1024.43 633 967.43 616 c 4
 950.725 612 941.49 605 938.316 587 c 4
 873.901 199 866.261 150 857.621 101 c 6
 856.387 94 l 6
 851.979 69 849.452 49 882.747 45 c 4
 926.041 41 946.747 45 941.633 16 c 4
 939.341 3 929.754 -6 917.754 -6 c 4
 912.754 -6 858.812 0 789.812 0 c 4
 721.812 0 665.754 -6 661.754 -6 c 4xd8
EndSplineSet
Fore
SplineSet
661.754 -6 m 0x36
 646.754 -6 645.399 9 646.986 18 c 0
 650.688 39 672.041 41 696.395 43 c 0
 731.923 46 759.629 50 767.387 94 c 2
 805.649 311 l 2
 817.816 380 831.333 468 830.862 471 c 0
 830.744 476 827.92 477 824.92 477 c 0
 817.92 477 812.686 470 808.804 465 c 0
 694.766 323 487.162 19 465.283 -3 c 0
 454.344 -14 445.167 -15 441.167 -15 c 0
 422.167 -15 417.047 7 412.515 21 c 0
 343.659 243 240.038 472 232.92 477 c 0
 232.097 478 231.097 478 230.097 478 c 0
 227.097 478 225.567 475 225.215 473 c 0x96
 208.872 403 194.882 335 182.539 265 c 0
 176.72 232 161.264 133 154.977 86 c 0
 153.331 71 149.392 60 157.157 53 c 0
 178.983 35 246.392 60 238.81 17 c 0
 237.223 8 230.754 -6 216.754 -6 c 0x5a
 212.754 -6 161.812 0 97.8125 0 c 0
 33.8125 0 -19.2461 -6 -23.2461 -6 c 0
 -30.2461 -6 -40.541 -2 -37.3662 16 c 0
 -32.0771 46 -8.60547 43 42.4521 49 c 0
 76.1572 53 75.8604 74 83.7979 102 c 0x3a
 130.184 280 179.681 504 187.615 549 c 0
 189.908 562 184.966 568 181.023 574 c 0
 168.845 590 153.604 634 95.7793 635 c 0
 88.9561 636 75.9561 636 78.9531 653 c 0
 82.6562 674 93.833 675 100.833 675 c 2
 244.833 675 l 2
 258.833 675 263.304 672 267.541 662 c 2
 400.821 346 l 1
 485.024 160 l 2
 486.319 156 490.908 148 499.908 148 c 0
 506.908 148 511.614 152 515.848 159 c 0
 876.246 666 875.246 666 876.246 666 c 0
 881.48 673 886.833 675 895.833 675 c 2
 1040.83 675 l 2
 1047.83 675 1055.66 674 1051.95 653 c 0
 1047.19 626 1024.43 633 967.43 616 c 0
 950.725 612 941.49 605 938.316 587 c 0
 873.901 199 866.261 150 857.621 101 c 2
 856.387 94 l 2
 851.979 69 849.452 49 882.747 45 c 0
 926.041 41 946.747 45 941.633 16 c 0
 939.341 3 929.754 -6 917.754 -6 c 0
 912.754 -6 858.812 0 789.812 0 c 0
 721.812 0 665.754 -6 661.754 -6 c 0x36
EndSplineSet
EndChar

StartChar: N
Encoding: 78 78 47
Width: 799
GlyphClass: 2
Flags: HW
HStem: -23 21G<675 690> -6 52<188.519 290.647> -6 46<21.4455 113.656 230.63 303.774> 633 48<9.16241 90.8418 551.132 633.188 706.744 790.857>
VStem: 638 62<360.111 627.882> 647 49<172.004 504.224>
DStem2: 194 662 116 590 0.657753 -0.753234<-42.918 76.0834 189.311 648.432>
LayerCount: 2
Back
SplineSet
66.4824 655 m 4xe0
 70.1855 676 80.0674 681 93.0674 681 c 6
 216.067 681 l 6
 237.067 681 244.009 675 252.717 662 c 6
 377.625 480 l 5
 450.64 378 l 5
 597.08 182 603.316 172 610.316 172 c 4xe0
 616.316 172 618.198 177 619.08 182 c 4
 626.428 218 633.6 253 639.947 289 c 4xd0
 657.933 391 672.212 489 683.492 587 c 4
 689.074 630 670.251 631 627.133 636 c 4
 620.309 637 605.838 640 608.835 657 c 4
 610.599 667 620.067 681 642.067 681 c 4
 651.067 681 679.538 678 737.538 678 c 4
 794.538 678 823.067 681 832.067 681 c 4
 843.067 681 852.009 675 849.012 658 c 4
 839.843 606 760.656 673 743.553 576 c 5xe0
 725.684 486 707.638 395 691.769 305 c 4xd0
 661.969 136 651.157 52 646.221 24 c 4
 643.752 10 637.933 -23 617.933 -23 c 4
 607.933 -23 598.696 -13 576.339 19 c 6
 410.952 255 l 5
 248.625 480 235.976 499 231.976 499 c 4
 229.976 499 228.446 496 227.271 495 c 4
 198.64 378 173.187 262 151.674 140 c 6
 146.561 111 l 6
 137.392 59 138.629 49 180.1 46 c 4
 193.1 46 233.218 41 239.865 39 c 4
 243.513 37 251.983 34 248.28 13 c 4
 246.341 2 238.931 -6 227.931 -6 c 4
 223.931 -6 171.988 0 106.988 0 c 4
 40.9883 0 -12.0693 -6 -17.0693 -6 c 4
 -29.0693 -6 -36.6592 2 -34.543 14 c 4
 -34.0137 17 -28.6641 36 -14.958 40 c 4
 8.27539 47 53.8652 39 75.6836 72 c 4
 82.7998 84 81.2705 81 186.558 542 c 5
 187.087 545 l 5
 187.263 546 l 6
 188.85 555 188.908 561 162.021 590 c 4
 156.256 597 134.898 629 80.6035 633 c 4
 70.6035 633 63.1328 636 66.4824 655 c 4xe0
EndSplineSet
Fore
SplineSet
186.558 542 m 1x38
 187.263 546 l 2
 188.85 555 188.908 561 162.021 590 c 0
 156.256 597 134.898 629 80.6035 633 c 0
 70.6035 633 63.1328 636 66.4824 655 c 0
 70.1855 676 80.0674 681 93.0674 681 c 2
 216.067 681 l 2
 237.067 681 244.009 675 252.717 662 c 2
 377.625 480 l 1
 450.64 378 l 1
 597.08 182 603.316 172 610.316 172 c 0x38
 616.316 172 618.198 177 619.08 182 c 0
 626.428 218 633.6 253 639.947 289 c 0x34
 657.933 391 672.212 489 683.492 587 c 0
 689.074 630 670.251 631 627.133 636 c 0
 620.309 637 605.838 640 608.835 657 c 0
 610.599 667 620.067 681 642.067 681 c 0
 651.067 681 679.538 678 737.538 678 c 0
 794.538 678 823.067 681 832.067 681 c 0
 843.067 681 852.009 675 849.012 658 c 0
 844.251 631 823.133 636 798.779 634 c 0
 766.251 631 752.312 620 741.437 564 c 0x38
 724.449 479 706.933 391 691.769 305 c 0x34
 661.969 136 651.157 52 646.221 24 c 0
 643.752 10 637.933 -23 617.933 -23 c 0x98
 607.933 -23 598.696 -13 576.339 19 c 2
 410.952 255 l 1
 248.625 480 235.976 499 231.976 499 c 0
 229.976 499 228.446 496 227.271 495 c 0
 198.64 378 173.187 262 151.674 140 c 2
 146.561 111 l 2
 137.392 59 138.629 49 180.1 46 c 0
 193.1 46 233.218 41 239.865 39 c 0
 243.513 37 251.983 34 248.28 13 c 0
 246.341 2 238.931 -6 227.931 -6 c 0x58
 223.931 -6 171.988 0 106.988 0 c 0
 40.9883 0 -12.0693 -6 -17.0693 -6 c 0
 -29.0693 -6 -36.6592 2 -34.543 14 c 0
 -34.0137 17 -28.6641 36 -14.958 40 c 0
 8.27539 47 53.8652 39 75.6836 72 c 0
 82.7998 84 81.2705 81 186.558 542 c 1x38
EndSplineSet
EndChar

StartChar: O
Encoding: 79 79 48
Width: 778
GlyphClass: 2
Flags: HW
HStem: -24 58<292.823 500.654> 667 53<268.469 476.398>
VStem: 18 95<247.435 473.525> 661 99<215.912 458.255>
LayerCount: 2
Fore
SplineSet
758.061 337 m 0
 721.031 127 530.406 -24 335.406 -24 c 0
 237.406 -24 146.459 16 87.4492 84 c 0
 27.6162 153 2.07227 252 18.8818 353 c 1
 54.6758 556 251.594 720 452.594 720 c 0
 667.594 720 794.031 541 758.061 337 c 0
119.348 384 m 0
 88.8428 211 152.634 34 341.634 34 c 0
 455.634 34 618.857 109 655.887 319 c 0
 672.813 415 663.915 529 595.435 600 c 0
 554.017 643 493.248 667 427.248 667 c 0
 303.248 667 154.261 582 119.348 384 c 0
EndSplineSet
EndChar

StartChar: P
Encoding: 80 80 49
Width: 572
GlyphClass: 2
Flags: HW
HStem: -6 53<14.3235 103.74 191.169 329.729> 301 35<192.058 346.108> 635 48<22.1854 103.916> 648 45<192.498 376.489>
VStem: 104 88<48.1758 301 336.165 634.629> 476 84<428.095 566.357>
LayerCount: 2
Fore
SplineSet
503.242 498 m 0xdc
 517.878 581 448.691 648 306.691 648 c 0
 251.691 648 245.162 645 243.047 633 c 2
 192.794 348 l 2
 190.854 337 193.678 336 227.678 336 c 0
 374.678 336 486.139 401 503.242 498 c 0xdc
128.863 683 m 2xec
 223.863 683 296.626 693 368.626 693 c 0xdc
 451.626 693 512.629 676 553.047 633 c 0
 583.228 600 596.764 552 588.124 503 c 2
 587.948 502 l 1
 573.724 427 517.849 371 457.735 342 c 0
 416.032 321 349.506 301 225.506 301 c 2
 195.506 301 l 2
 185.506 301 181.448 295 179.685 285 c 2
 143.891 82 l 2
 140.012 60 144.071 49 169.719 47 c 0
 264.014 43 278.071 49 272.782 19 c 2
 272.605 18 l 2
 270.489 6 265.374 -6 249.374 -6 c 0
 244.374 -6 185.432 0 112.432 0 c 0
 37.4316 0 -22.626 -6 -27.626 -6 c 0
 -43.626 -6 -45.334 7 -43.3945 18 c 0
 -38.457 46 -29.1621 42 23.7188 47 c 0
 47.248 50 53.6582 58 56.4795 74 c 2
 150.814 609 l 2
 152.931 621 154.399 635 133.399 635 c 2
 97.3994 635 l 2
 87.3994 635 73.5752 636 77.9834 661 c 0
 80.6289 676 88.8633 683 103.863 683 c 2
 128.863 683 l 2xec
EndSplineSet
EndChar

StartChar: Q
Encoding: 81 81 50
Width: 752
GlyphClass: 2
Flags: HW
HStem: -203 49<721.771 814.451> -16 48<309.028 497.125> 675 49<275.167 480.352>
VStem: 20 97<261.525 474.605> 655 89<231.95 470.122>
LayerCount: 2
Fore
SplineSet
366.709 32 m 0
 501.709 32 634.811 146 667.078 329 c 0
 683.477 422 677.636 542 605.508 615 c 0
 566.385 654 510.088 675 449.088 675 c 0
 321.088 675 173.16 579 140.187 392 c 0
 109.506 218 188.709 32 366.709 32 c 0
408.127 -11 m 0
 400.127 -11 376.246 -16 340.246 -16 c 0
 237.245 -16 150.004 28 96.6416 94 c 0
 40.8086 163 19.5596 258 36.4863 354 c 0
 53.7666 452 112.223 551 195.39 620 c 0
 274.027 686 374.728 724 469.728 724 c 0
 552.728 724 640.262 693 698.095 624 c 0
 756.752 554 778.296 455 760.839 356 c 0
 736.506 218 637.407 87 518.712 15 c 0
 517.535 14 515.359 13 514.83 10 c 0
 514.478 8 515.301 7 517.125 6 c 0
 581.132 -45 598.492 -94 642.673 -127 c 0
 664.676 -144 692.912 -154 722.912 -154 c 0
 735.912 -154 740.089 -153 744.089 -153 c 0
 751.089 -153 755.384 -157 754.325 -163 c 0
 751.504 -179 700.272 -203 658.272 -203 c 0
 578.272 -203 538.028 -142 501.787 -98 c 0
 500.963 -97 430.127 -11 408.127 -11 c 0
EndSplineSet
EndChar

StartChar: R
Encoding: 82 82 51
Width: 696
GlyphClass: 2
Flags: HW
HStem: -13 62<594.041 660.287> -6 55<24.5925 112.643 202.643 317.523> 330 36<202.309 305.766> 640 35<14.0265 102.122> 648 39<200.592 346.517>
VStem: 113 89<49.7219 330 366.549 627.863> 438 78<431.776 566.374>
DStem2: 399 338 398 202 0.585268 -0.81084<-4.33804 371.1>
LayerCount: 2
Fore
SplineSet
466.036 496 m 0x2e
 480.143 576 418.838 648 317.838 648 c 0
 304.838 648 266.309 645 256.074 638 c 0
 250.546 635 248.487 629 247.253 622 c 0
 247.077 621 247.9 620 247.725 619 c 2
 206.287 384 l 2
 203.113 366 210.113 366 269.113 366 c 0
 305.113 366 333.643 369 363.582 380 c 0
 408.58 397 455.456 436 466.036 496 c 0x2e
344.715 687 m 0
 524.715 687 559.377 583 547.033 513 c 0
 529.4 413 432.526 357 403.764 347 c 0
 401.587 346 398.41 345 397.882 342 c 0
 397.529 340 398.353 339 399.177 338 c 0
 496.785 194 508.795 126 538.86 81 c 0
 550.039 65 566.218 49 587.218 49 c 0
 613.218 49 621.097 71 634.097 71 c 0
 640.097 71 643.216 66 642.157 60 c 0
 639.513 45 600.285 -13 542.285 -13 c 0xae
 489.285 -13 458.336 44 449.157 60 c 2
 374.196 202 l 1
 307.061 326 309.355 322 304.061 326 c 0
 299.766 330 294.766 330 287.766 330 c 2
 214.766 330 l 2
 205.766 330 200.236 327 198.121 315 c 2
 157.39 84 l 1
 156.86 81 l 2
 154.744 69 152.747 52 177.218 49 c 0
 243.16 43 267.865 47 262.399 16 c 0
 260.106 3 251.52 -6 238.52 -6 c 0
 234.52 -6 179.578 0 110.578 0 c 0
 41.5781 0 -14.4805 -6 -18.4805 -6 c 0
 -33.4805 -6 -33.835 9 -31.7197 21 c 0
 -27.8398 43 -12.1924 41 34.5127 45 c 0
 59.041 48 64.1572 60 67.6836 80 c 2
 158.845 597 l 2
 164.487 629 149.312 628 82.4268 640 c 0
 72.7793 642 68.4854 646 70.248 656 c 0
 72.8936 671 77.5986 675 86.5986 675 c 2
 121.599 675 l 2x76
 210.599 675 278.715 687 344.715 687 c 0
EndSplineSet
EndChar

StartChar: S
Encoding: 83 83 52
Width: 492
GlyphClass: 2
Flags: HW
HStem: -17 56<173.564 329.398> 635 50<138.512 269.954>
VStem: 32 72<479.18 595.956> 48 50<112.089 247.636> 398 73<105.026 250.11>
LayerCount: 2
Fore
SplineSet
64.0918 516 m 0xe8
 79.7842 605 167.891 685 272.891 685 c 0
 353.891 685 381.838 645 394.838 645 c 0
 409.838 645 419.891 685 443.891 685 c 0
 452.891 685 458.48 677 456.541 666 c 0
 455.13 658 446.722 633 437.905 583 c 0
 429.266 534 429.033 510 427.623 502 c 0
 425.859 492 417.979 487 407.979 487 c 2
 406.979 487 l 1
 375.154 488 392.502 524 354.2 579 c 0
 332.49 609 298.074 635 254.074 635 c 0
 198.074 635 149.669 593 140.5 541 c 0xe8
 133.976 504 148.333 472 175.454 450 c 0
 222.577 411 294.754 412 353.992 385 c 0
 420.526 354 463.065 289 447.02 198 c 0
 426.037 79 313.109 -17 190.109 -17 c 0
 132.109 -17 79.9883 5 47.8076 38 c 0
 39.3945 47 33.2754 52 19.2754 52 c 0
 9.27539 52 1.74707 49 -7.25293 49 c 0
 -21.2529 49 -23.666 58 -22.6084 64 c 0
 -20.4922 76 0.03125 113 29.1328 227 c 0
 32.0723 238 37.8359 248 54.8359 248 c 0
 75.8359 248 75.249 239 72.6094 190 c 1xd8
 67.2656 120 60.6738 145 83.6211 105 c 0
 102.626 71 141.983 39 200.983 39 c 0
 279.983 39 356.739 100 370.493 178 c 0
 378.251 222 363.305 262 331.889 288 c 0
 281.295 330 216.766 327 154.526 354 c 0
 78.1689 386 52.6299 451 64.0918 516 c 0xe8
EndSplineSet
EndChar

StartChar: T
Encoding: 84 84 53
Width: 692
GlyphClass: 2
Flags: HW
HStem: -6 53<202.22 307.561 402.04 510.545> 622 66<95.0021 308.605 402.112 608.482>
VStem: 309 93<49.375 621.698>
LayerCount: 2
Fore
SplineSet
432.814 -6 m 0
 427.814 -6 370.872 0 297.872 0 c 0
 225.872 0 164.814 -6 160.814 -6 c 0
 144.814 -6 142.931 6 145.399 20 c 0
 149.808 45 160.102 41 223.16 47 c 0
 253.688 50 260.157 64 263.684 84 c 2
 353.082 591 l 2
 355.551 605 357.548 622 331.548 622 c 2
 182.548 622 l 2
 155.548 622 150.49 616 141.021 602 c 0
 85.7393 521 82.623 509 63.623 509 c 0
 50.623 509 43.5625 520 46.0312 534 c 2
 46.207 535 l 2
 47.2656 541 48.7939 544 99.541 673 c 0
 105.009 687 115.186 688 123.186 688 c 2
 706.186 688 l 2
 722.186 688 722.422 678 722.13 665 c 0
 724.145 563 724.618 543 723.561 537 c 0
 721.444 525 711.681 515 700.681 515 c 0
 687.681 515 683.797 527 681.031 534 c 0
 648.49 616 651.548 622 620.548 622 c 2
 473.548 622 l 2
 452.548 622 449.079 608 446.787 595 c 2
 354.392 71 l 2
 349.808 45 363.513 49 440.278 42 c 0
 455.926 40 456.867 34 453.341 14 c 0
 451.578 4 445.814 -6 432.814 -6 c 0
EndSplineSet
EndChar

StartChar: U
Encoding: 85 85 54
Width: 756
GlyphClass: 2
Flags: HW
HStem: -15 57<289.866 527.494> 641 48<17.1222 85.4336 179.027 269.862>
VStem: 86 90<149.926 634.586> 618 56<128.982 634.348>
LayerCount: 2
Fore
SplineSet
799.482 663 m 0
 791.725 619 734.951 677 716.437 572 c 0
 715.908 569 714.202 565 713.674 562 c 2
 673.647 335 l 2
 670.826 319 669.182 304 666.36 288 c 2
 660.718 256 l 2
 648.551 187 625.8 92 532.573 34 c 0
 477.578 0 410.933 -15 334.933 -15 c 0
 95.9326 -15 71.208 117 66.085 156 c 0
 61.4902 198 67.3672 237 75.6543 284 c 0
 80.0625 309 85.6475 335 90.0557 360 c 2
 134.49 612 l 2
 139.251 639 123.074 638 97.6035 641 c 0
 89.7793 642 71.3086 645 74.835 665 c 0
 76.4219 674 83.0674 689 99.0674 689 c 0
 109.067 689 138.715 687 199.538 686 c 1
 205.538 686 l 2
 269.538 686 302.067 689 313.067 689 c 0
 328.067 689 330.128 678 327.482 663 c 0
 322.722 636 302.956 643 260.898 637 c 0
 231.192 633 225.195 616 222.727 602 c 2
 167.536 289 l 2
 155.018 218 146.674 148 194.682 97 c 0
 236.57 51 309.983 42 364.983 42 c 0
 402.983 42 507.688 46 564.029 133 c 0
 588.554 170 597.488 215 602.602 244 c 2
 605.07 258 l 2
 608.773 279 611.3 299 615.002 320 c 2
 662.963 592 l 2
 671.604 641 650.427 640 605.309 645 c 0
 594.485 646 584.014 649 587.188 667 c 0
 590.186 684 600.067 689 610.067 689 c 0
 619.067 689 644.538 686 697.538 686 c 0
 750.538 686 777.067 689 786.067 689 c 0
 804.067 689 801.599 675 799.482 663 c 0
EndSplineSet
EndChar

StartChar: V
Encoding: 86 86 55
Width: 830
GlyphClass: 2
Flags: HW
HStem: -20 21G<418 433.5> 632 57<22.8225 78.1183> 639 50<198.317 280.264 575.138 660.312>
VStem: 16 182<609 673> 662 161<603 670.5>
LayerCount: 2
Fore
SplineSet
107.508 689 m 0xd8
 118.508 689 151.979 686 218.979 686 c 0
 282.979 686 315.508 689 325.508 689 c 0
 339.508 689 341.744 679 340.158 670 c 0
 335.75 645 324.926 646 278.691 639 c 0
 269.516 638 250.81 634 247.107 613 c 0
 245.696 605 248.286 597 249.58 593 c 0
 312.673 361 396.997 153 402.586 145 c 0
 404.233 143 406.881 141 410.881 141 c 0
 417.881 141 421.938 147 423.291 149 c 0
 523.624 287 616.191 432 700.17 585 c 0
 703.228 591 708.639 599 710.049 607 c 0
 713.223 625 701.81 634 693.339 637 c 0
 669.926 646 627.104 630 633.1 664 c 0
 635.216 676 642.508 689 659.508 689 c 0
 669.508 689 699.979 686 760.979 686 c 0
 822.979 686 853.508 689 863.508 689 c 0xb8
 879.508 689 883.744 679 880.747 662 c 0
 874.752 628 834.808 651 796.812 617 c 0
 760.993 584 675.491 394 392.019 0 c 0
 388.137 -5 378.492 -20 363.492 -20 c 0
 347.492 -20 343.137 -5 341.019 0 c 0
 118.938 561 140.755 611 114.457 632 c 0
 104.044 641 71.1025 647 74.9814 669 c 0
 76.3916 677 84.5078 689 107.508 689 c 0xd8
EndSplineSet
EndChar

StartChar: W
Encoding: 87 87 56
Width: 1002
GlyphClass: 2
Flags: HW
HStem: -22 21G<314 326.5 636 654.5> 644 45<302.026 383.24 474.172 547.97 764.009 849.396>
VStem: 850 150<605 675>
LayerCount: 2
Fore
SplineSet
100.685 689 m 0
 109.685 689 138.155 686 196.155 686 c 0
 252.155 686 281.685 689 290.685 689 c 0
 308.685 689 305.863 673 304.276 664 c 0
 297.752 627 251.689 655 229.81 633 c 0
 224.929 628 222.87 622 222.518 620 c 0
 221.636 615 221.931 611 223.226 607 c 0
 248.663 428 257.904 384 301.112 164 c 0
 302.702 156 306.938 146 312.938 146 c 0
 323.938 146 320.938 146 464.021 396 c 0
 465.726 400 467.431 404 468.137 408 c 2
 468.312 409 l 2
 469.724 417 468.899 418 437.049 606 c 0
 430.75 644 432.221 641 373.75 644 c 0
 363.75 644 357.455 648 360.629 666 c 0
 363.273 681 373.685 689 387.685 689 c 0
 397.685 689 428.155 686 490.155 686 c 2
 491.155 686 l 2
 552.155 686 583.685 689 593.685 689 c 0
 607.685 689 609.098 680 606.805 667 c 0
 603.278 647 593.455 648 559.75 644 c 0
 543.396 642 527.691 638 524.342 619 c 0
 523.636 615 523.931 611 524.049 606 c 0
 556.844 395 612.584 161 622.41 143 c 0
 624.704 139 627.822 134 632.822 134 c 2
 633.822 134 l 2
 642.822 134 649.938 146 652.997 152 c 0
 788.849 361 895.934 594 899.812 616 c 0
 904.221 641 880.868 639 838.75 644 c 0
 821.103 646 820.689 655 822.805 667 c 0
 824.921 679 829.685 689 844.685 689 c 0
 854.685 689 884.155 686 945.155 686 c 2
 946.155 686 l 2
 1005.16 686 1035.68 689 1045.68 689 c 0
 1055.68 689 1061.8 684 1058.63 666 c 0
 1051.75 627 1005.22 658 977.518 620 c 0
 968.226 607 857.142 374 632.779 26 c 0
 614.666 -3 600.315 -22 583.315 -22 c 0
 563.315 -22 555.253 6 550.661 31 c 0
 484.735 332 486.088 334 481.088 334 c 0
 479.088 334 477.735 332 476.383 330 c 0
 278.315 -22 288.079 -12 271.845 -19 c 0
 268.492 -21 265.315 -22 262.315 -22 c 0
 240.315 -22 239.135 11 233.19 34 c 0
 155.907 367 130.991 600 126.694 621 c 0
 119.16 652 84.2812 630 73.2783 647 c 0
 72.4551 648 69.3369 653 70.7471 661 c 0
 72.6865 672 80.6846 689 100.685 689 c 0
EndSplineSet
EndChar

StartChar: X
Encoding: 88 88 57
Width: 665
GlyphClass: 2
Flags: HW
HStem: -6 48<5.24261 91.0269 167.505 255.734 365.283 446.731 562.391 657.668> 641 48<18.2314 104.749 392.766 472.357>
VStem: 5 162<8.5 74> 285 89<326.776 370.875> 473 185<597 676.5>
LayerCount: 2
Fore
SplineSet
216.745 686 m 2
 284.744 686 318.273 689 329.273 689 c 0
 341.273 689 347.568 685 343.16 660 c 0
 337.342 627 272.983 659 265.578 617 c 0
 263.462 605 270.347 593 272.288 587 c 0
 348.255 411 348.726 408 352.726 408 c 0
 354.726 408 355.902 409 357.078 410 c 0
 496.938 568 515.583 583 520.521 611 c 0
 526.162 643 500.81 641 471.162 643 c 0
 455.339 644 446.396 650 450.276 672 c 0
 451.687 680 456.273 689 469.273 689 c 0
 480.273 689 514.744 686 583.744 686 c 0
 653.744 686 689.273 689 701.273 689 c 0
 713.273 689 718.039 682 716.1 671 c 0
 706.931 619 664.631 657 615.988 625 c 0
 595.696 612 549.88 562 540.94 551 c 0
 379.673 368 378.849 369 377.791 363 c 0
 376.733 357 378.557 356 501.125 87 c 0
 519.896 46 523.425 49 579.366 43 c 0
 592.014 41 604.132 36 600.43 15 c 0
 597.079 -4 585.727 -6 579.727 -6 c 0
 575.727 -6 521.784 0 451.784 0 c 0
 383.784 0 326.727 -6 322.727 -6 c 0
 309.727 -6 305.313 3 307.43 15 c 0
 312.014 41 326.838 40 372.896 46 c 0
 392.425 49 397.188 59 398.774 68 c 2
 399.127 70 l 2
 401.243 82 398.596 84 308.037 285 c 0
 308.214 286 307.566 288 305.566 288 c 0
 301.566 288 302.566 288 134.535 95 c 0
 128.301 88 120.714 79 118.951 69 c 0
 115.071 47 134.071 47 176.19 42 c 0
 187.838 40 202.309 37 198.605 16 c 0
 197.019 7 191.727 -6 176.727 -6 c 0
 173.727 -6 126.784 0 68.7842 0 c 0
 9.78418 0 -37.2734 -6 -41.2734 -6 c 0
 -53.2734 -6 -54.5107 4 -52.9238 13 c 0
 -47.8096 42 -40.1621 40 2.07129 47 c 0
 41.3057 54 49.7744 68 99.6484 124 c 0
 282.973 330 282.619 328 283.501 333 c 0
 284.56 339 282.088 342 169.993 591 c 0
 147.634 640 137.104 637 95.8096 641 c 0
 83.9863 642 71.6914 646 75.3945 667 c 0
 77.334 678 83.2734 689 99.2734 689 c 0
 110.273 689 144.745 686 213.745 686 c 2
 216.745 686 l 2
EndSplineSet
EndChar

StartChar: Y
Encoding: 89 89 58
Width: 667
GlyphClass: 2
Flags: HW
HStem: -6 51<166.486 272.828 358.093 489.951> 642 47<182.316 272.83 429.389 520.835>
VStem: 273 85<49.9095 315.178> 521 138<610 673>
DStem2: 346 353 462 427 0.61277 0.790262<-9.49858 313.684>
LayerCount: 2
Back
SplineSet
433.487 21 m 6
 432.076 13 l 6
 430.489 4 425.727 -6 412.727 -6 c 4
 407.727 -6 347.784 0 272.784 0 c 4
 195.784 0 133.727 -6 129.727 -6 c 4
 117.727 -6 105.784 0 109.663 22 c 4
 114.425 49 125.543 44 192.248 48 c 4
 206.425 49 221.248 48 225.127 70 c 6
 261.627 277 l 6
 265.858 301 260.917 307 250.325 332 c 4
 118.342 627 122.107 620 118.342 627 c 4
 103.573 651 77.2227 632 69.9258 653 c 4
 68.4551 656 67.3369 661 68.3945 667 c 4
 69.9814 676 77.2734 689 97.2734 689 c 4
 108.273 689 140.745 686 206.745 686 c 4
 272.744 686 305.273 689 316.273 689 c 4
 331.273 689 332.511 679 330.747 669 c 4
 325.457 639 312.162 643 260.457 639 c 4
 252.281 638 233.929 636 230.401 616 c 6
 230.049 614 l 6
 228.286 604 231.58 600 327.438 361 c 4
 331.675 351 332.97 347 338.97 347 c 4
 343.97 347 346.852 352 348.027 353 c 4
 533.175 558 564.641 589 569.578 617 c 4
 578.218 666 477.754 618 486.747 669 c 4
 488.157 677 495.273 689 511.273 689 c 4
 520.273 689 546.744 686 599.744 686 c 6
 602.744 686 l 5
 656.921 687 683.273 689 692.273 689 c 4
 713.273 689 718.158 677 716.747 669 c 4
 713.044 648 684.516 645 655.049 614 c 6
 477.076 427 l 5
 349.391 287 349.978 296 344.511 265 c 6
 310.127 70 l 6
 305.896 46 319.601 50 415.719 45 c 4
 433.543 44 435.956 35 433.487 21 c 6
EndSplineSet
Fore
SplineSet
526.986 642 m 4
 503.162 643 482.339 644 486.747 669 c 4
 488.157 677 495.273 689 511.273 689 c 4
 520.273 689 546.744 686 599.744 686 c 6
 602.744 686 l 5
 656.921 687 683.273 689 692.273 689 c 4
 713.273 689 718.158 677 716.747 669 c 4
 713.044 648 684.516 645 655.049 614 c 6
 477.076 427 l 5
 349.391 287 349.978 296 344.511 265 c 6
 310.127 70 l 6
 305.896 46 319.601 50 415.719 45 c 4
 433.543 44 435.956 35 433.487 21 c 6
 432.076 13 l 6
 430.489 4 425.727 -6 412.727 -6 c 4
 407.727 -6 347.784 0 272.784 0 c 4
 195.784 0 133.727 -6 129.727 -6 c 4
 117.727 -6 105.784 0 109.663 22 c 4
 114.425 49 125.543 44 192.248 48 c 4
 206.425 49 221.248 48 225.127 70 c 6
 261.627 277 l 6
 265.858 301 260.917 307 250.325 332 c 4
 118.342 627 122.107 620 118.342 627 c 4
 103.573 651 77.2227 632 69.9258 653 c 4
 68.4551 656 67.3369 661 68.3945 667 c 4
 69.9814 676 77.2734 689 97.2734 689 c 4
 108.273 689 140.745 686 206.745 686 c 4
 272.744 686 305.273 689 316.273 689 c 4
 331.273 689 332.511 679 330.747 669 c 4
 325.457 639 312.162 643 260.457 639 c 4
 252.281 638 233.929 636 230.401 616 c 6
 230.049 614 l 6
 228.286 604 231.58 600 327.438 361 c 4
 331.675 351 332.97 347 338.97 347 c 4
 343.97 347 346.852 352 348.027 353 c 4
 462.421 480 518.001 540 544.996 574 c 4
 555.465 588 567.286 604 569.401 616 c 4
 573.634 640 559.634 640 526.986 642 c 4
EndSplineSet
EndChar

StartChar: Z
Encoding: 90 90 59
Width: 629
GlyphClass: 2
Flags: HW
HStem: 0 81<188.196 522.299> 600 75<76.6612 459.999> 706 20G<40.5 53>
VStem: 16 41<486.018 580.65> 24 47<681.217 725.616> 577 43<149.472 255.763>
LayerCount: 2
Fore
SplineSet
42.0967 511 m 0xf4
 44.7412 526 60.6758 571 76.5459 661 c 2
 83.0693 698 l 2
 86.9492 720 100.007 726 109.007 726 c 0
 125.007 726 128.361 711 130.774 702 c 1xec
 132.953 686 153.014 675 181.014 675 c 2
 617.014 675 l 2
 637.014 675 639.074 664 637.84 657 c 0
 636.077 647 627.843 640 525.623 531 c 1
 348.531 349 l 1
 278.188 279 208.493 207 149.387 127 c 0
 146.857 124 142.8 118 141.742 112 c 0
 137.862 90 160.687 89 236.805 84 c 0
 268.452 82 301.275 81 334.275 81 c 2
 355.275 81 l 2
 428.275 81 478.629 83 514.031 142 c 0
 531.146 171 546.901 232 556.37 246 c 0
 558.898 249 566.133 256 577.133 256 c 0
 586.133 256 599.723 248 596.196 228 c 2
 596.02 227 l 2
 588.613 185 578.087 165 565.682 123 c 0
 545.986 51 545.875 5 504.993 0 c 1
 -18.0068 0 l 1
 -20.0068 0 l 2
 -27.0068 0 -47.8301 1 -44.3037 21 c 0xf4
 -42.8936 29 -37.835 35 -32.9531 40 c 0xec
 129.49 224 302.7 401 481.971 567 c 0
 498.792 583 499.145 585 499.85 589 c 0
 500.556 593 499.789 600 487.789 600 c 2
 164.789 600 l 2
 114.789 600 116.321 586 82.5674 508 c 0
 79.1572 500 72.6885 486 57.6885 486 c 0
 49.6885 486 38.7461 492 42.0967 511 c 0xf4
EndSplineSet
EndChar

StartChar: bracketleft
Encoding: 91 91 60
Width: 378
GlyphClass: 2
Flags: HW
HStem: -185 25<131.75 150.983> 223 77<25.5738 74.811> 233 60<52.6504 78.9392>
VStem: 23 102<233.178 292.875> 80 45<-159.999 232.998 293.002 678.999> 192 42<-138.954 654.033>
LayerCount: 2
Fore
SplineSet
51.4717 -155 m 2x8c
 50.9424 -158 51.5898 -160 54.5898 -160 c 0
 59.5898 -160 76.5879 -143 117.646 -137 c 0
 121.822 -136 122.175 -134 122.703 -131 c 2
 260.238 649 l 2
 262.531 662 238.943 653 205.176 677 c 0
 204.352 678 203.528 679 201.528 679 c 0
 199.528 679 198.176 677 197.646 674 c 2
 51.4717 -155 l 2x8c
188.989 744 m 0
 211.989 744 223.642 708 300.642 708 c 0
 366.642 708 421.755 737 426.755 737 c 0
 433.755 737 436.815 726 435.934 721 c 0
 433.818 709 378.12 654 307.943 653 c 0
 302.943 653 301.591 651 300.71 646 c 2
 165.409 -127 l 2
 161.882 -147 184.409 -127 232.767 -159 c 1
 254.945 -175 273.066 -197 271.303 -207 c 0
 270.245 -213 264.011 -220 257.011 -220 c 0
 248.011 -220 208.182 -185 132.182 -185 c 0
 63.1816 -185 23.7734 -210 12.7734 -210 c 0
 -0.226562 -210 -1.46289 -200 0.65332 -188 c 2
 73.6523 226 l 2
 74.3574 230 73.8867 233 70.8867 233 c 0xac
 66.8867 233 59.123 223 45.123 223 c 0
 22.123 223 20.1787 246 23.3525 264 c 0
 28.4658 293 46.7002 300 58.7002 300 c 0xd4
 71.7002 300 76.4658 293 80.4658 293 c 0xb4
 83.4658 293 84.9951 296 85.7002 300 c 2xd4
 157.994 710 l 2
 160.287 723 165.989 744 188.989 744 c 0
EndSplineSet
EndChar

StartChar: backslash
Encoding: 92 92 61
Width: 235
GlyphClass: 2
Flags: HW
HStem: -226 21G<196.5 204>
VStem: 3 229
LayerCount: 2
Fore
SplineSet
162.175 -200 m 0
 159.706 -214 132.59 -226 126.59 -226 c 0
 117.59 -226 117.177 -217 117.529 -215 c 0
 78.3691 493 72.8252 592 73.5312 596 c 0
 75.6465 608 100.41 618 108.41 618 c 0
 119.41 618 119.999 610 120.765 603 c 0
 131.831 144 165.524 -181 162.175 -200 c 0
EndSplineSet
EndChar

StartChar: bracketright
Encoding: 93 93 62
Width: 378
GlyphClass: 2
Flags: HW
HStem: -185 25<227.017 246.25> 223 77<303.189 352.426> 233 60<299.061 325.35>
VStem: 144 42<-138.954 654.033> 253 102<233.178 292.875> 253 45<-159.999 232.998 293.002 678.999>
LayerCount: 2
Fore
SplineSet
179.472 -155 m 2x94
 325.646 674 l 2
 326.176 677 325.528 679 323.528 679 c 0
 321.528 679 320.352 678 319.176 677 c 0
 276.943 653 256.531 662 254.238 649 c 2
 116.703 -131 l 2
 116.175 -134 115.822 -136 119.646 -137 c 0
 158.588 -143 169.59 -160 174.59 -160 c 0
 177.59 -160 178.942 -158 179.472 -155 c 2x94
358.989 744 m 0
 381.989 744 380.287 723 377.994 710 c 2
 305.7 300 l 2xd4
 304.995 296 305.466 293 308.466 293 c 0xb4
 312.466 293 319.7 300 332.7 300 c 0
 344.7 300 360.466 293 355.353 264 c 0
 352.179 246 342.123 223 319.123 223 c 0xd8
 305.123 223 300.887 233 296.887 233 c 0xb8
 293.887 233 292.357 230 291.652 226 c 2
 218.653 -188 l 2
 216.537 -200 211.773 -210 198.773 -210 c 0
 187.773 -210 157.182 -185 88.1816 -185 c 0
 12.1816 -185 -39.9893 -220 -48.9893 -220 c 0
 -55.9893 -220 -59.7549 -213 -58.6973 -207 c 0
 -56.9336 -197 -31.0547 -175 -3.2334 -159 c 1
 56.4092 -127 71.8818 -147 75.4092 -127 c 2
 212.71 646 l 2
 213.591 651 212.943 653 207.943 653 c 0
 138.12 654 101.818 709 103.934 721 c 0
 104.815 726 111.755 737 118.755 737 c 0
 123.755 737 168.642 708 234.642 708 c 0
 311.642 708 335.989 744 358.989 744 c 0
EndSplineSet
EndChar

StartChar: asciicircum
Encoding: 94 94 63
Width: 423
GlyphClass: 2
Flags: HW
HStem: 606 110<188.927 234.747>
VStem: 51 322<472 492>
LayerCount: 2
Fore
SplineSet
50.7832 462 m 0
 37.7832 462 30.5459 472 32.6621 484 c 0
 34.0723 492 39.3066 499 43.1885 504 c 0
 191.22 697 192.277 703 216.041 713 c 0
 221.394 715 226.57 716 231.57 716 c 0
 255.57 716 266.162 691 274.341 675 c 0
 352.483 500 357.131 498 354.485 483 c 0
 352.018 469 339.43 460 326.43 460 c 0
 305.43 460 293.838 485 283.836 502 c 0
 221.998 605 224.174 606 215.174 606 c 1
 206.998 605 211.526 608 104.483 500 c 0
 83.957 480 69.7832 462 50.7832 462 c 0
EndSplineSet
EndChar

StartChar: underscore
Encoding: 95 95 64
Width: 527
GlyphClass: 2
Flags: HW
HStem: -76 55<27.0354 500.941>
LayerCount: 2
Fore
SplineSet
26.7354 -50 m 2
 27.4404 -46 l 2
 29.5566 -34 32.8486 -21 45.8486 -21 c 2
 491.849 -21 l 2
 503.849 -21 503.557 -34 501.44 -46 c 2
 501.088 -48 l 2
 498.796 -61 496.151 -76 482.151 -76 c 2
 36.1514 -76 l 2
 22.1514 -76 24.6191 -62 26.7354 -50 c 2
EndSplineSet
EndChar

StartChar: grave
Encoding: 96 96 65
Width: 227
GlyphClass: 2
Flags: HW
HStem: 474 227
VStem: 8 198
LayerCount: 2
Fore
SplineSet
21.4893 664 m 0
 25.3682 686 46.0127 701 65.0127 701 c 2
 66.0127 701 l 2
 94.0127 701 107.076 673 113.607 659 c 0
 187.335 510 191.806 507 189.514 494 c 0
 187.75 484 177.987 474 166.987 474 c 2
 164.987 474 l 2
 152.987 474 153.516 477 38.5547 619 c 0
 32.7891 626 17.6094 642 21.4893 664 c 0
EndSplineSet
EndChar

StartChar: a
Encoding: 97 97 66
Width: 423
GlyphClass: 2
Flags: HW
HStem: -12 59<333.638 390.033> 193 37<161.154 258.94> 387 47<123.78 229.046>
VStem: 33 74<48.7656 154.201> 260 70<76.3281 192.996 230.096 353.167>
LayerCount: 2
Fore
SplineSet
53.333 345 m 0
 59.6807 381 140.026 434 223.026 434 c 0
 261.026 434 355.91 422 348.63 324 c 0
 347.515 312 346.398 300 344.282 288 c 2
 309.546 91 l 2
 302.669 52 325.788 47 335.788 47 c 0
 366.788 47 370.606 80 385.606 80 c 0
 389.606 80 393.901 76 392.314 67 c 0
 388.259 44 353.385 -12 301.385 -12 c 0
 256.385 -12 239.438 28 237.614 29 c 0
 236.614 29 236.79 30 235.79 30 c 0
 230.79 30 232.908 25 204.911 8 c 0
 179.266 -7 143.974 -20 106.974 -20 c 0
 37.9736 -20 1.9668 31 12.7227 92 c 2
 12.8984 93 l 2
 19.5996 131 43.2412 163 70.5918 182 c 0
 132.174 225 252.879 229 255.056 230 c 0
 262.408 232 264.29 237 265.524 244 c 2
 271.872 280 l 2
 277.515 312 277.923 337 261.979 360 c 0
 252.271 373 234.739 387 208.739 387 c 0
 151.739 387 113.63 324 110.925 320 c 0
 107.22 316 99.9854 309 86.9854 309 c 0
 67.9854 309 49.2773 322 53.333 345 c 0
140.672 35 m 0
 189.672 35 224.667 69 230.901 76 c 0
 237.136 83 239.37 90 240.957 99 c 2
 245.188 123 l 1
 252.418 164 l 2
 256.649 188 256.531 193 247.531 193 c 0
 229.531 193 160.649 188 122.184 157 c 0
 107.244 146 93.0703 128 88.6621 103 c 0
 85.8408 87 86.4326 62 99.9639 48 c 0
 110.024 37 127.672 35 140.672 35 c 0
EndSplineSet
EndChar

StartChar: b
Encoding: 98 98 67
Width: 486
GlyphClass: 2
Flags: HW
HStem: -19 41<151.529 329.336> 377 53<183.706 323.906> 693 20G<129 134>
VStem: 69 69<2.73671 330.126> 72 70<65.0945 353.728 389.001 621.937> 414 63<104.331 284.133>
LayerCount: 2
Fore
SplineSet
150.64 395 m 0xec
 149.759 390 151.582 389 153.582 389 c 0
 162.582 389 211.812 430 296.812 430 c 0
 413.812 430 476.118 341 452.843 209 c 0
 441.734 146 401.573 43 283.167 1 c 0
 238.346 -15 189.641 -19 167.641 -19 c 0
 119.641 -19 103.991 0 73.9912 0 c 0
 43.9912 0 35.2881 -21 20.2881 -21 c 0
 6.28809 -21 7.10938 -5 9.57812 9 c 0xf4
 30.208 126 95.0986 477 115.729 594 c 0
 117.845 606 115.551 610 107.608 616 c 0
 68.3691 643 57.251 648 58.6611 656 c 0
 60.0723 664 68.6006 667 73.9531 669 c 0
 182.007 709 191.712 713 195.712 713 c 0
 201.536 712 209.007 709 206.186 693 c 0
 195.782 634 155.93 425 150.64 395 c 0xec
386.846 192 m 0
 406.595 304 338.466 377 252.466 377 c 0
 206.466 377 139.529 349 135.826 328 c 2
 90.6865 72 l 2
 90.334 70 88.8047 67 88.4521 65 c 0
 86.3359 53 87.1016 46 98.2207 41 c 0
 125.104 29 154.87 22 186.87 22 c 0
 288.87 22 369.037 91 386.846 192 c 0
EndSplineSet
EndChar

StartChar: c
Encoding: 99 99 68
Width: 381
GlyphClass: 2
Flags: HW
HStem: -18 64<167.358 299.435> 376 52<142.345 251.426>
VStem: 17 66<134.62 305.205>
LayerCount: 2
Fore
SplineSet
169.679 -18 m 0
 54.6787 -18 -6.09863 74 15.5898 197 c 0
 39.5703 333 142.321 428 270.321 428 c 0
 342.321 428 390.973 392 384.272 354 c 0
 380.217 331 358.572 316 337.572 316 c 0
 291.572 316 285.152 376 227.152 376 c 0
 166.152 376 100.809 306 85.998 222 c 0
 69.5996 129 120.964 46 212.964 46 c 0
 290.964 46 321.485 100 344.485 100 c 0
 353.485 100 360.251 93 358.488 83 c 0
 357.43 77 353.372 71 349.667 67 c 0
 309.908 23 244.679 -18 169.679 -18 c 0
EndSplineSet
EndChar

StartChar: d
Encoding: 100 100 69
Width: 494
GlyphClass: 2
Flags: HW
HStem: -21 52<181.137 326.745> 383 40<159.841 319.221> 694 20G<412 418>
VStem: 17 67<127.427 307.105> 355 71<69.2324 354.672 408.003 610.663>
LayerCount: 2
Fore
SplineSet
245.053 383 m 0
 143.053 383 79.415 317 61.6064 216 c 0
 39.7422 92 133.986 31 202.986 31 c 0
 240.986 31 291.983 48 304.568 74 c 0
 307.979 82 310.213 89 311.624 97 c 2
 351.121 321 l 2
 352.355 328 353.59 335 345.353 345 c 0
 320.29 373 282.053 383 245.053 383 c 0
254.106 423 m 2
 319.106 423 354.461 408 359.461 408 c 0
 364.461 408 367.167 412 368.048 417 c 2
 397.671 585 l 2
 401.197 605 394.197 605 344.9 626 c 0
 338.253 628 326.959 632 328.722 642 c 0
 329.779 648 336.309 651 339.661 653 c 0
 454.83 705 475.417 714 479.417 714 c 0
 487.417 714 490.359 708 488.949 700 c 0
 483.13 667 463.026 570 428.818 376 c 0
 411.362 277 380.565 91 379.979 82 c 0
 378.334 67 388.862 70 424.51 68 c 0
 425.51 68 443.51 68 441.041 54 c 0
 438.396 39 419.396 39 375.341 16 c 1
 324.933 -9 308.583 -28 298.583 -28 c 0
 295.583 -28 290.759 -27 292.346 -18 c 2
 298.165 15 l 2
 298.518 17 297.693 18 296.693 18 c 0
 293.693 18 248.817 -21 170.817 -21 c 0
 39.8174 -21 -29.1973 81 -6.98047 207 c 0
 11.3574 311 95.1064 423 253.106 423 c 2
 254.106 423 l 2
EndSplineSet
EndChar

StartChar: e
Encoding: 101 101 70
Width: 409
GlyphClass: 2
Flags: HW
HStem: -19 57<165.729 309.105> 376 55<130.468 248.721>
VStem: 22 71<115.769 316.359> 290 97<292.942 337.386>
LayerCount: 2
Fore
SplineSet
22 206 m 0
 46.6855 346 146.674 431 246.674 431 c 0
 315.674 431 373.739 386 401.746 335 c 0
 404.864 330 407.454 322 405.867 313 c 2
 405.69 312 l 2
 400.4 282 346.638 272 315.874 262 c 0
 96.3555 191 90.5312 192 88.9443 183 c 0
 86.8281 171 85.377 38 211.377 38 c 0
 255.377 38 302.728 57 339.018 87 c 0
 344.898 92 354.485 101 364.485 101 c 0
 373.485 101 379.428 95 377.841 86 c 0
 377.136 82 374.077 76 368.02 70 c 0
 317.674 17 246.326 -19 175.326 -19 c 0
 93.3262 -19 -8.15234 35 22 206 c 0
308.338 310 m 0
 310.454 322 270.976 376 214.976 376 c 0
 156.976 376 109.454 322 93.7607 233 c 0
 92.7031 227 95.5264 226 97.5264 226 c 0
 100.526 226 295.046 297 297.222 298 c 0
 303.751 301 307.633 306 308.338 310 c 0
EndSplineSet
EndChar

StartChar: f
Encoding: 102 102 71
Width: 292
GlyphClass: 2
Flags: HW
HStem: -6 45<18.0677 79.8315 153 229.988> 359 52<10.824 82.4098 153.06 281.154> 653 67<224.432 344.919>
VStem: 84 69<38.7292 358.944 411.182 564.612>
LayerCount: 2
Fore
SplineSet
-31.0068 -6 m 0
 -44.0068 -6 -43.5381 8 -41.5986 19 c 0
 -38.7773 35 -29.1299 33 8.92773 39 c 0
 24.2803 41 25.0439 51 28.1602 63 c 0
 34.5684 88 48.5586 156 82.7656 350 c 0
 84.8818 362 79.3525 359 31.5293 360 c 0
 25.5293 360 10.5293 360 13.7031 378 c 0
 17.7588 401 26.9922 408 39.9922 408 c 0
 90.3457 410 90.6396 406 92.7559 418 c 2
 92.9326 419 l 1
 100.809 458 121.326 546 169.787 611 c 1
 221.777 679 311.007 720 372.007 720 c 0
 426.007 720 438.541 689 434.838 668 c 0
 431.487 649 412.961 629 385.961 629 c 0
 357.961 629 338.192 653 307.192 653 c 0
 236.192 653 186.561 553 165.93 436 c 2
 164.343 427 l 2
 162.051 414 162.521 411 171.521 411 c 2
 269.521 411 l 2
 281.521 411 290.816 407 287.995 391 c 2
 287.818 390 l 2
 286.231 381 280.353 359 256.353 359 c 2
 162.353 359 l 2
 156.353 359 153.177 358 151.942 351 c 2
 101.336 64 l 1
 100.808 61 l 2
 99.0439 51 97.752 38 116.575 37 c 0
 161.87 33 173.928 39 169.872 16 c 0
 167.757 4 161.993 -6 149.993 -6 c 0
 146.993 -6 109.051 0 61.0508 0 c 0
 12.0508 0 -28.0068 -6 -31.0068 -6 c 0
EndSplineSet
EndChar

StartChar: g
Encoding: 103 103 72
Width: 440
GlyphClass: 2
Flags: HW
HStem: -234 47<142.754 341.117> -30 44<132.457 326.557> 112 35<153.211 252.627> 351 101<362.723 402.419> 399 34<138.823 236.686>
VStem: 22 78<200.871 354.327> 27 56<-139.464 -47.0017> 44 51<19.8401 100.604> 292 72<197.295 342.215> 373 58<-158.727 -67.4462>
LayerCount: 2
Fore
SplineSet
238.135 399 m 0xecc0
 188.135 399 143.376 355 131.739 289 c 0
 118.515 214 147.7 147 209.7 147 c 0
 263.7 147 307.341 196 318.272 258 c 0
 330.615 328 302.135 399 238.135 399 c 0xecc0
48.2637 -88 m 0xe2c0
 37.6836 -148 101.808 -187 193.808 -187 c 0
 296.808 -187 328.565 -143 333.679 -114 c 0
 340.027 -78 314.201 -60 304.082 -55 c 0
 263.138 -32 199.551 -41 97.4902 -30 c 1
 94.4902 -30 l 2
 87.4902 -30 83.7852 -34 75.5508 -41 c 0
 61.4346 -53 51.2607 -71 48.2637 -88 c 0xe2c0
51.623 277 m 0xf4c0
 66.4346 361 148.13 433 241.13 433 c 0xecc0
 313.13 433 338.782 397 360.782 397 c 0
 379.782 397 402.074 410 418.425 429 c 0
 424.835 437 435.48 452 451.48 452 c 0
 470.48 452 485.777 431 482.251 411 c 0
 475.374 372 409.905 358 399.671 351 c 0
 397.318 349 394.789 346 394.261 343 c 0
 393.202 337 400.853 318 394.152 280 c 0
 377.93 188 292.529 112 198.529 112 c 0
 165.529 112 155.116 121 142.116 121 c 0
 124.116 121 92.002 92 88.123 70 c 0xf1c0
 77.5439 10 249.305 37 323.249 14 c 0
 383.075 -4 402.435 -53 394.677 -97 c 0
 384.979 -152 327.52 -234 162.52 -234 c 0
 -1.48047 -234 -19.374 -154 -11.2627 -108 c 0xf2c0
 -0.506836 -47 54.9014 -22 56.0771 -21 c 0
 57.2539 -20 58.4297 -19 58.7832 -17 c 0
 59.8408 -11 24.4277 -2 32.3623 43 c 0xf1c0
 41.3555 94 104.761 136 105.938 137 c 0
 107.113 138 107.29 139 107.466 140 c 0
 109.229 150 76.7588 153 57.751 204 c 0
 48.6299 226 47.0381 251 51.623 277 c 0xf4c0
EndSplineSet
EndChar

StartChar: h
Encoding: 104 104 73
Width: 514
GlyphClass: 2
Flags: HW
HStem: -6 42<21.0267 80.623 293.01 367.94 444.564 497.985> 371 51<192.054 305.085> 699 20G<139.5 147>
VStem: 87 66<39.8055 348.283 385.001 609.081> 370 74<38.0009 293.71>
LayerCount: 2
Fore
SplineSet
231.55 8 m 2
 232.784 15 l 2
 236.487 36 248.782 32 293.84 38 c 0
 314.369 41 315.779 49 329.181 125 c 0
 354.571 269 338.448 308 318.209 335 c 1
 301.735 355 275.557 371 243.557 371 c 0
 200.557 371 156.443 342 147.917 322 c 0
 146.211 318 145.506 314 144.624 309 c 0
 143.566 303 102.306 69 103.071 62 c 0
 103.489 19 176.132 51 169.784 15 c 0
 168.197 6 164.081 -6 155.081 -6 c 0
 152.081 -6 113.14 0 64.1396 0 c 0
 13.1396 0 -27.9189 -6 -30.9189 -6 c 0
 -42.9189 -6 -40.9785 5 -39.3916 14 c 0
 -36.3945 31 -27.5703 30 1.4873 36 c 0
 25.1924 40 28.0137 56 31.4824 70 c 0
 50.5283 161 68.75 253 84.9727 345 c 2
 85.6777 349 l 2
 99.96 430 124.819 588 124.878 594 c 0
 124.286 619 56.6992 610 61.2832 636 c 0
 63.3994 648 78.457 654 80.6338 655 c 0
 198.565 717 199.919 719 206.919 719 c 2
 207.919 719 l 2
 213.919 719 222.39 716 219.568 700 c 2
 164.26 392 l 2
 163.201 386 166.025 385 168.025 385 c 0
 174.025 385 224.55 422 292.55 422 c 0
 358.55 422 396.849 384 410.504 331 c 0
 422.217 284 421.75 253 392.777 66 c 0
 387.84 38 399.663 37 424.135 34 c 0
 431.958 33 440.43 30 437.961 16 c 0
 434.787 -2 429.081 -6 421.081 -6 c 0
 418.081 -6 381.14 0 331.14 0 c 0
 283.14 0 243.081 -6 240.081 -6 c 0
 231.081 -6 230.315 1 231.55 8 c 2
EndSplineSet
EndChar

StartChar: i
Encoding: 105 105 74
Width: 243
GlyphClass: 2
Flags: HW
HStem: -6 44<18.136 93.0582 163.719 228.991> 421 20<149.5 156> 571 94<112.016 191.668>
VStem: 94 67<39.1511 336.573> 104 96<579.719 656.984>
LayerCount: 2
Fore
SplineSet
154.87 618 m 0xe8
 159.455 644 185.157 665 211.157 665 c 0
 237.157 665 255.455 644 251.047 619 c 0
 246.286 592 219.583 571 193.583 571 c 0
 167.583 571 150.109 591 154.87 618 c 0xe8
EndSplineSet
Refer: 203 305 S 1 0 0 1 0 0 2
EndChar

StartChar: j
Encoding: 106 106 75
Width: 232
GlyphClass: 2
Flags: HW
HStem: -231 77<-30.0167 54.2285> 422 20<152.5 158> 558 93<111.688 191.668>
VStem: 95 71<-117.424 346.052> 104 96<566.659 643.248>
LayerCount: 2
Fore
SplineSet
173.473 604 m 0xe8
 178.233 631 203.76 651 229.76 651 c 0
 255.76 651 274.233 631 269.649 605 c 0
 265.064 579 238.361 558 212.361 558 c 0
 186.361 558 168.889 578 173.473 604 c 0xe8
EndSplineSet
Refer: 262 567 S 1 0 0 1 0 0 2
EndChar

StartChar: k
Encoding: 107 107 76
Width: 454
GlyphClass: 2
Flags: HW
HStem: -4 38<135.229 201.909 375.977 444.993> 370 45<318.514 420.766> 698 20G<122 129>
VStem: 67 68<37.2274 171.859 225.001 625.327> 243 178<335 403.957>
LayerCount: 2
Fore
SplineSet
163.344 12 m 2
 170.044 50 212.106 22 217.396 52 c 0
 221.275 74 141.141 198 140.316 199 c 0
 140.493 200 138.669 201 136.669 201 c 0
 130.669 201 105.261 176 103.556 172 c 0
 102.027 169 101.321 165 100.616 161 c 2
 82.4541 58 l 2
 78.9277 38 87.1045 39 124.223 34 c 0
 132.87 32 144.341 29 141.52 13 c 0
 139.051 -1 130.522 -4 124.522 -4 c 0
 117.522 -4 95.2275 0 48.2275 0 c 0
 1.22754 0 -22.4775 -4 -30.4775 -4 c 0
 -43.4775 -4 -45.5381 7 -44.3037 14 c 0
 -38.3086 48 4.93066 21 14.1016 56 c 1
 109.143 595 l 2
 111.435 608 109.316 613 101.374 619 c 0
 87.3135 630 61.8398 650 61.0166 651 c 0
 57.7217 655 58.4268 659 58.4268 659 c 1
 60.3662 670 75.0723 674 81.4248 676 c 0
 183.83 718 183.83 718 187.83 718 c 0
 197.83 718 197.067 708 195.833 701 c 2
 112.606 229 l 2
 112.254 227 111.901 225 114.901 225 c 0
 116.901 225 120.254 227 121.606 229 c 0
 226.652 320 237.182 323 241.413 347 c 0
 246.526 376 220.351 375 222.818 389 c 2
 224.582 399 l 2
 226.346 409 236.874 412 247.874 412 c 2
 305.874 412 l 2
 371.874 412 405.403 415 416.403 415 c 0
 427.403 415 430.169 408 428.053 396 c 0
 423.469 370 405.231 380 365.469 370 c 0
 318.353 358 276.652 320 199.838 253 c 0
 195.133 249 191.78 247 191.251 244 c 0
 190.37 239 190.723 241 282.213 102 c 0
 302.747 71 324.928 38 371.87 32 c 0
 378.693 31 387.341 29 384.872 15 c 0
 382.757 3 377.17 -6 365.17 -6 c 0
 362.17 -6 322.228 0 270.228 0 c 0
 219.228 0 176.17 -6 173.17 -6 c 0
 168.17 -6 160.522 -4 163.167 11 c 2
 163.344 12 l 2
EndSplineSet
EndChar

StartChar: l
Encoding: 108 108 77
Width: 239
GlyphClass: 2
Flags: HW
HStem: -5 43<18.0052 85.7427 160.703 227.907> 703 20G<143.5 152>
VStem: 87 73<39.238 609.091>
LayerCount: 2
Fore
SplineSet
167.255 14 m 0
 165.14 2 161.729 -6 151.729 -6 c 0
 148.729 -6 108.787 0 58.7871 0 c 0
 10.7871 0 -29.0947 -5 -32.0947 -5 c 0
 -45.0947 -5 -44.1553 6 -42.9209 13 c 2
 -42.3916 16 l 2
 -39.042 35 -32.2178 34 2.4873 38 c 0
 29.0166 41 33.6611 56 37.1875 76 c 2
 126.938 585 l 2
 129.583 600 123.583 600 108.347 610 c 0
 72.5781 634 60.2832 638 62.2227 649 c 2
 62.3994 650 l 2
 63.8096 658 65.457 656 197.565 719 c 0
 200.919 721 205.271 723 210.271 723 c 0
 222.271 723 222.508 713 220.921 704 c 2
 109.306 71 l 2
 103.663 39 115.017 41 153.782 34 c 0
 165.43 32 169.548 27 167.255 14 c 0
EndSplineSet
EndChar

StartChar: m
Encoding: 109 109 78
Width: 723
GlyphClass: 2
Flags: HMW
HStem: -6 43<140.259 206.883 242.009 320.739 387.139 454.994 509.206 575.944 647.643 708.974> 371 51<176.293 286.616 417.763 533.955> 414 20G<126 133>
VStem: 78 62<36.1465 331.765> 322 66<38.0512 337.462> 576 71<37.4201 324.172>
LayerCount: 2
Fore
SplineSet
170.918 378 m 0xdc
 175.918 378 226.676 422 286.676 422 c 0
 351.676 422 383.154 368 384.979 367 c 0
 385.802 366 386.802 366 388.802 366 c 0
 396.802 366 393.684 371 435.562 393 c 0
 482.971 418 518.676 422 537.676 422 c 0
 588.676 422 644.915 395 653.456 313 c 0
 657.756 275 650.879 236 643.826 196 c 2
 621.433 69 l 2
 615.79 37 626.319 40 662.908 32 c 0
 675.556 30 674.969 21 673.734 14 c 0
 672.147 5 668.208 -6 655.208 -6 c 0
 647.208 -6 622.266 0 572.266 0 c 0
 521.266 0 494.208 -6 486.208 -6 c 0
 480.208 -6 470.913 -2 473.206 11 c 0
 476.732 31 483.38 29 524.79 37 c 0
 545.319 40 547.082 50 549.551 64 c 2
 574.061 203 l 2
 583.229 255 590.985 316 558.804 349 c 0
 550.215 357 531.684 371 500.684 371 c 0
 456.684 371 404.217 340 401.572 325 c 0
 401.396 324 403.341 301 395.759 258 c 2
 361.728 65 l 2
 361.198 62 359.846 60 359.316 57 c 2
 359.141 56 l 2
 355.79 37 364.143 39 404.261 34 c 0
 416.908 32 421.851 26 419.911 15 c 0
 418.324 6 414.208 -6 403.208 -6 c 0
 400.208 -6 361.266 0 311.266 0 c 0
 261.266 0 219.208 -6 217.208 -6 c 0
 205.208 -6 204.795 3 207.087 16 c 0
 209.908 32 221.556 30 264.79 37 c 0
 287.495 41 293.259 51 297.49 75 c 2
 330.111 260 l 2
 335.93 293 337.749 326 313.451 347 c 0
 298.744 360 275.684 371 247.684 371 c 0xdc
 203.684 371 172.746 343 164.807 332 c 0
 161.925 327 158.867 321 156.222 306 c 2
 113.728 65 l 2
 108.614 36 117.967 38 160.732 31 c 0
 174.38 29 172.793 20 171.029 10 c 0
 169.442 1 164.208 -6 155.208 -6 c 0
 152.208 -6 117.266 0 71.2656 0 c 0
 27.2656 0 4.56055 -4 -2.43945 -4 c 0
 -14.4395 -4 -14.6758 6 -12.9131 16 c 0
 -7.44629 47 39.793 20 50.8457 60 c 1
 94.5752 308 l 2
 98.1016 328 94.9248 327 62.8623 355 c 0
 60.2148 357 54.9199 361 55.9785 367 c 0
 57.5654 376 57.0361 373 147.205 425 c 0
 159.263 431 161.792 434 167.792 434 c 0xbc
 175.792 434 175.558 427 174.676 422 c 2
 167.976 384 l 2
 167.446 381 167.918 378 170.918 378 c 0xdc
EndSplineSet
EndChar

StartChar: n
Encoding: 110 110 79
Width: 499
GlyphClass: 2
Flags: HW
HStem: -6 42<11.1138 75.251 145.568 220.772 294.036 361.915 427.242 488.974> 384 49<199.31 317.254>
VStem: 76 69<38.2075 347.206> 362 65<36.1777 339.27>
LayerCount: 2
Fore
SplineSet
169.565 377 m 0
 169.036 374 170.859 373 171.859 373 c 2
 172.859 373 l 2
 176.859 373 234.263 432 320.439 433 c 1
 322.439 433 l 2
 367.439 433 450.913 413 439.048 289 c 0
 438.051 272 435.053 255 432.056 238 c 0
 429.058 221 424.884 203 400.551 65 c 2
 400.198 63 l 2
 395.261 35 408.614 37 442.732 32 c 0
 455.38 30 454.793 21 453.559 14 c 0
 450.561 -3 441.031 -6 435.031 -6 c 0
 426.031 -6 402.09 0 352.09 0 c 0
 308.09 0 271.031 -6 269.031 -6 c 0
 257.031 -6 256.795 4 258.559 14 c 0
 261.732 32 273.38 30 314.614 37 c 0
 327.967 39 331.848 44 334.846 61 c 2
 362.177 216 l 2
 365.351 234 374.93 294 368.22 324 c 0
 355.212 375 301.799 384 278.799 384 c 0
 220.799 384 171.512 337 164.338 319 c 0
 162.633 315 161.751 310 161.046 306 c 2
 119.256 69 l 1
 118.728 66 l 2
 116.788 55 115.319 41 135.79 38 c 0
 176.556 31 188.908 33 185.029 11 c 0
 183.266 1 177.855 -7 168.855 -7 c 0
 165.855 -7 126.09 0 77.0898 0 c 0
 29.0898 0 -8.96875 -6 -11.9688 -6 c 0
 -17.9688 -6 -27.2627 -2 -24.7939 12 c 0
 -21.2676 32 -13.4443 31 18.4375 36 c 0
 44.1426 40 47.4346 53 50.4326 70 c 2
 92.5752 309 l 2
 96.8066 333 96.4541 331 57.4492 365 c 0
 54.9785 368 52.5068 371 53.2119 375 c 2
 53.3887 376 l 2
 54.7988 384 56.623 383 158.439 433 c 0
 161.792 435 165.145 437 169.145 437 c 0
 178.145 437 179.91 430 178.5 422 c 2
 171.623 383 l 2
 171.271 381 169.741 378 169.565 377 c 0
EndSplineSet
EndChar

StartChar: o
Encoding: 111 111 80
Width: 467
GlyphClass: 2
Flags: HW
HStem: -19 49<167.083 305.289> 385 47<165.676 296.741>
VStem: 21 78<107.025 304.389> 378 68<109.681 295.193>
LayerCount: 2
Fore
SplineSet
20.5596 204 m 0
 45.0684 343 164.762 432 276.762 432 c 0
 395.762 432 469.187 338 445.56 204 c 0
 420.345 61 305.238 -19 193.238 -19 c 0
 66.2383 -19 -1.12891 81 20.5596 204 c 0
204.878 30 m 0
 289.878 30 361.161 111 376.854 200 c 0
 395.721 307 337.475 385 261.475 385 c 0
 209.475 385 123.068 343 99.4404 209 c 0
 81.1025 105 122.878 30 204.878 30 c 0
EndSplineSet
EndChar

StartChar: p
Encoding: 112 112 81
Width: 494
GlyphClass: 2
Flags: HW
HStem: -228 46<13.3345 91.7562> -220 42<166.185 266.758> -7 34<182.8 315.77> 372 59<202.772 321.179> 421 20G<134.5 140>
VStem: 93 73<-177.901 -1.00293> 93 65<45.2268 333.699> 408 67<117.256 282.885>
LayerCount: 2
Fore
SplineSet
235.982 27 m 0x33
 316.982 27 405.973 95 423.604 195 c 0
 440.709 292 379.814 372 299.814 372 c 0
 286.814 372 259.639 371 230.112 351 c 0
 205.291 335 195.293 318 190.18 289 c 2
 152.27 74 l 2
 150.683 65 148.919 55 172.804 43 c 0
 191.04 33 212.982 27 235.982 27 c 0x33
343.218 431 m 0
 454.218 431 514.585 331 494.132 215 c 0
 470.68 82 355.987 -7 216.987 -7 c 0
 182.987 -7 156.045 -1 154.045 -1 c 0
 148.045 -1 146.34 -5 145.105 -12 c 2
 120.948 -149 l 1
 120.42 -152 l 2
 118.656 -162 117.188 -176 137.835 -178 c 0
 196.777 -184 217.835 -178 212.369 -209 c 0
 210.958 -217 206.724 -224 197.724 -224 c 0
 188.724 -224 160.43 -220 104.43 -220 c 0x75
 31.4297 -220 -24.9814 -228 -29.9814 -228 c 0
 -35.9814 -228 -45.4521 -225 -42.4551 -208 c 0
 -39.2812 -190 -27.6338 -192 20.1299 -182 c 0
 36.6582 -179 44.0693 -171 47.0664 -154 c 2xa5
 128.53 308 l 1
 128.883 310 l 2
 129.765 315 130.527 325 119.409 330 c 0
 59.5225 359 57.3467 358 58.5801 365 c 2
 58.7568 366 l 2
 59.8145 372 61.6387 371 177.57 433 c 0
 188.452 438 190.981 441 195.981 441 c 0xab
 201.981 441 203.1 436 202.042 430 c 2
 191.639 371 l 2
 191.109 368 191.58 365 193.58 365 c 0
 198.58 365 240.103 419 320.042 430 c 0
 328.218 431 335.218 431 343.218 431 c 0
EndSplineSet
EndChar

StartChar: q
Encoding: 113 113 82
Width: 525
GlyphClass: 2
Flags: HW
HStem: -235 45<290.501 370.591> -225 36<452.956 515.684> -9 61<187.768 336.033> 401 33<185.131 334.656> 426 20G<429.5 439.5>
VStem: 16 72<150.894 302.179> 374 73<-182.941 28.9978 78.3765 371.626>
LayerCount: 2
Fore
SplineSet
311.104 401 m 0x36
 217.104 401 127.057 327 110.481 233 c 0
 92.4961 131 164.566 52 263.566 52 c 0
 300.566 52 346.035 66 361.151 78 c 0
 370.562 86 373.325 96 375.44 108 c 0
 379.496 131 383.729 155 413.878 343 c 0
 416.522 358 414.58 364 404.991 372 c 0
 379.342 391 346.104 401 311.104 401 c 0x36
34.9551 213 m 0
 51.7061 308 143.924 434 340.924 434 c 0xb6
 402.924 434 438.631 421 452.631 421 c 0
 481.631 421 484.039 446 495.039 446 c 0
 504.039 446 503.924 434 496.342 391 c 0
 494.754 382 494.168 373 492.58 364 c 2
 403.888 -139 l 2
 396.13 -183 411.953 -184 450.071 -189 c 0
 458.719 -191 463.014 -195 461.604 -203 c 0
 460.017 -212 453.724 -225 439.724 -225 c 0x6e
 433.724 -225 418.076 -223 385.076 -223 c 0
 309.076 -223 251.961 -235 247.961 -235 c 0
 236.961 -235 231.195 -228 233.135 -217 c 0
 236.661 -197 254.661 -197 292.896 -190 c 0xa6
 321.953 -184 326.127 -166 328.948 -150 c 2
 359.276 22 l 2
 359.982 26 358.511 29 354.511 29 c 0
 345.511 29 298.811 -9 218.811 -9 c 0
 97.8105 -9 13.2666 90 34.9551 213 c 0
EndSplineSet
EndChar

StartChar: r
Encoding: 114 114 83
Width: 358
GlyphClass: 2
Flags: HW
HStem: -6 44<12.3504 75 147.448 244.95> 346 100<247.701 330.441>
VStem: 75 72<38.4622 329.719>
LayerCount: 2
Fore
SplineSet
172.684 377 m 0
 176.684 377 259.381 432 288.145 442 c 0
 297.674 445 306.85 446 317.85 446 c 0
 349.85 446 393.028 430 388.092 402 c 2
 387.915 401 l 1
 383.918 384 363.979 373 354.744 366 c 1
 342.51 359 327.217 346 310.217 346 c 0
 285.217 346 288.625 371 255.625 371 c 0
 223.625 371 177.982 339 170.396 330 c 0
 165.338 324 164.456 319 163.222 312 c 2
 120.903 72 l 1
 120.198 68 l 2
 118.259 57 116.261 40 139.908 38 c 0
 199.027 33 212.732 37 208.677 14 c 0
 207.266 6 204.15 -6 191.15 -6 c 0
 188.15 -6 145.208 0 91.208 0 c 0
 35.208 0 -8.84961 -6 -11.8496 -6 c 0
 -21.8496 -6 -26.6152 1 -24.8525 11 c 0
 -20.6201 35 -3.67871 29 24.5557 36 c 0
 39.085 39 44.1426 45 46.7881 60 c 2
 93.5146 325 l 2
 97.041 345 88.8643 344 47.8594 378 c 0
 47.0361 379 45.3887 381 45.0938 385 c 1
 45.9756 390 46.623 388 159.615 439 c 0
 162.792 440 166.145 442 169.145 442 c 0
 180.145 442 179.205 431 177.618 422 c 2
 170.565 382 l 2
 170.036 379 170.684 377 172.684 377 c 0
EndSplineSet
EndChar

StartChar: s
Encoding: 115 115 84
Width: 338
GlyphClass: 2
Flags: HW
HStem: -19 54<106.18 240.638> 380 47<98.6701 211.868> 412 20G<244 256>
VStem: 26 41<71.0105 155.78> 31 54<283.553 367.539> 230 55<295.352 359.134> 262 67<56.0454 149.045>
LayerCount: 2
Fore
SplineSet
49.0732 309 m 0xca
 59.6533 369 123.88 427 213.88 427 c 0xca
 243.88 427 257.998 422 262.998 422 c 0
 271.998 422 277.762 432 289.762 432 c 0
 301.762 432 302.293 418 302.411 413 c 0
 302.24 378 303.603 312 302.897 308 c 0xac
 300.604 295 285.076 292 277.076 292 c 0xa2
 256.076 292 264.189 321 253.716 341 c 0
 243.89 359 211.593 380 178.593 380 c 0
 144.593 380 111.89 359 106.247 327 c 0xcc
 103.779 313 102.255 276 172.552 255 c 0
 221.083 241 267.555 238 296.973 195 c 0
 317.683 165 315.863 132 313.042 116 c 0
 301.758 52 236.238 -19 137.238 -19 c 0
 91.2383 -19 31.0596 -3 8.05469 31 c 0
 -0.00585938 42 -0.594727 50 2.0498 65 c 0
 6.81055 92 9.16113 111 11.6289 125 c 0
 16.2139 151 20.0957 156 35.0957 156 c 0
 60.0957 156 38.1006 122 47.1631 94 c 0xd2
 53.46 73 92.7598 35 150.76 35 c 0
 195.76 35 236.521 62 243.574 102 c 0
 255.211 168 168.975 178 138.562 187 c 0
 61.6172 210 40.4336 260 49.0732 309 c 0xca
EndSplineSet
EndChar

StartChar: t
Encoding: 116 116 85
Width: 333
GlyphClass: 2
Flags: HW
HStem: -19 65<156.838 241.254> 363 54<156.006 290.812>
VStem: 75 70<56.8354 362.954>
LayerCount: 2
Fore
SplineSet
59.9248 365 m 2
 50.9248 365 40.1016 366 42.2168 378 c 0
 45.2148 395 98.3887 413 168.61 505 c 0
 172.492 510 180.784 523 191.784 523 c 0
 197.784 523 204.256 520 201.963 507 c 0
 199.495 493 191.089 451 188.62 437 c 0
 185.623 420 193.094 417 205.094 417 c 2
 295.094 417 l 2
 298.094 417 299.918 416 302.918 416 c 0
 311.918 416 328.918 416 325.567 397 c 0
 324.51 391 317.512 374 311.454 368 c 0
 306.749 364 301.572 363 292.572 363 c 2
 175.572 363 l 2
 168.572 363 165.22 361 163.985 354 c 0
 130.012 167 125.957 144 121.725 120 c 0
 115.554 85 117.677 46 159.677 46 c 0
 207.677 46 257.256 106 279.256 106 c 0
 290.256 106 295.669 97 294.082 88 c 0
 292.672 80 286.614 74 284.085 71 c 0
 242.031 31 184.216 -19 129.216 -19 c 0
 89.2158 -19 40.1523 9 49.7275 103 c 0
 50.667 114 52.4297 124 54.3701 135 c 0
 62.1279 179 93.459 334 97.3379 356 c 0
 98.2197 361 97.9248 365 91.9248 365 c 2
 59.9248 365 l 2
EndSplineSet
EndChar

StartChar: u
Encoding: 117 117 86
Width: 505
GlyphClass: 2
Flags: HW
HStem: -14 21G<370 378> 377 38<7.08487 63.9033 277.108 356.564>
VStem: 64 68<95.1389 375.136> 358 71<69.1563 373.706>
LayerCount: 2
Fore
SplineSet
329.289 33 m 0
 324.289 33 264.296 -18 181.296 -18 c 0
 100.296 -18 49.6416 35 53.8633 127 c 0
 55.3906 147 57.917 167 61.6191 188 c 0
 67.2617 220 88.1865 333 91.0078 349 c 0
 92.5947 358 94.1816 367 68.9453 377 c 1
 52.3564 385 38.6504 381 41.6484 398 c 2
 42.1768 401 l 2
 43.4111 408 45.4697 414 55.6455 415 c 0
 139.527 420 150.704 421 160.704 421 c 0
 168.704 421 169.822 416 168.588 409 c 2
 132.44 204 l 2
 127.151 174 120.627 137 132.279 101 c 0
 142.813 70 173.465 34 226.465 34 c 0
 264.465 34 296.639 52 317.813 70 c 1
 335.811 87 337.987 88 340.103 100 c 2
 383.479 346 l 2
 388.416 374 373.24 373 323.827 382 c 0
 314.18 384 309.885 388 311.648 398 c 0
 313.94 411 320.47 414 328.646 415 c 0
 427.175 418 439.352 419 452.352 419 c 0
 466.352 419 465.588 409 463.824 399 c 2
 408.634 86 l 2
 406.519 74 413.047 77 453.345 56 c 0
 459.815 53 460.286 50 459.229 44 c 0
 453.938 14 443.994 37 349.707 -10 c 0
 346.354 -12 342.002 -14 338.002 -14 c 0
 326.002 -14 325.765 -4 327.528 6 c 2
 331.584 29 l 2
 332.289 33 330.289 33 329.289 33 c 0
EndSplineSet
EndChar

StartChar: v
Encoding: 118 118 87
Width: 490
GlyphClass: 2
Flags: HW
HStem: -25 21G<252.5 264> 374 41<143.006 218.984 298.064 371.985>
VStem: 2 141<349.5 406> 372 113<351 401>
LayerCount: 2
Fore
SplineSet
333.441 396 m 2
 334.323 401 l 2
 335.558 408 339.792 415 348.792 415 c 0
 356.792 415 380.263 412 428.263 412 c 0
 476.263 412 500.792 415 508.792 415 c 0
 520.792 415 522.205 406 520.441 396 c 0
 514.623 363 477.031 388 460.152 366 c 0
 456.094 360 455.741 358 450.625 346 c 0
 365.3 157 256.087 -3 241.795 -16 c 0
 236.913 -21 229.208 -25 221.208 -25 c 0
 206.208 -25 199.677 -11 193.674 6 c 0
 105.7 233 89.4492 345 78.623 363 c 0
 63.0312 388 31.623 363 38.5 402 c 0
 39.9102 410 44.792 415 52.792 415 c 0
 62.792 415 90.2627 412 147.263 412 c 0
 205.263 412 233.792 415 243.792 415 c 0
 255.792 415 256.205 406 254.266 395 c 0
 249.857 370 229.62 380 194.562 374 c 1
 182.386 373 173.152 366 171.389 356 c 0
 169.097 343 193.469 209 242.957 87 c 0
 243.78 86 245.546 79 250.546 79 c 0
 253.546 79 256.251 83 256.428 84 c 0
 355.879 217 398.097 343 400.918 359 c 0
 404.268 378 382.915 376 345.444 379 c 0
 340.62 380 330.62 380 333.441 396 c 2
EndSplineSet
EndChar

StartChar: w
Encoding: 119 119 88
Width: 752
GlyphClass: 2
Flags: HW
HStem: -25 109<234.747 265.221 515.394 546.266> 376 39<394.084 474.998 565.092 643.881 697.814 749.859>
LayerCount: 2
Fore
SplineSet
773.792 415 m 0
 783.792 415 787.558 408 785.794 398 c 0
 781.21 372 760.092 377 750.915 376 c 0
 706.328 367 727.515 300 513.616 0 c 0
 500.266 -19 492.208 -25 481.208 -25 c 0
 462.208 -25 455.616 0 423.957 87 c 1
 382.469 209 383.645 210 379.645 210 c 0
 376.645 210 376.645 210 325.715 131 c 1
 234.911 -4 234.382 -7 224.795 -16 c 0
 219.913 -21 213.208 -25 205.208 -25 c 0
 193.208 -25 186.795 -16 180.793 1 c 0
 109.587 204 84.3311 350 79.4463 362 c 0
 68.3838 390 35.9756 365 41.7939 398 c 0
 43.3809 407 47.792 415 62.792 415 c 0
 69.792 415 92.2627 412 136.263 412 c 2
 139.263 412 l 2
 182.263 412 204.792 415 211.792 415 c 0
 218.792 415 222.91 410 220.794 398 c 0
 214.271 361 157.736 392 152.446 362 c 0
 151.565 357 153.154 349 155.097 343 c 0
 172.756 256 195.944 172 222.838 92 c 0
 223.485 90 225.428 84 231.428 84 c 0
 237.428 84 242.662 91 242.838 92 c 0
 292.418 152 361.051 252 364.695 267 c 1
 364.872 268 l 2
 366.282 276 344.625 346 341.684 352 c 0
 323.561 391 268.094 360 273.736 392 c 0
 276.205 406 280.792 415 293.792 415 c 0
 303.792 415 334.263 412 396.263 412 c 0
 458.263 412 489.792 415 499.792 415 c 0
 510.792 415 512.381 407 511.147 400 c 2
 510.089 394 l 2
 507.268 378 505.797 381 448.915 376 c 0
 438.739 375 425.033 371 422.212 355 c 0
 418.862 336 455.234 202 502.072 99 c 0
 505.485 90 509.604 85 515.604 85 c 0
 523.604 85 527.662 91 529.191 94 c 0
 623.584 221 670.097 343 672.036 354 c 0
 676.268 378 657.739 375 615.268 378 c 0
 605.444 379 597.973 382 600.794 398 c 0
 602.205 406 604.792 415 615.792 415 c 0
 622.792 415 646.087 411 693.087 411 c 0
 741.087 411 765.792 415 773.792 415 c 0
EndSplineSet
EndChar

StartChar: x
Encoding: 120 120 89
Width: 443
GlyphClass: 2
Flags: HW
HStem: -4 42<245.243 306.998 387.004 433.968> -4 30<119.588 175.827> 376 39<11.0516 62.125 150.007 201.163 344.166 422.852>
VStem: 181 68<202.618 231.317>
DStem2: 64 53 129 76 0.613452 0.789732<29.9269 185.508 264.054 389.539> 164 338 177 216 0.630781 -0.775961<-27.1583 95.9275 152.083 312.756>
LayerCount: 2
Fore
SplineSet
61.0283 415 m 0x70
 69.0283 415 93.5 412 142.5 412 c 0
 192.5 412 218.028 415 226.028 415 c 0
 236.028 415 236.794 408 235.561 401 c 2
 235.207 399 l 2
 234.502 395 235.149 393 234.62 390 c 0
 232.505 378 225.681 379 196.152 376 c 0
 188.976 375 179.446 372 177.684 362 c 0
 176.272 354 183.686 345 187.451 338 c 0
 232.403 264 230.227 263 234.227 263 c 0
 236.227 263 237.403 264 239.756 266 c 0
 315.038 347 325.979 358 327.036 364 c 0
 330.915 386 278.389 366 282.62 390 c 0
 285.618 407 290.028 415 300.028 415 c 0
 307.028 415 327.5 412 370.5 412 c 2
 373.5 412 l 2
 417.5 412 440.028 415 447.028 415 c 0
 457.028 415 458.618 407 457.384 400 c 0
 453.681 379 446.857 380 416.152 376 c 0
 386.446 372 378.036 364 358.686 345 c 1
 253.938 233 254.29 235 253.585 231 c 0
 253.056 228 253.231 229 360.375 54 c 0
 371.848 34 374.201 36 393.495 32 c 0
 398.319 31 403.143 30 401.38 20 c 0
 398.911 6 396.147 -4 382.147 -4 c 0
 374.147 -4 350.853 0 301.853 0 c 0
 252.853 0 228.147 -4 220.147 -4 c 0
 209.147 -4 209.734 5 211.146 13 c 0
 215.377 37 235.143 30 265.554 38 c 0xb0
 275.082 41 278.964 46 279.846 51 c 0
 280.551 55 278.256 59 277.609 61 c 0
 205.71 175 206.534 174 204.887 176 c 0
 203.887 176 203.062 177 202.062 177 c 0
 197.062 177 197.887 176 106.254 76 c 0
 90.2559 59 88.9033 57 87.8457 51 c 0
 83.4375 26 134.729 39 142.438 26 c 0
 143.908 23 143.203 19 142.674 16 c 0
 140.559 4 137.147 -4 126.147 -4 c 0
 119.147 -4 98.8525 0 54.8525 0 c 0
 11.8525 0 -11.0283 -5 -18.0283 -5 c 0
 -28.0283 -5 -26.0889 6 -24.3262 16 c 0
 -19.7412 42 9.14258 30 26.2588 42 c 0
 30.7881 45 33.4932 49 37.1982 53 c 0
 181.177 206 180.647 203 181.705 209 c 0
 182.234 212 180.587 214 178.939 216 c 0
 72.7393 385 85.4463 372 59.1523 376 c 0
 43.5049 378 42.7393 385 45.0312 398 c 0
 47.6758 413 56.0283 415 61.0283 415 c 0x70
EndSplineSet
EndChar

StartChar: y
Encoding: 121 121 90
Width: 468
GlyphClass: 2
Flags: HW
HStem: -223 21G<81 106.5> 376 39<136.006 187.914 277.065 343.956 405.081 462.995>
LayerCount: 2
Fore
SplineSet
35.752 -223 m 0
 13.752 -223 -0.426758 -207 3.09961 -187 c 0
 10.1523 -147 63.2686 -135 106.439 -100 c 0
 136.672 -76 188.78 -13 193.718 15 c 0
 197.597 37 179.529 99 126.446 263 c 0
 114.441 297 90.9033 362 89.4316 365 c 0
 77.1348 386 51.4316 365 57.251 398 c 0
 59.0137 408 63.248 415 74.248 415 c 0
 81.248 415 104.72 412 151.72 412 c 0
 198.72 412 223.248 415 231.248 415 c 0
 242.248 415 242.838 407 241.427 399 c 0
 237.548 377 230.9 379 200.371 376 c 0
 193.195 375 184.843 373 182.903 362 c 0
 181.316 353 203.097 244 248.526 116 c 0
 248.174 114 249.469 110 254.469 110 c 0
 260.469 110 263.879 118 266.231 120 c 1
 340.097 244 383.85 322 389.669 355 c 0
 393.9 379 378.195 375 345.725 378 c 0
 336.9 379 327.43 382 330.074 397 c 0
 332.014 408 340.248 415 352.248 415 c 0
 359.248 415 382.72 412 429.72 412 c 2
 430.72 412 l 2
 476.72 412 500.248 415 507.248 415 c 0
 519.248 415 517.661 406 515.722 395 c 0
 512.9 379 506.077 380 473.371 376 c 0
 451.843 373 463.843 373 363.162 199 c 1
 298.942 90 213.256 -50 120.684 -161 c 0
 90.1602 -198 64.752 -223 35.752 -223 c 0
EndSplineSet
EndChar

StartChar: z
Encoding: 122 122 91
Width: 361
GlyphClass: 2
Flags: HW
HStem: 0 65<106.006 290.69> 355 62<83.8823 234.993>
VStem: 39 35<294.02 354.03> 291 47<-92.6147 -3.0012e-08> 309 41<65.8229 140.75>
LayerCount: 2
Fore
SplineSet
113.226 454 m 2xf0
 119.226 454 l 2
 142.226 454 115.701 417 140.701 417 c 2
 358.701 417 l 2
 370.701 417 379.996 413 378.057 402 c 0
 376.998 396 372.293 392 369.588 388 c 0
 89.4551 81 88.8086 83 87.5742 76 c 0
 85.8105 66 93.6338 65 101.634 65 c 2
 246.634 65 l 2
 252.634 65 258.458 64 261.458 64 c 0
 280.458 64 280.221 74 299.214 125 c 0
 300.743 128 305.035 141 319.035 141 c 0
 326.035 141 342.506 138 340.037 124 c 0xe8
 339.332 120 315.929 61 301.822 -19 c 0
 296.181 -51 294.359 -67 293.301 -73 c 0
 290.656 -88 279.774 -93 259.774 -93 c 0
 245.774 -93 244.186 -85 245.948 -75 c 2
 256.528 -15 l 2
 258.997 -1 251.173 0 242.173 0 c 2
 10.1729 0 l 2
 -15.8271 0 -17.3584 14 -15.7715 23 c 0
 -13.6553 35 -3.89258 45 2.51855 53 c 2
 255.008 328 l 2
 258.537 331 262.419 336 263.301 341 c 0
 265.24 352 255.77 355 245.77 355 c 2
 126.77 355 l 2
 112.77 355 112.711 349 96.834 310 c 0
 95.3057 307 91.0127 294 77.0127 294 c 0
 72.0127 294 59.542 297 61.3057 307 c 0
 61.834 310 79.0635 351 89.291 409 c 2
 94.5801 439 l 2
 96.6963 451 105.226 454 113.226 454 c 2xf0
EndSplineSet
EndChar

StartChar: braceleft
Encoding: 123 123 92
Width: 251
GlyphClass: 2
Flags: HW
HStem: 700 20G<162.5 189>
VStem: 45 77<240.115 270.308> 73 64<-147.001 59.8049 494.524 665.89> 105 60<24.5381 215.922 297.492 513.796>
LayerCount: 2
Fore
SplineSet
44.1182 256 m 0xc0
 45.3525 263 105.764 271 121.28 359 c 0
 134.857 436 120.023 505 134.307 586 c 0
 152.82 691 221.934 720 264.934 720 c 0
 274.934 720 288.758 719 288.053 715 c 0
 287.347 711 243.584 701 216.591 650 c 0
 208.946 635 204.302 620 201.48 604 c 0
 191.253 546 208.026 488 194.449 411 c 0
 177.521 315 122.353 263 120.766 254 c 0xc0
 119.002 244 155.302 206 140.138 120 c 0x90
 128.677 55 89.7441 -7 78.6357 -70 c 0
 62.4141 -162 121.124 -192 120.595 -195 c 0
 120.242 -197 117.066 -198 104.066 -198 c 0
 59.0664 -198 -2.46777 -167 16.9277 -57 c 0xa0
 30.5049 20 73.79 84 85.0752 148 c 0x90
 99.3574 229 47.2363 251 44.7656 254 c 0
 43.9424 255 43.9424 255 44.1182 256 c 0xc0
EndSplineSet
EndChar

StartChar: bar
Encoding: 124 124 93
Width: 153
GlyphClass: 2
Flags: HW
HStem: 698 20G<68.5 86.5>
VStem: 50 53<-197.934 717.913>
LayerCount: 2
Fore
SplineSet
-3.75781 -198 m 2
 -7.75781 -198 l 2
 -17.7578 -198 -30.5811 -197 -28.4658 -185 c 2
 128.466 705 l 2
 130.581 717 143.758 718 154.758 718 c 2
 156.758 718 l 2
 177.758 718 183.229 715 181.466 705 c 2
 24.5342 -185 l 2
 23.124 -193 19.2422 -198 -3.75781 -198 c 2
EndSplineSet
EndChar

StartChar: braceright
Encoding: 125 125 94
Width: 251
GlyphClass: 2
Flags: HW
HStem: 700 20G<65.5 91.5>
VStem: 89 60<24.5381 215.905 296.882 513.796> 117 64<-147.001 59.8049 494.524 666.135> 132 77<240.03 269.121>
LayerCount: 2
Fore
SplineSet
234.307 586 m 0x90
 220.023 505 180.857 436 167.28 359 c 0
 152.292 274 204.177 262 207.647 259 c 0
 208.471 258 208.471 258 208.295 257 c 0x90
 207.942 255 206.59 253 203.413 252 c 0
 167.239 234 138.244 200 129.075 148 c 0xc0
 117.79 84 138.505 20 124.928 -57 c 0
 105.532 -167 33.0664 -198 -11.9336 -198 c 0
 -24.9336 -198 -27.7578 -197 -27.4053 -195 c 0
 -26.876 -192 42.4141 -162 58.6357 -70 c 0xa0
 69.7441 -7 52.6768 55 64.1377 120 c 0xc0
 79.4785 207 129.002 244 130.766 254 c 0
 131.471 258 129.177 262 128.529 264 c 0
 105.346 314 104.69 367 112.449 411 c 0
 126.026 488 163.253 546 173.48 604 c 0
 189.173 693 125.171 710 126.053 715 c 0
 126.758 719 141.934 720 150.934 720 c 0
 193.934 720 252.82 691 234.307 586 c 0x90
EndSplineSet
EndChar

StartChar: asciitilde
Encoding: 126 126 95
Width: 451
GlyphClass: 2
Flags: HW
HStem: 183 71<236.303 342.652> 242 70<92.9183 188.615>
LayerCount: 2
Fore
SplineSet
27.3926 173 m 0x40
 22.3926 173 13.8613 187 14.9189 193 c 0
 15.624 197 63.5566 259 89.4355 281 c 0
 106.081 296 131.902 312 160.902 312 c 0x40
 219.902 312 241.675 254 300.675 254 c 0
 356.675 254 399.373 309 409.255 314 c 0
 411.431 315 413.607 316 415.607 316 c 0
 420.607 316 438.197 308 436.434 298 c 0
 435.199 291 350.156 183 266.156 183 c 0x80
 198.156 183 186.56 242 132.56 242 c 0
 97.5596 242 68.3271 218 35.2744 178 c 0
 33.9219 176 31.3926 173 27.3926 173 c 0x40
EndSplineSet
EndChar

StartChar: exclamdown
Encoding: 161 161 97
Width: 325
GlyphClass: 2
Flags: HW
HStem: -16 21G<127.5 134.5> 572 102<117.887 201.265>
VStem: 108 103<582.181 664.265> 122 95<20.366 289.904> 166 33<367.851 461.971>
LayerCount: 2
Fore
SplineSet
71.167 -16 m 0xd0
 62.167 -16 62.4014 -9 65.5752 9 c 2
 69.6309 32 l 2xd0
 107.365 246 176.928 425 186.63 446 c 0
 189.688 452 196.451 462 206.451 462 c 0
 220.451 462 219.454 445 216.633 429 c 2
 214.341 416 l 1xc8
 180.02 193 167.275 47 167.1 46 c 0
 164.808 33 158.926 28 150.221 24 c 0
 75.167 -16 76.167 -16 71.167 -16 c 0xd0
202.848 572 m 0
 174.848 572 154.903 595 159.84 623 c 0
 164.601 650 190.833 674 219.833 674 c 0
 246.833 674 268.13 653 262.84 623 c 0xe0
 257.374 592 229.848 572 202.848 572 c 0
EndSplineSet
EndChar

StartChar: dieresis
Encoding: 168 168 98
Width: 255
GlyphClass: 2
Flags: HW
HStem: 571 94<20.332 99.9316 155.332 234.932>
VStem: 12 96<579.068 656.984> 147 96<579.068 656.984>
LayerCount: 2
Fore
SplineSet
147 618 m 0
 151.585 644 178.287 665 203.287 665 c 0
 230.287 665 247.585 644 243.177 619 c 0
 238.415 592 212.713 571 186.713 571 c 0
 160.713 571 142.239 591 147 618 c 0
12 618 m 0
 16.585 644 43.2871 665 68.2871 665 c 0
 95.2871 665 112.585 644 108.177 619 c 0
 103.415 592 77.7129 571 51.7129 571 c 0
 25.7129 571 7.23926 591 12 618 c 0
EndSplineSet
EndChar

StartChar: copyright
Encoding: 169 169 99
Width: 772
GlyphClass: 2
Flags: HW
HStem: -24 51<278.469 494.439> 88 38<321.097 470.988> 520 34<316.956 457.544> 637 52<275.379 496.213>
VStem: 30 51<221.604 443.858> 151 66<234.315 415.614> 559 25<222.277 259.891> 691 51<218.952 443.657>
LayerCount: 2
Fore
SplineSet
332.132 27 m 0
 494.132 27 660.055 157 691.088 333 c 0
 719.653 495 613.691 637 438.691 637 c 0
 267.691 637 110.182 498 80.9121 332 c 0
 50.584 160 168.132 27 332.132 27 c 0
29.9121 332 m 0
 63.9434 525 247.86 689 448.86 689 c 0
 647.86 689 776.119 526 741.912 332 c 0
 708.233 141 526.14 -24 322.14 -24 c 0
 130.14 -24 -5.53027 131 29.9121 332 c 0
559.081 384 m 0
 529.081 384 558.781 422 537.129 458 c 0
 516.771 490 477.062 520 419.062 520 c 0
 335.062 520 237.895 451 216.912 332 c 0
 196.458 216 260.589 126 358.589 126 c 0
 427.589 126 506.699 172 544.453 250 c 0
 548.688 257 555.217 260 560.217 260 c 0
 567.217 260 570.511 256 569.453 250 c 2
 569.453 250 540.818 167 537.173 152 c 0
 534.233 141 529.999 134 515.999 134 c 2
 497.999 134 l 2
 483.999 134 486.47 131 466.707 121 c 0
 421.475 97 376.888 88 341.888 88 c 0
 210.888 88 126.579 194 148.796 320 c 0
 171.189 447 295.057 554 427.057 554 c 0
 511.057 554 534.237 521 547.237 521 c 0
 555.237 521 555.293 544 575.293 544 c 0
 580.293 544 585.117 543 585.53 534 c 0
 583.071 452 581.899 417 579.078 401 c 0
 577.315 391 575.081 384 559.081 384 c 0
EndSplineSet
EndChar

StartChar: guillemotleft
Encoding: 171 171 100
Width: 365
GlyphClass: 2
Flags: HW
HStem: 52 282<180 192 320 333>
VStem: 22 80<171.745 215.713> 163 79<171.745 215.713>
LayerCount: 2
Fore
SplineSet
209.862 334 m 0
 217.862 334 224.746 322 223.512 315 c 0
 222.454 309 222.63 310 106.41 201 c 0
 105.058 199 102.705 197 102.177 194 c 0
 101.118 188 103.766 186 176.898 79 c 0
 178.546 77 180.018 74 179.488 71 c 0
 178.077 63 167.138 52 159.138 52 c 0
 154.138 52 155.138 52 26.4131 184 c 0
 23.7656 186 21.2949 189 22 193 c 0
 22.8818 198 27.4102 201 30.9395 204 c 0
 205.862 334 204.862 334 209.862 334 c 0
350.862 334 m 0
 358.862 334 365.746 322 364.512 315 c 0
 363.454 309 363.63 310 247.41 201 c 0
 245.058 199 242.705 197 242.177 194 c 0
 241.118 188 244.766 186 316.898 79 c 0
 319.546 77 320.018 74 319.488 71 c 0
 318.077 63 308.138 52 300.138 52 c 0
 294.138 52 296.138 52 167.413 184 c 0
 164.766 186 162.295 189 163 193 c 0
 163.882 198 167.41 201 171.939 204 c 0
 346.862 334 344.862 334 350.862 334 c 0
EndSplineSet
EndChar

StartChar: logicalnot
Encoding: 172 172 101
Width: 701
GlyphClass: 2
Flags: HW
HStem: 231 57<53 592>
VStem: 592 57<41.0781 231>
LayerCount: 2
Fore
SplineSet
87.7256 231 m 2
 72.7256 231 65.4307 235 68.6045 253 c 2
 70.8975 266 l 2
 74.5996 287 87.7764 288 98.7764 288 c 2
 662.776 288 l 2
 669.776 288 670.247 285 669.189 279 c 2
 630.75 61 l 2
 628.458 48 624.224 41 608.224 41 c 2
 594.224 41 l 2
 573.224 41 572.34 53 574.809 67 c 2
 603.726 231 l 1
 87.7256 231 l 2
EndSplineSet
EndChar

StartChar: registered
Encoding: 174 174 102
Width: 519
GlyphClass: 2
Flags: HW
HStem: 335 37<185.27 334.574> 419 27<146.018 178 349.745 384.28> 542 18<216.119 253.266> 657 19<142.608 175.333 213.002 267.187> 719 36<185.27 332.161>
VStem: 50 35<471.505 618.161> 178 36<445.157 542 560 650 651 652.047> 291 37<568.344 643.871> 433 36<471.505 618.161>
DStem2: 286 548 252 537 0.587113 -0.809505<0 131.605>
LayerCount: 2
Fore
SplineSet
265.099 676 m 0
 331.099 676 344.222 637 339.461 610 c 0
 332.938 573 297.234 552 286.529 548 c 1
 308.887 516 317.536 497 330.423 468 c 0
 334.483 457 342.544 446 352.544 446 c 0
 360.544 446 361.954 454 369.954 454 c 0
 371.954 454 375.425 451 374.72 447 c 0
 373.838 442 357.783 419 335.783 419 c 0
 319.783 419 307.898 431 300.544 446 c 2
 250.59 537 l 2
 249.295 541 249.471 542 243.471 542 c 2
 217.471 542 l 2
 215.471 542 215.471 542 214.942 539 c 2
 200.307 456 l 2
 200.131 455 198.954 454 198.954 454 c 1
 195.957 437 241.954 454 238.075 432 c 0
 236.841 425 232.136 421 226.136 421 c 0
 220.136 421 208.488 423 180.488 423 c 0
 152.488 423 138.136 421 134.136 421 c 0
 126.136 421 125.193 427 126.251 433 c 0
 128.015 443 133.838 442 152.367 445 c 1
 160.367 445 161.072 449 162.131 455 c 2
 194.928 641 l 2
 196.69 651 187.515 650 169.22 654 c 0
 165.22 654 161.749 657 162.63 662 c 0
 163.688 668 166.217 671 172.217 671 c 2
 184.217 671 l 2
 216.217 671 241.099 676 265.099 676 c 0
301.403 604 m 0
 306.341 632 289.749 657 253.749 657 c 0
 234.749 657 232.043 653 231.69 651 c 1
 232.515 650 l 1
 217.351 564 l 2
 216.645 560 218.645 560 236.645 560 c 0
 288.645 560 298.405 587 301.403 604 c 0
227.495 372 m 0
 323.495 372 416.425 451 432.823 544 c 0
 449.751 640 384.681 719 288.681 719 c 0
 195.681 719 101.751 640 84.8232 544 c 0
 68.4248 451 134.495 372 227.495 372 c 0
220.972 335 m 0
 105.972 335 29.7227 430 49.8232 544 c 0
 70.4541 661 180.028 755 295.028 755 c 0
 412.028 755 489.454 661 468.823 544 c 0
 448.723 430 337.972 335 220.972 335 c 0
EndSplineSet
EndChar

StartChar: degree
Encoding: 176 176 103
Width: 212
GlyphClass: 2
Flags: HW
HStem: 496 38<67.3347 146.833> 653 37<67.5418 145.575>
VStem: 12 40<548.199 639.382> 162 38<548.7 637.058>
LayerCount: 2
Fore
SplineSet
123.104 690 m 0
 176.104 690 209.169 645 200 593 c 0
 190.654 540 140.896 496 88.8965 496 c 0
 37.8965 496 2.47852 539 12 593 c 0
 21.5215 647 72.1035 690 123.104 690 c 0
116.58 653 m 0
 85.5801 653 57.8184 626 52.1768 594 c 0
 46.3574 561 65.5967 534 96.5967 534 c 0
 129.597 534 156.71 563 162 593 c 0
 167.466 624 148.58 653 116.58 653 c 0
EndSplineSet
EndChar

StartChar: plusminus
Encoding: 177 177 104
Width: 701
GlyphClass: 2
Flags: HW
HStem: -12 57<53 648.948> 280 58<53 322 379 648.948>
VStem: 322 57<71 280 338 546.977>
LayerCount: 2
Fore
SplineSet
78.2041 280 m 2
 63.2041 280 56.0859 285 59.083 302 c 2
 61.5518 316 l 2
 65.0781 336 78.4307 338 89.4307 338 c 2
 334.431 338 l 1
 368.462 531 l 2
 370.931 545 379.283 547 391.283 547 c 2
 405.283 547 l 2
 425.283 547 426.873 539 424.58 526 c 2
 391.431 338 l 1
 641.431 338 l 2
 653.431 338 660.726 334 657.904 318 c 2
 655.436 304 l 2
 651.381 281 637.204 280 624.204 280 c 2
 381.204 280 l 1
 347.525 89 l 2
 344.704 73 336.352 71 323.352 71 c 2
 309.352 71 l 2
 290.352 71 288.586 78 290.702 90 c 2
 324.204 280 l 1
 78.2041 280 l 2
26.7168 -12 m 2
 12.7168 -12 4.24512 -9 7.5957 10 c 2
 9.8877 23 l 2
 13.5908 44 26.7676 45 37.7676 45 c 2
 589.768 45 l 2
 601.768 45 609.238 42 606.417 26 c 2
 603.948 12 l 2
 599.893 -11 585.717 -12 572.717 -12 c 2
 26.7168 -12 l 2
EndSplineSet
EndChar

StartChar: acute
Encoding: 180 180 105
Width: 227
GlyphClass: 2
Flags: HW
HStem: 474 227
VStem: 15 197
LayerCount: 2
Fore
SplineSet
195.013 701 m 0
 215.013 701 229.368 686 225.489 664 c 0
 222.315 646 209.022 633 193.555 619 c 0
 139.267 572 35.5742 483 29.8682 479 c 0
 25.3398 476 19.9873 474 13.9873 474 c 0
 1.9873 474 -3.25 484 -1.48633 494 c 0
 0.805664 507 2.80566 507 132.607 659 c 0
 144.076 673 166.013 701 195.013 701 c 0
EndSplineSet
EndChar

StartChar: paragraph
Encoding: 182 182 106
Width: 750
GlyphClass: 2
Flags: HW
HStem: -204 53<606.812 684.35> -18 36<300.806 410.564> 679 31<341.197 437.5> 694 39<593.204 669.63>
VStem: 26 172<173.297 423.162> 365 26<175.738 468.644> 444 37<128.563 491.261> 670 54<640.104 693.031>
LayerCount: 2
Fore
SplineSet
452.904 315 m 0xcf
 485.172 498 555.981 599 557.392 607 c 0
 559.685 620 544.503 653 534.503 653 c 0
 532.503 653 531.15 651 528.798 649 c 0
 468.104 560 424.943 457 401.315 323 c 0
 378.922 196 388.53 52 400.53 52 c 0
 406.53 52 428.763 76 437.407 91 c 1
 437.166 135 437.035 225 452.904 315 c 0xcf
509.619 665 m 0
 511.206 674 482.088 679 469.088 679 c 0xef
 383.088 679 306.926 576 267.525 500 c 0
 238.475 443 218.719 382 207.963 321 c 2
 207.786 320 l 2
 177.281 147 219.535 18 315.535 18 c 0
 336.535 18 370.299 28 372.238 39 c 0
 373.825 48 343.4 142 373.552 313 c 0
 413.754 541 507.503 653 509.619 665 c 0
711.977 633 m 0
 715.327 652 739.385 658 742.206 674 c 0
 743.616 682 738.732 694 717.732 694 c 0xdf
 670.732 694 623.093 645 605.332 618 c 0
 534.817 513 506.655 410 490.963 321 c 2
 490.257 317 l 1
 457.402 125 481.13 -24 511.668 -89 c 0
 525.731 -117 546.146 -143 558.736 -151 c 0
 573.149 -160 611.736 -151 607.151 -177 c 0
 604.33 -193 584.391 -204 564.391 -204 c 2
 560.391 -204 l 2
 549.391 -204 530.743 -202 507.504 -175 c 0
 486.736 -151 476.202 -120 465.492 -90 c 0
 445.071 -30 443.422 -11 437.768 42 c 1
 404.359 17 377.422 -11 278.364 -17 c 0
 271.364 -17 265.188 -18 258.188 -18 c 0
 89.1875 -18 0.873047 122 31.3779 295 c 0
 74.0488 537 300.554 710 468.554 710 c 0xef
 560.554 710 587.032 656 594.032 656 c 0
 603.032 656 613.616 682 666.73 711 c 0
 690.022 724 714.609 733 739.609 733 c 0xdf
 785.609 733 800.79 700 796.029 673 c 0
 789.506 636 752.273 612 731.273 612 c 0
 719.273 612 709.685 620 711.977 633 c 0
EndSplineSet
EndChar

StartChar: periodcentered
Encoding: 183 183 107
Width: 227
GlyphClass: 2
Flags: HW
HStem: 201 117<67.9846 158.932>
VStem: 54 119<214.578 303.753>
LayerCount: 2
Fore
SplineSet
123.315 318 m 0
 155.315 318 178.73 292 172.912 259 c 0
 167.445 228 137.685 201 103.685 201 c 0
 72.6846 201 47.917 225 54.0879 260 c 0
 60.2598 295 92.3154 318 123.315 318 c 0
EndSplineSet
EndChar

StartChar: cedilla
Encoding: 184 184 108
Width: 199
GlyphClass: 2
Flags: HW
HStem: -199 36<27.665 118.434>
VStem: 46 47<-77.5 -20.3329> 122 61<-160.177 -95.2734>
LayerCount: 2
Fore
SplineSet
83.0146 -199 m 0
 51.0146 -199 10.6016 -190 6.30664 -186 c 0
 4.65918 -184 4.01172 -182 4.54102 -179 c 0
 4.71777 -178 11.7734 -155 22.7734 -155 c 0
 23.7734 -155 53.3623 -163 72.3623 -163 c 0
 95.3623 -163 112.654 -150 116.182 -130 c 0
 120.766 -104 95.6445 -82 54.1738 -79 c 0
 53.1738 -79 49.1738 -79 49.7031 -76 c 0
 50.0557 -74 80.2246 -22 95.9854 5 c 1
 126.985 5 l 1
 119.164 -11 102.521 -43 102.346 -44 c 0
 101.992 -46 101.816 -47 105.816 -47 c 2
 107.816 -47 l 2
 155.816 -47 187.231 -73 178.415 -123 c 0
 172.597 -156 149.015 -199 83.0146 -199 c 0
EndSplineSet
EndChar

StartChar: guillemotright
Encoding: 187 187 109
Width: 365
GlyphClass: 2
Flags: HW
HStem: 52 282<32 45 174 186>
VStem: 123 79<171.321 215.498> 263 79<171.129 215.713>
LayerCount: 2
Fore
SplineSet
204.862 334 m 0
 210.862 334 207.862 334 337.939 204 c 0
 341.41 201 342.882 198 342 193 c 0
 341.295 189 338.766 186 334.413 184 c 1
 160.138 52 161.138 52 155.138 52 c 0
 149.138 52 140.725 61 142.312 70 c 0
 143.37 76 144.193 75 258.59 185 c 0
 261.118 188 262.471 190 263 193 c 0
 263.353 195 262.882 198 261.41 201 c 0
 183.63 310 182.454 309 183.512 315 c 0
 185.099 324 196.862 334 204.862 334 c 0
64.8623 334 m 0
 69.8623 334 72.9805 329 195.939 204 c 0
 201.234 200 202.529 196 202 193 c 0
 201.471 190 198.942 187 194.413 184 c 0
 20.1377 52 21.1377 52 15.1377 52 c 0
 7.1377 52 0.724609 61 2.31152 70 c 0
 3.37012 76 5.72266 78 116.59 185 c 0
 120.118 188 122.647 191 123.177 194 c 0
 123.529 196 122.882 198 121.41 201 c 2
 45.749 305 l 2
 44.2773 308 42.8066 311 43.5117 315 c 0
 45.0986 324 56.8623 334 64.8623 334 c 0
EndSplineSet
EndChar

StartChar: questiondown
Encoding: 191 191 110
Width: 380
GlyphClass: 2
Flags: HW
HStem: -16 38<137.806 231.719> -7 103<256.943 320.057> 572 118<147.34 238.609>
VStem: 15 85<60.8065 202.07> 133 120<586.247 675.996> 181 52<345.138 480.296>
LayerCount: 2
Fore
SplineSet
234.437 572 m 0x38
 202.437 572 179.021 598 184.84 631 c 0
 190.307 662 221.243 690 255.243 690 c 0
 286.243 690 310.835 665 304.664 630 c 0
 298.492 595 265.437 572 234.437 572 c 0x38
129.757 -16 m 0xb4
 1.75684 -16 -31.7266 72 -21.3232 131 c 0
 0.717773 256 171.479 283 196.164 423 c 0
 197.751 432 197.809 438 199.043 445 c 0
 203.804 472 221.391 481 231.391 481 c 0
 242.391 481 256.98 473 248.693 426 c 0
 225.595 295 83.0723 241 62.7949 126 c 0
 52.7441 69 82.457 22 131.457 22 c 0xb4
 195.457 22 202.505 96 252.505 96 c 0
 276.505 96 290.979 76 286.747 52 c 0
 284.631 40 275.636 6 212.344 -7 c 0x74
 185.285 -13 156.757 -16 129.757 -16 c 0xb4
EndSplineSet
EndChar

StartChar: AE
Encoding: 198 198 117
Width: 1010
GlyphClass: 2
Flags: HMW
HStem: -6 45<-3.94116 79.1425 181.881 269.971> 0 62<607.348 730.546> 0 55<639.454 874.356> 300 52<322.58 517> 369 58<608.877 817.602> 638 54<609.095 872.107>
VStem: 517 89<65 300 352 366.058 427 630.512> 819 54<271.329 368.925 428.417 512.682> 909 44<525.207 582.383>
LayerCount: 2
Back
SplineSet
508.793 352 m 6x3980
 512.793 352 518.146 354 519.381 361 c 6
 564.873 619 l 5
 565.283 627 561.988 631 556.988 631 c 4
 552.988 631 548.636 629 545.107 626 c 4
 493.172 581 324.262 366 322.499 356 c 4
 321.793 352 326.793 352 330.793 352 c 6
 508.793 352 l 6x3980
365.747 675 m 4
 366.629 680 373.332 701 384.332 701 c 4xb380
 393.332 701 420.626 697 519.921 693 c 4x3980
 570.568 691 963.921 693 972.568 691 c 4
 981.039 688 981.981 682 981.747 675 c 4
 980.988 631 988.354 548 987.648 544 c 4
 985.709 533 971.298 525 959.298 525 c 4
 951.298 525 944.827 528 942.062 535 c 4
 937.178 547 916.696 618 911.636 629 c 4
 907.223 638 900.223 638 881.223 638 c 6
 690.223 638 l 6
 659.223 638 655.696 618 651.817 596 c 6
 625.897 449 l 6
 624.134 439 623.018 427 642.018 427 c 6
 795.018 427 l 6
 831.018 427 835.311 440 841.129 473 c 6
 844.303 491 l 6
 846.066 501 851.182 513 875.182 513 c 4
 901.182 513 899.008 495 897.068 484 c 6
 864.624 300 l 6
 862.685 289 858.511 271 832.511 271 c 4
 806.511 271 807.803 284 809.391 293 c 6
 816.267 332 l 6
 821.733 363 819.791 369 796.791 369 c 6
 658.791 369 l 6
 634.791 369 609.438 367 602.738 329 c 6
 563.77 108 l 6
 558.479 78 557.364 66 587.658 62 c 4
 617.777 57 649.425 55 680.425 55 c 4
 750.425 55 812.364 66 827.127 76 c 4
 847.596 90 897.23 173 914.994 183 c 4
 918.347 185 922.523 186 925.523 186 c 4
 934.523 186 942.112 178 939.468 163 c 4
 938.233 156 934.822 148 883.253 20 c 4
 875.727 0 864.727 0 844.727 0 c 6
 509.727 0 l 6x7580
 400.727 0 385.668 -6 371.668 -6 c 4
 360.668 -6 356.608 5 358.371 15 c 4
 366.306 60 438.135 25 463.188 65 c 4
 468.599 73 470.361 83 472.301 94 c 6
 507.037 291 l 5
 507.448 299 501.624 300 497.624 300 c 6
 331.624 300 l 6
 278.624 300 280.448 299 272.685 289 c 4
 199.992 200 134.772 91 131.422 72 c 4
 126.484 44 152.838 46 197.604 39 c 4
 205.427 38 214.897 35 211.548 16 c 4
 209.961 7 204.668 -6 190.668 -6 c 4xb180
 186.668 -6 134.727 0 70.7266 0 c 4x7180
 5.72656 0 -46.332 -6 -50.332 -6 c 4
 -61.332 -6 -64.3916 5 -62.6289 15 c 4
 -61.042 24 -56.4551 33 -47.9258 36 c 4
 -32.0439 41 1.95605 41 26.1299 59 c 4
 52.6562 79 80.4121 140 255.204 360 c 4
 429.996 580 471.109 609 473.931 625 c 4
 477.104 643 450.929 642 381.868 653 c 4xb380
 366.221 655 363.983 665 365.747 675 c 4
EndSplineSet
Fore
SplineSet
517.793 352 m 1x1f80
 566.988 631 l 1
 562.988 631 548.636 629 545.107 626 c 0
 493.172 581 323.557 362 321.793 352 c 1
 517.793 352 l 1x1f80
365.747 675 m 0
 366.629 680 373.332 701 384.332 701 c 0
 393.332 701 420.626 697 519.921 693 c 0
 544.744 692 655.744 692 761.744 692 c 0
 867.744 692 967.744 692 972.568 691 c 0
 981.039 688 981.981 682 981.747 675 c 0
 980.988 631 988.354 548 987.648 544 c 0
 985.709 533 971.298 525 959.298 525 c 0
 951.298 525 944.827 528 942.062 535 c 0
 937.178 547 918.283 627 913.223 638 c 1
 690.223 638 l 2
 659.223 638 655.696 618 651.817 596 c 2
 625.897 449 l 2
 624.134 439 623.018 427 642.018 427 c 2
 795.018 427 l 2
 831.018 427 835.311 440 841.129 473 c 2
 844.303 491 l 2
 846.066 501 851.182 513 875.182 513 c 0
 901.182 513 899.008 495 897.068 484 c 2
 864.624 300 l 2
 862.685 289 858.511 271 832.511 271 c 0
 806.511 271 807.803 284 809.391 293 c 2
 816.267 332 l 2
 821.733 363 819.791 369 796.791 369 c 2
 658.791 369 l 2
 634.791 369 609.438 367 602.738 329 c 2
 563.77 108 l 2
 558.479 78 557.364 66 587.658 62 c 0x5f80
 617.777 57 649.425 55 680.425 55 c 0
 750.425 55 812.364 66 827.127 76 c 0
 847.596 90 897.23 173 914.994 183 c 0
 918.347 185 922.523 186 925.523 186 c 0
 934.523 186 942.112 178 939.468 163 c 0
 938.233 156 934.822 148 883.253 20 c 0
 875.727 0 864.727 0 844.727 0 c 2
 372.727 0 l 2x3f80
 361.727 0 356.608 5 358.371 15 c 0
 366.306 60 442.135 25 467.188 65 c 1
 508.624 300 l 1
 331.624 300 l 2
 278.624 300 280.448 299 272.685 289 c 0
 199.992 200 134.772 91 131.422 72 c 0
 126.484 44 152.838 46 197.604 39 c 0
 205.427 38 214.897 35 211.548 16 c 0
 209.961 7 204.668 -6 190.668 -6 c 0x9f80
 186.668 -6 134.727 0 70.7266 0 c 0x3f80
 5.72656 0 -46.332 -6 -50.332 -6 c 0x9f80
 -61.332 -6 -64.3916 5 -62.6289 15 c 0
 -61.042 24 -56.4551 33 -47.9258 36 c 0
 -32.0439 41 1.95605 41 26.1299 59 c 0
 52.6562 79 80.4121 140 255.204 360 c 0
 429.996 580 471.109 609 473.931 625 c 0
 477.104 643 450.929 642 381.868 653 c 0
 366.221 655 363.983 665 365.747 675 c 0
EndSplineSet
EndChar

StartChar: Ccedilla
Encoding: 199 199 118
Width: 700
GlyphClass: 2
Flags: HW
HStem: -195 36<325.143 416.233> -23 50<300.541 363 390.001 498.99> 439 21G<629 650.5> 650 46<283.328 486.406>
VStem: 19 96<229.101 451.697> 420 61<-156.256 -91.5187> 613 49<439.285 545.701>
LayerCount: 2
Fore
SplineSet
314.774 -23 m 1
 120.361 -14 0.75 147 33.8994 335 c 0
 51.709 436 114.46 531 190.568 594 c 0
 270.029 659 370.554 696 463.554 696 c 2
 464.554 696 l 2
 585.554 696 638.208 643 651.208 643 c 0
 668.208 643 666.675 674 686.556 679 c 0
 689.556 679 695.732 680 697.732 680 c 0
 707.732 680 708.675 674 708.616 668 c 0
 708.44 667 699.998 466 698.235 456 c 0
 697.001 449 692.237 439 675.237 439 c 0
 649.237 439 652.472 446 654.525 486 c 0
 655.286 513 654.107 529 640.162 552 c 0
 608.332 604 545.442 650 453.442 650 c 0
 316.442 650 165.87 539 133.25 354 c 0
 100.806 170 200.591 27 356.591 27 c 0
 471.591 27 594.168 104 652.327 224 c 0
 653.856 227 657.619 237 669.619 237 c 0
 676.619 237 685.091 234 683.68 226 c 1
 683.68 226 634.173 70 629.938 63 c 1
 623.294 48 610.117 47 605.117 47 c 2
 604.117 47 l 1
 576.117 47 l 2
 552.117 47 548.707 39 525.415 26 c 0
 468.125 -4 407.127 -21 347.599 -24 c 1
 340.306 -37 338.953 -39 338.777 -40 c 0
 338.425 -42 339.248 -43 342.248 -43 c 2
 345.248 -43 l 2
 393.248 -43 424.663 -69 415.848 -119 c 2
 415.671 -120 l 2
 410.028 -152 385.446 -195 320.446 -195 c 0
 288.446 -195 247.033 -186 243.738 -182 c 0
 241.091 -180 240.444 -178 240.973 -175 c 0
 241.149 -174 248.205 -151 259.205 -151 c 0
 260.205 -151 290.794 -159 309.794 -159 c 0
 331.794 -159 350.086 -146 353.437 -127 c 0
 358.197 -100 333.076 -78 291.605 -75 c 0
 289.605 -75 286.605 -75 287.135 -72 c 0
 287.311 -71 304.777 -40 314.774 -23 c 1
EndSplineSet
EndChar

StartChar: multiply
Encoding: 215 215 133
Width: 552
GlyphClass: 2
Flags: HW
DStem2: 63 86 277 219 0.707107 0.707107<23.0541 245.366 302.642 523.883> 277 300 237 259 0.707107 -0.707107<-220.441 0.0306047 57.9828 280.295>
LayerCount: 2
Fore
SplineSet
20.3213 69 m 0
 21.5557 76 26.4375 81 32.3193 86 c 2
 236.823 259 l 1
 95.3281 432 84.5625 439 86.502 450 c 0
 87.9131 458 112.145 482 126.145 482 c 2
 127.145 482 l 2
 138.145 482 138.439 478 284.053 300 c 1
 502.674 485 496.321 483 506.497 484 c 1
 507.497 484 l 2
 515.497 484 535.794 463 533.502 450 c 2
 533.326 449 l 2
 531.387 438 527.21 437 317.823 259 c 1
 467.732 77 469.261 80 467.321 69 c 0
 465.559 59 440.503 36 428.503 36 c 0
 421.503 36 417.208 40 413.09 45 c 2
 269.771 219 l 1
 55.6787 37 58.5029 36 47.5029 36 c 0
 37.5029 36 18.2061 57 20.3213 69 c 0
EndSplineSet
EndChar

StartChar: Oslash
Encoding: 216 216 134
Width: 778
GlyphClass: 2
Flags: HW
HStem: -24 58<292.657 500.654> 667 53<268.469 479.38>
VStem: 18 95<244.676 473.525> 661 99<215.912 457.417>
DStem2: 183 44 196 -39 0.482254 0.876032<-79.7358 0 70.7106 665.33 734.538 805.635>
LayerCount: 2
Fore
SplineSet
757.619 337 m 0
 720.591 127 529.966 -24 334.966 -24 c 0
 274.966 -24 218.61 -9 169.371 18 c 1
 128.32 -39 130.85 -36 127.32 -39 c 0
 123.968 -41 118.439 -44 107.439 -44 c 0
 88.4395 -44 73.792 -42 75.7314 -31 c 2
 75.9072 -30 l 2
 76.4365 -27 77.2598 -28 128.956 44 c 1
 40.1221 113 -2.24707 230 18.4404 353 c 1
 54.2354 556 251.152 720 452.152 720 c 0
 503.152 720 552.213 709 595.687 689 c 1
 635.561 745 632.561 745 650.561 745 c 0
 680.561 745 684.798 735 683.74 729 c 0
 682.682 723 675.271 715 638.278 664 c 1
 736.112 595 780.895 469 757.619 337 c 0
118.907 384 m 0
 102.861 293 109.937 180 173.888 106 c 1
 554.812 633 l 1
 517.691 655 473.808 667 426.808 667 c 0
 302.808 667 153.819 582 118.907 384 c 0
341.192 34 m 0
 455.192 34 618.417 109 655.445 319 c 0
 673.078 419 661.827 531 593.347 602 c 1
 209.069 73 l 1
 243.014 50 286.192 34 341.192 34 c 0
EndSplineSet
EndChar

StartChar: germandbls
Encoding: 223 223 140
Width: 529
GlyphClass: 2
Flags: HW
HStem: -19 56<332.655 442.874> -6 45<18.1294 80.4949 152.236 217.996> 360 47<9.65625 81.9186> 659 60<213.74 316.602>
VStem: 82 71<38.5658 359.712 410.048 563.25> 252 57<345.337 432.51> 258 41<68.2012 148.863> 340 81<533.904 634.935> 460 61<54.6943 152.155>
LayerCount: 2
Fore
SplineSet
-32.7725 -6 m 0x7d80
 -39.7725 -6 -43.8906 -1 -41.4219 13 c 0
 -37.3662 36 -28.7197 34 10.1621 39 c 0
 29.5146 41 29.041 61 38.0947 101 c 0
 43.5029 126 75.3604 301 84.1768 351 c 0
 86.1162 362 78.5869 359 32.7637 360 c 1
 31.7637 360 l 2
 25.7637 360 10.9395 361 14.1133 379 c 0
 14.9951 384 20.3457 403 33.0508 407 c 0
 42.5801 410 85.2266 408 89.5801 410 c 0
 92.7559 411 93.2852 414 93.8135 417 c 2
 94.167 419 l 1
 113.152 521 156.256 618 226.425 670 c 0
 273.42 704 329.064 719 369.064 719 c 0
 436.064 719 478.307 675 466.316 607 c 0
 447.802 502 330.688 473 317.64 399 c 0x7d80
 306.884 338 369.828 315 436.959 225 c 0
 457.198 198 486.264 153 476.39 97 c 0
 464.223 28 399.936 -19 331.936 -19 c 0
 257.936 -19 217.459 18 208.986 38 c 0
 205.573 47 205.808 54 207.747 65 c 2
 219.385 131 l 2
 222.382 148 222.029 146 224.559 149 c 0
 225.734 150 231.793 156 240.793 156 c 0
 265.793 156 240.326 125 253.331 91 c 0
 259.039 78 289.81 37 334.81 37 c 0xbb80
 371.81 37 409.218 62 415.918 100 c 0
 426.321 159 362.082 186 281.067 288 c 0
 261.3 312 249.531 336 255.174 368 c 0
 268.046 441 364.686 490 379.674 575 c 0
 387.784 621 364.485 659 319.485 659 c 0
 298.485 659 227.546 648 185.859 508 c 0
 173.982 469 167.106 430 160.053 390 c 2
 158.29 380 l 2
 114.385 131 107.742 99 102.275 68 c 0
 99.6309 53 97.9863 38 128.457 35 c 0
 156.104 33 162.28 34 159.283 17 c 0
 157.344 6 155.228 -6 144.228 -6 c 0
 142.228 -6 104.285 0 57.2852 0 c 0
 9.28516 0 -29.7725 -6 -32.7725 -6 c 0x7d80
EndSplineSet
EndChar

StartChar: ae
Encoding: 230 230 147
Width: 645
GlyphClass: 2
Flags: HW
HStem: -22 54<120.893 227.079 414.939 541.487> 191 37<159.882 257.94> 376 56<370.172 486.763> 385 47<124.393 228.628>
VStem: 32 74<46.7656 152.973> 259 74<115.787 190.367 228.097 337.5> 529 98<298.142 339.608>
LayerCount: 2
Fore
SplineSet
454.152 376 m 0xee
 397.152 376 348.454 321 332.938 233 c 0
 332.056 228 333.703 226 336.703 226 c 0
 339.703 226 533.046 296 537.398 298 c 0
 543.928 301 546.809 306 547.515 310 c 0
 549.982 324 509.152 376 454.152 376 c 0xee
87.6621 101 m 0
 82.7246 73 87.4951 32 138.495 32 c 0
 161.495 32 189.259 42 208.728 56 c 0
 232.725 73 236.254 76 243.131 115 c 2
 248.244 144 l 2
 256.531 191 255.531 191 246.531 191 c 2
 244.531 191 l 1
 185.826 187 100.357 173 87.6621 101 c 0
487.026 432 m 0
 581.026 432 651.333 343 646.043 313 c 2
 645.867 312 l 1
 639.577 282 585.813 272 555.051 262 c 0
 336.531 191 330.708 192 329.121 183 c 0
 327.005 171 325.554 38 451.554 38 c 0
 495.554 38 541.728 56 579.193 87 c 0
 584.075 92 593.662 101 604.662 101 c 0
 613.662 101 618.604 95 617.193 87 c 0
 616.312 82 613.254 76 608.196 70 c 0
 552.969 12 479.503 -19 414.503 -19 c 0
 309.503 -19 282.375 54 276.375 54 c 0
 271.375 54 191.974 -22 105.974 -22 c 0
 37.9736 -22 0.966797 29 11.7227 90 c 2
 11.8984 91 l 2
 18.5996 129 42.2412 161 69.5918 180 c 0
 128.998 222 254.056 228 254.056 228 c 2
 261.408 230 263.466 236 265.935 250 c 2
 270.872 278 l 2
 276.515 310 276.923 335 260.979 358 c 0
 248.152 376 228.739 385 207.739 385 c 0
 150.739 385 114.982 324 109.925 318 c 0
 102.69 311 93.9854 307 84.9854 307 c 0
 66.9854 307 48.4541 321 52.333 343 c 0
 58.5049 378 136.026 432 223.026 432 c 0xde
 326.026 432 329.976 375 344.976 375 c 0
 347.976 375 351.328 377 354.857 380 c 0
 373.502 395 424.026 432 487.026 432 c 0
EndSplineSet
EndChar

StartChar: ccedilla
Encoding: 231 231 148
Width: 381
GlyphClass: 2
Flags: HW
HStem: -195 36<133.143 224.233> -18 64<199.932 299.226> 376 52<142.345 251.426>
VStem: 17 66<132.437 305.205> 228 61<-156.256 -91.5187>
LayerCount: 2
Fore
SplineSet
247.299 -120 m 2
 241.656 -152 217.074 -195 152.074 -195 c 0
 120.074 -195 78.6611 -186 75.3662 -182 c 0
 72.7188 -180 72.0713 -178 72.6006 -175 c 0
 72.7773 -174 79.833 -151 90.833 -151 c 0
 91.833 -151 122.422 -159 141.422 -159 c 0
 163.422 -159 181.714 -146 185.064 -127 c 0
 189.825 -100 164.704 -78 123.233 -75 c 0
 121.233 -75 118.233 -75 118.763 -72 c 0
 118.938 -71 140.463 -34 150.989 -14 c 1
 59.8105 2 11.2695 84 31.1943 197 c 0
 55.1748 333 157.926 428 285.926 428 c 0
 357.926 428 406.578 392 399.878 354 c 0
 395.822 331 374.178 316 353.178 316 c 0
 307.178 316 300.757 376 242.757 376 c 0
 181.757 376 116.414 306 101.603 222 c 0
 85.2041 129 136.569 46 228.569 46 c 0
 306.569 46 337.091 100 360.091 100 c 0
 369.091 100 375.856 93 374.093 83 c 0
 373.035 77 368.978 71 365.271 67 c 0
 325.514 23 260.284 -18 185.284 -18 c 2
 182.284 -18 l 1
 173.11 -36 170.758 -38 170.405 -40 c 0
 170.052 -42 170.876 -43 173.876 -43 c 2
 176.876 -43 l 2
 224.876 -43 256.291 -69 247.475 -119 c 2
 247.299 -120 l 2
EndSplineSet
EndChar

StartChar: divide
Encoding: 247 247 163
Width: 701
GlyphClass: 2
Flags: HW
HStem: 67 103<302.248 386.752> 231 57<53 647.954> 349 103<295.609 380.752>
VStem: 285 106<359.248 440.996> 292 105<76.9539 159.752>
CounterMasks: 1 e0
LayerCount: 2
Fore
SplineSet
70.9746 231 m 2xe0
 54.9746 231 48.6797 235 51.8535 253 c 2
 54.1465 266 l 2
 57.8486 287 70.0254 288 81.0254 288 c 2
 633.025 288 l 2
 646.025 288 652.496 285 649.675 269 c 2
 647.207 255 l 2
 643.151 232 628.975 231 616.975 231 c 2
 70.9746 231 l 2xe0
309.773 400 m 0xf0
 314.888 429 343.943 452 372.943 452 c 0
 401.943 452 420.888 429 415.95 401 c 0
 410.837 372 382.781 349 353.781 349 c 0
 324.781 349 304.66 371 309.773 400 c 0xf0
311.057 67 m 0
 283.057 67 261.937 89 267.226 119 c 0
 272.34 148 299.219 170 328.219 170 c 0
 357.219 170 377.163 147 372.05 118 c 0xe8
 366.937 89 340.057 67 311.057 67 c 0
EndSplineSet
EndChar

StartChar: oslash
Encoding: 248 248 164
Width: 467
GlyphClass: 2
Flags: HW
HStem: -19 49<173.958 305.289> 385 47<165.676 294.523>
VStem: 21 78<108.789 304.389> 378 68<109.681 294.771>
DStem2: 105 23 146 -1 0.485263 0.874368<-42.3314 1.97359 66.2418 380.82 443.734 502.726>
LayerCount: 2
Fore
SplineSet
444.413 204 m 0
 419.198 61 304.092 -19 192.092 -19 c 0
 162.092 -19 134.15 -13 108.266 -1 c 1
 96.2686 -18 88.624 -33 74.624 -33 c 0
 42.624 -33 40.6816 -27 41.916 -20 c 0
 42.7979 -15 50.3848 -6 71.498 23 c 1
 29.0225 60 5.4834 125 19.4131 204 c 0
 43.9229 343 163.615 432 275.615 432 c 0
 304.615 432 332.381 425 357.441 414 c 1
 381.437 448 386.376 459 399.376 459 c 0
 420.376 459 434.848 456 432.379 442 c 0
 431.321 436 422.381 425 394.857 388 c 1
 443.275 345 456.58 273 444.413 204 c 0
203.732 30 m 0
 288.732 30 360.015 111 375.708 200 c 0
 382.761 240 379.93 292 353.982 332 c 1
 143.729 47 l 1
 163.438 34 184.732 30 203.732 30 c 0
260.328 385 m 0
 208.328 385 121.923 343 98.2949 209 c 0
 91.5947 171 90.6016 120 113.725 81 c 1
 321.802 365 l 1
 306.741 376 286.328 385 260.328 385 c 0
EndSplineSet
EndChar

StartChar: dotlessi
Encoding: 305 305 203
Width: 243
GlyphClass: 2
Flags: HW
HStem: -6 44<18.136 93.0582 163.719 228.991> 421 20G<149.5 156>
VStem: 94 67<39.1511 336.573>
LayerCount: 2
Fore
SplineSet
76.9844 121 m 2
 97.4385 237 108.665 295 112.016 314 c 0
 114.837 330 110.66 329 51.2451 355 c 0
 46.5977 357 40.127 360 41.5371 368 c 0
 43.6533 380 60.3584 384 72.2402 389 c 0
 185.057 439 186.409 441 191.409 441 c 2
 192.409 441 l 2
 198.409 441 205.704 437 203.588 425 c 0
 202.177 417 179.073 320 157.562 198 c 2
 151.743 165 l 2
 130.23 43 130.702 40 152.173 37 c 0
 184.291 32 196.468 33 193.47 16 c 0
 192.06 8 188.591 -6 177.591 -6 c 0
 174.591 -6 135.648 0 86.6484 0 c 0
 36.6484 0 -3.40918 -6 -6.40918 -6 c 0
 -16.4092 -6 -20.1748 1 -18.4111 11 c 0
 -14.3564 34 -10.709 32 35.3496 38 c 0
 61.0547 42 65.5234 56 68.6973 74 c 2
 76.9844 121 l 2
EndSplineSet
EndChar

StartChar: OE
Encoding: 338 338 224
Width: 1018
GlyphClass: 2
Flags: HW
HStem: -24 58<295.027 503.146> 0 55<642.732 907.982> 369 58<639.607 848.8> 638 53<639.128 894.672> 667 53<268.839 477.071>
VStem: 18 94<249.63 473.331> 548 90<67.3145 365.5 427 617.33> 850 55<271.316 368.907 428.208 513.367>
LayerCount: 2
Fore
SplineSet
593.742 97 m 2x37
 588.981 70 594.336 55 710.336 55 c 0
 742.336 55 835.395 61 859.039 76 c 0
 867.097 82 875.213 94 932.438 169 c 0
 940.377 180 950.436 186 957.436 186 c 0
 967.436 186 972.848 177 970.38 163 c 2
 970.203 162 l 2
 969.146 156 967.616 153 915.165 20 c 0
 906.814 1 896.639 0 879.639 0 c 2
 601.639 0 l 2x77
 450.639 0 387.406 -24 335.406 -24 c 0
 125.406 -24 -17.4414 147 18.8818 353 c 0
 54.5 555 250.594 720 451.594 720 c 0xaf
 514.594 720 553.478 708 591.243 701 c 0
 633.833 693 691.48 691 691.48 691 c 1
 996.48 691 l 2
 1012.48 691 1012.89 682 1013.66 675 c 2
 1019.44 549 l 1
 1018.91 546 l 2
 1016.44 532 1003.21 525 991.21 525 c 0
 972.21 525 973.502 538 971.736 545 c 2
 941.608 618 l 2
 934.605 635 931.135 638 915.135 638 c 2
 721.135 638 l 2
 701.135 638 688.019 626 685.903 614 c 2
 656.809 449 l 2
 655.574 442 655.93 427 667.93 427 c 2
 825.93 427 l 2
 842.93 427 864.106 428 869.749 460 c 2
 875.215 491 l 2
 877.859 506 892.271 514 905.271 514 c 0
 928.271 514 931.802 500 928.98 484 c 2
 896.536 300 l 2
 893.362 282 884.423 271 864.423 271 c 0
 841.423 271 838.01 280 840.302 293 c 2
 849.823 347 l 2
 853.351 367 841.703 369 827.703 369 c 2
 715.703 369 l 2
 651.703 369 640.998 365 634.649 329 c 2
 593.742 97 l 2x37
427.248 667 m 2xaf
 426.248 667 l 2
 303.248 667 153.261 582 118.348 384 c 0
 87.8428 211 152.634 34 341.634 34 c 0
 386.634 34 435.396 44 484.157 71 c 0
 499.568 79 500.568 79 504.977 104 c 2
 592.61 601 l 1
 547.898 648 487.248 667 427.248 667 c 2xaf
EndSplineSet
EndChar

StartChar: oe
Encoding: 339 339 225
Width: 763
GlyphClass: 2
Flags: HW
HStem: -19 57<522.033 664.959> -19 49<167.083 306.865> 376 55<487.022 605.717> 385 47<165.676 298.48>
VStem: 21 78<107.025 304.389> 378 72<117.554 196.704 226.001 294.23> 647 97<292.942 337.386>
LayerCount: 2
Fore
SplineSet
603.585 431 m 0x2e
 672.585 431 730.65 386 757.658 335 c 0
 760.776 330 764.366 322 762.779 313 c 2
 762.603 312 l 1
 756.312 282 702.55 272 671.786 262 c 0
 453.267 191 447.443 192 445.856 183 c 0
 443.74 171 442.289 38 568.289 38 c 0
 612.289 38 659.639 57 695.929 87 c 0
 700.811 92 711.397 101 721.397 101 c 0
 730.397 101 736.34 95 734.753 86 c 0
 734.047 82 730.989 76 724.932 70 c 0
 674.586 17 602.238 -19 532.238 -19 c 0xae
 457.238 -19 407.115 20 386.284 72 c 1
 338.057 14 264.238 -19 193.238 -19 c 0
 66.2383 -19 -1.12891 81 20.5596 204 c 0
 45.0684 343 164.762 432 276.762 432 c 0x5e
 343.762 432 404.943 399 433.011 337 c 1
 469.65 386 530.585 431 603.585 431 c 0x2e
665.25 310 m 0
 667.366 322 627.888 376 571.888 376 c 0
 513.888 376 466.366 322 450.673 233 c 0
 449.614 227 452.438 226 454.438 226 c 0
 456.438 226 651.958 297 654.134 298 c 0
 660.663 301 664.545 306 665.25 310 c 0
204.878 30 m 0x5e
 289.878 30 361.161 111 376.854 200 c 0
 395.721 307 337.475 385 261.475 385 c 0
 209.475 385 123.068 343 99.4404 209 c 0
 81.1025 105 122.878 30 204.878 30 c 0x5e
EndSplineSet
EndChar

StartChar: Scedilla
Encoding: 350 350 236
Width: 492
GlyphClass: 2
Flags: HW
HStem: -195 36<189.143 280.233> -16 55<175.012 229 254.519 327.705> 635 50<138.512 269.954>
VStem: 32 72<479.18 595.956> 48 50<112.089 247.636> 284 61<-156.256 -91.5187> 398 73<105.358 250.11>
LayerCount: 2
Fore
SplineSet
280.641 -120 m 2xf6
 274.998 -152 250.416 -195 185.416 -195 c 0
 153.416 -195 112.003 -186 108.708 -182 c 0
 106.061 -180 105.414 -178 105.942 -175 c 0
 106.119 -174 113.175 -151 124.175 -151 c 0
 125.175 -151 155.764 -159 174.764 -159 c 0
 196.764 -159 215.057 -146 218.406 -127 c 0
 223.167 -100 198.047 -78 156.575 -75 c 0
 154.575 -75 151.575 -75 152.104 -72 c 0
 152.28 -71 172.629 -35 182.979 -16 c 1
 97.3896 -8 64.0293 41 50.2637 48 c 0
 45.793 51 39.9688 52 34.9688 52 c 0
 24.9688 52 17.4395 49 8.43945 49 c 0
 -5.56055 49 -7.97266 58 -6.91504 64 c 0
 -4.79883 76 15.7246 113 44.8262 227 c 0
 47.7656 238 53.5293 248 70.5293 248 c 0
 91.5293 248 90.9424 239 88.3018 190 c 1xee
 82.959 120 76.3672 145 99.3145 105 c 0
 118.319 71 157.677 39 216.677 39 c 0
 295.677 39 372.433 100 386.187 178 c 0
 393.944 222 378.998 262 347.582 288 c 0
 296.988 330 232.459 327 170.22 354 c 0
 93.8623 386 68.3232 451 79.7842 516 c 0
 95.4775 605 183.584 685 288.584 685 c 0
 369.584 685 397.531 645 410.531 645 c 0
 425.531 645 435.584 685 459.584 685 c 0
 468.584 685 474.173 677 472.233 666 c 0
 470.823 658 462.415 633 453.599 583 c 0
 444.959 534 444.727 510 443.316 502 c 0
 441.553 492 433.671 487 423.671 487 c 2
 422.671 487 l 1
 390.848 488 408.195 524 369.894 579 c 0
 348.183 609 313.768 635 269.768 635 c 0
 213.768 635 165.361 593 156.192 541 c 0
 149.669 504 164.026 472 191.147 450 c 0
 238.271 411 310.446 412 369.686 385 c 0
 436.22 354 478.759 289 462.713 198 c 0
 443.493 89 341.684 -12 215.803 -17 c 1
 206.452 -36 204.1 -38 203.747 -40 c 0
 203.395 -42 204.218 -43 207.218 -43 c 2
 210.218 -43 l 2
 258.218 -43 289.634 -69 280.817 -119 c 2
 280.641 -120 l 2xf6
EndSplineSet
EndChar

StartChar: scedilla
Encoding: 351 351 237
Width: 338
GlyphClass: 2
Flags: HW
HStem: -195 36<101.143 192.233> -19 54<106 141 166.004 238.939> 380 47<98.6701 211.868> 412 20G<244 256>
VStem: 27 40<71.0105 155.76> 31 54<283.553 367.539> 196 61<-156.256 -91.5187> 230 55<295.352 359.134> 262 67<56.0454 149.045>
LayerCount: 2
Back
SplineSet
24.4434 104 m 6x9f
 30.9678 141 30.6123 156 50.6123 156 c 4x9f
 75.6123 156 53.6172 122 62.6797 94 c 4
 68.9775 73 108.276 35 166.276 35 c 4
 211.276 35 252.037 62 259.091 102 c 4
 270.729 168 184.491 178 154.078 187 c 4
 77.1338 210 55.9502 260 64.5898 309 c 4
 75.1699 369 139.396 427 229.396 427 c 4
 259.396 427 273.516 422 278.516 422 c 4
 287.516 422 293.278 432 305.278 432 c 4
 317.278 432 317.81 418 317.929 413 c 4
 317.757 378 319.119 312 318.414 308 c 4
 316.122 295 300.593 292 292.593 292 c 4
 271.593 292 279.706 321 269.232 341 c 4
 259.406 359 227.109 380 194.109 380 c 4
 160.109 380 127.406 359 121.765 327 c 4
 119.296 313 117.771 276 188.068 255 c 4
 236.6 241 283.071 238 312.489 195 c 4
 333.199 165 331.381 132 328.56 116 c 4
 317.274 52 251.755 -19 152.755 -19 c 6
 148.755 -19 l 5
 139.758 -36 138.405 -38 138.052 -40 c 4
 137.699 -42 138.523 -43 141.523 -43 c 6
 144.523 -43 l 6
 192.523 -43 223.938 -69 215.122 -119 c 6
 214.946 -120 l 6
 209.304 -152 184.722 -195 119.722 -195 c 4xaf
 87.7217 -195 46.3086 -186 43.0137 -182 c 4
 40.3662 -180 39.7188 -178 40.248 -175 c 4
 40.4248 -174 47.4795 -151 58.4795 -151 c 4x4f
 59.4795 -151 90.0693 -159 109.069 -159 c 4
 131.069 -159 149.361 -146 152.712 -127 c 4
 157.473 -100 132.352 -78 90.8809 -75 c 4
 88.8809 -75 85.8809 -75 86.4102 -72 c 4
 86.5859 -71 106.934 -35 117.284 -16 c 5
 80.166 -11 22.0449 11 16.3926 47 c 4
 15.4502 53 16.5088 59 17.5664 65 c 6
 24.4434 104 l 6x9f
EndSplineSet
Fore
SplineSet
28.3223 126 m 2xea80
 32.0254 147 35.6123 156 50.6123 156 c 0
 75.6123 156 53.6172 122 62.6797 94 c 0xea80
 68.9775 73 108.276 35 166.276 35 c 0
 211.276 35 252.037 62 259.091 102 c 0
 270.729 168 184.491 178 154.078 187 c 0
 77.1338 210 55.9502 260 64.5898 309 c 0
 75.1699 369 139.396 427 229.396 427 c 0xe480
 259.396 427 273.516 422 278.516 422 c 0
 287.516 422 293.278 432 305.278 432 c 0
 317.278 432 317.81 418 317.929 413 c 0
 317.757 378 319.119 312 318.414 308 c 0xd5
 316.122 295 300.593 292 292.593 292 c 0xd080
 271.593 292 279.706 321 269.232 341 c 0
 259.406 359 227.109 380 194.109 380 c 0
 160.109 380 127.406 359 121.765 327 c 0xe5
 119.296 313 117.771 276 188.068 255 c 0
 236.6 241 283.071 238 312.489 195 c 0
 333.199 165 331.381 132 328.56 116 c 0
 317.274 52 251.755 -19 152.755 -19 c 1
 143.758 -36 138.405 -38 138.052 -40 c 0
 137.699 -42 138.523 -43 141.523 -43 c 0
 189.523 -43 223.938 -69 215.122 -119 c 2
 214.946 -120 l 2
 209.304 -152 184.722 -195 119.722 -195 c 0
 87.7217 -195 46.3086 -186 43.0137 -182 c 0
 40.3662 -180 39.7188 -178 40.248 -175 c 0
 40.4248 -174 47.4795 -151 58.4795 -151 c 0
 59.4795 -151 90.0693 -159 109.069 -159 c 0
 131.069 -159 149.361 -146 152.712 -127 c 0
 157.473 -100 132.352 -78 90.8809 -75 c 0
 88.8809 -75 85.8809 -75 86.4102 -72 c 0
 86.5859 -71 106.934 -35 117.284 -16 c 1
 88.9893 -12 47.458 2 27.5137 25 c 0
 18.4531 36 14.04 45 17.5664 65 c 2
 28.3223 126 l 2xea80
EndSplineSet
EndChar

StartChar: Tcommaaccent
Encoding: 354 354 240
Width: 692
GlyphClass: 2
Flags: HW
HStem: -195 36<285.143 376.233> -6 53<202.22 307.561 402.04 510.545> 622 66<95.0021 308.605 402.112 608.482>
VStem: 309 93<49.375 621.698> 380 61<-156.256 -91.5187>
LayerCount: 2
Fore
SplineSet
376.376 -120 m 2xe8
 370.733 -152 346.151 -195 281.151 -195 c 0
 249.151 -195 207.738 -186 204.444 -182 c 0
 201.797 -180 201.149 -178 201.678 -175 c 0
 201.854 -174 208.91 -151 219.91 -151 c 0
 220.91 -151 251.499 -159 270.499 -159 c 0
 292.499 -159 310.792 -146 314.142 -127 c 0xe8
 318.902 -100 293.782 -78 252.311 -75 c 0
 250.311 -75 247.311 -75 247.84 -72 c 0
 248.017 -71 274.304 -24 288.535 0 c 1
 222.359 -1 188.478 -6 177.478 -6 c 0
 161.478 -6 159.594 6 162.062 20 c 0
 166.47 45 176.765 41 239.823 47 c 0
 270.352 50 276.82 64 280.347 84 c 2
 369.744 591 l 2
 372.213 605 374.211 622 348.211 622 c 2
 199.211 622 l 2
 172.211 622 167.152 616 157.685 602 c 0
 102.401 521 99.2861 509 80.2861 509 c 0
 67.2861 509 60.2256 520 62.6943 534 c 2
 62.8701 535 l 2
 63.9287 541 65.457 544 116.203 673 c 0
 121.672 687 131.849 688 139.849 688 c 2
 722.849 688 l 2
 738.849 688 739.085 678 738.793 665 c 0
 740.808 563 741.281 543 740.223 537 c 0
 738.107 525 728.344 515 717.344 515 c 0
 704.344 515 700.46 527 697.694 534 c 0
 665.152 616 668.211 622 637.211 622 c 2
 490.211 622 l 2
 469.211 622 465.742 608 463.45 595 c 2
 371.055 71 l 2xf0
 366.47 45 380.176 49 456.941 42 c 0
 472.589 40 473.53 34 470.004 14 c 0
 468.24 4 462.478 -6 449.478 -6 c 0
 444.478 -6 389.535 0 320.535 0 c 1
 313.066 -14 299.658 -39 299.482 -40 c 0
 299.13 -42 299.953 -43 302.953 -43 c 2
 305.953 -43 l 2
 353.953 -43 385.369 -69 376.553 -119 c 2
 376.376 -120 l 2xe8
EndSplineSet
EndChar

StartChar: tcommaaccent
Encoding: 355 355 241
Width: 333
GlyphClass: 2
Flags: HW
HStem: -195 36<113.143 204.233> -18 64<178.638 241.831> 363 54<156.006 290.812>
VStem: 76 69<55.2482 362.954> 208 61<-156.256 -91.5187>
LayerCount: 2
Fore
SplineSet
218.923 -120 m 2
 213.28 -152 188.698 -195 123.698 -195 c 0
 91.6982 -195 50.2852 -186 46.9912 -182 c 0
 44.3438 -180 43.6963 -178 44.2256 -175 c 0
 44.4014 -174 51.457 -151 62.457 -151 c 0
 63.457 -151 94.0469 -159 113.047 -159 c 0
 135.047 -159 153.339 -146 156.688 -127 c 0
 161.449 -100 136.329 -78 94.8574 -75 c 0
 92.8574 -75 89.8574 -75 90.3867 -72 c 0
 90.5635 -71 110.911 -35 122.261 -16 c 1
 76.5537 -3 59.3115 41 65.2441 103 c 0
 66.1836 114 67.9473 124 69.8867 135 c 0
 77.6445 179 108.976 334 112.854 356 c 0
 113.736 361 113.441 365 107.441 365 c 2
 75.4414 365 l 2
 66.4414 365 55.6182 366 57.7344 378 c 0
 60.7314 395 113.905 413 184.128 505 c 0
 188.009 510 196.302 523 207.302 523 c 0
 213.302 523 219.772 520 217.48 507 c 0
 215.012 493 206.605 451 204.138 437 c 0
 201.14 420 208.61 417 220.61 417 c 2
 310.61 417 l 2
 313.61 417 315.435 416 318.435 416 c 0
 327.435 416 344.435 416 341.084 397 c 0
 340.026 391 333.028 374 326.971 368 c 0
 322.266 364 317.089 363 308.089 363 c 2
 191.089 363 l 2
 184.089 363 180.736 361 179.502 354 c 0
 145.529 167 141.474 144 137.241 120 c 0
 131.07 85 133.193 46 175.193 46 c 0
 223.193 46 272.773 106 294.773 106 c 0
 305.773 106 311.187 97 309.6 88 c 0
 308.188 80 302.131 74 299.602 71 c 0
 224.906 -1 181.261 -16 152.908 -18 c 1
 144.734 -36 142.382 -38 142.029 -40 c 0
 141.677 -42 142.5 -43 145.5 -43 c 2
 148.5 -43 l 2
 196.5 -43 227.916 -69 219.1 -119 c 2
 218.923 -120 l 2
EndSplineSet
EndChar

StartChar: longs
Encoding: 383 383 261
Width: 240
GlyphClass: 2
Flags: HW
HStem: -6 45<18.0677 79.8315 153 229.988> 360 48<10.5069 82.2295> 653 67<224.432 344.919>
VStem: 84 69<38.7292 359.683 408.753 564.612>
LayerCount: 2
Fore
SplineSet
-31.0068 -6 m 0
 -44.0068 -6 -43.5381 8 -41.5986 19 c 0
 -38.7773 35 -29.1299 33 8.92773 39 c 0
 24.2803 41 25.0439 51 28.1602 63 c 0
 34.5684 88 48.5586 156 82.7656 350 c 0
 84.8818 362 79.3525 359 31.5293 360 c 0
 25.5293 360 10.5293 360 13.7031 378 c 0
 17.7588 401 26.9922 408 39.9922 408 c 0
 90.3457 410 90.6396 406 92.7559 418 c 2
 92.9326 419 l 1
 100.809 458 121.326 546 169.787 611 c 1
 221.777 679 311.007 720 372.007 720 c 0
 426.007 720 438.541 689 434.838 668 c 0
 431.487 649 412.961 629 385.961 629 c 0
 357.961 629 338.192 653 307.192 653 c 0
 236.192 653 186.561 553 165.93 436 c 0
 163.285 421 161.816 407 154.41 365 c 2
 101.336 64 l 1
 100.808 61 l 2
 99.0439 51 97.752 38 116.575 37 c 0
 161.87 33 173.928 39 169.872 16 c 0
 167.757 4 161.993 -6 149.993 -6 c 0
 146.993 -6 109.051 0 61.0508 0 c 0
 12.0508 0 -28.0068 -6 -31.0068 -6 c 0
EndSplineSet
EndChar

StartChar: uni0237
Encoding: 567 567 262
Width: 232
GlyphClass: 2
Flags: HW
HStem: -231 77<-30.0167 54.2285> 422 20G<152.5 158>
VStem: 95 71<-117.424 346.052>
LayerCount: 2
Fore
SplineSet
93.3828 102 m 0
 115.776 229 129.062 293 132.765 314 c 0
 136.644 336 130.644 336 82.4619 369 c 0
 78.8145 371 74.5205 375 75.5781 381 c 0
 77.3418 391 77.9883 389 205.981 440 c 0
 208.157 441 210.334 442 213.334 442 c 0
 221.334 442 222.1 435 220.513 426 c 0
 217.162 407 205.112 350 184.834 235 c 0
 153.096 55 141.226 -35 135.937 -65 c 0
 132.586 -84 125.823 -94 113.178 -109 c 0
 97.0039 -127 1.66602 -231 -57.334 -231 c 0
 -78.334 -231 -92.8652 -217 -89.3389 -197 c 0
 -85.9883 -178 -66.7568 -154 -37.7568 -154 c 0
 -26.7568 -154 -18.2861 -157 -8.28613 -157 c 0
 8.71387 -157 50.4775 -147 62.6436 -78 c 0
 65.8184 -60 74.3398 -6 93.3828 102 c 0
EndSplineSet
EndChar

StartChar: circumflex
Encoding: 710 710 263
Width: 215
GlyphClass: 2
Flags: HW
HStem: 479 221
VStem: 16 183<482 499>
LayerCount: 2
Fore
SplineSet
11.5156 479 m 0
 6.51562 479 -2.95508 482 -0.838867 494 c 0
 0.395508 501 67.3174 631 92.3711 671 c 0
 96.6045 678 109.484 700 126.484 700 c 0
 153.484 700 158.729 639 181.276 506 c 0
 181.748 503 183.042 499 182.337 495 c 0
 180.045 482 168.516 479 164.516 479 c 0
 153.516 479 148.927 487 142.571 502 c 0
 114.914 572 114.796 577 105.796 577 c 0
 94.7959 577 91.3857 569 39.2188 500 c 0
 28.9268 487 20.5156 479 11.5156 479 c 0
EndSplineSet
EndChar

StartChar: caron
Encoding: 711 711 264
Width: 215
GlyphClass: 2
Flags: HW
HStem: 479 221
VStem: 16 183<680 697>
LayerCount: 2
Fore
SplineSet
203.484 700 m 0
 208.484 700 217.955 697 215.839 685 c 0
 214.604 678 147.506 547 122.629 508 c 0
 118.396 501 105.516 479 88.5156 479 c 0
 61.5156 479 56.2715 540 33.7236 673 c 0
 33.252 676 31.958 680 32.6631 684 c 0
 34.9551 697 46.4844 700 50.4844 700 c 0
 61.4844 700 66.0732 692 72.4287 677 c 0
 81.373 654 99.4385 609 100.086 607 c 0
 103.204 602 107.204 602 109.204 602 c 0
 120.204 602 123.614 610 175.604 678 c 0
 186.073 692 194.484 700 203.484 700 c 0
EndSplineSet
EndChar

StartChar: breve
Encoding: 728 728 265
Width: 272
GlyphClass: 2
Flags: HW
HStem: 481 68<83.8293 182.514>
VStem: 15 57<564.065 630.344>
LayerCount: 2
Fore
SplineSet
27.5195 633 m 2
 28.9297 641 43.2822 643 51.2822 643 c 0
 70.2822 643 53.5801 622 75.7031 583 c 0
 88.1768 563 105.708 549 129.708 549 c 2
 130.708 549 l 2
 190.708 549 234.813 629 239.872 635 c 0
 242.4 638 246.106 642 253.106 642 c 0
 261.106 642 270.93 641 269.872 635 c 0
 268.461 627 212.718 481 113.718 481 c 0
 68.7178 481 26.0078 511 26.9902 630 c 1
 27.5195 633 l 2
EndSplineSet
EndChar

StartChar: dotaccent
Encoding: 729 729 266
Width: 146
GlyphClass: 2
Flags: HW
HStem: 479 112<28.2549 118.311>
VStem: 15 116<492.202 577.369>
LayerCount: 2
Fore
SplineSet
14.8232 534 m 0
 20.4658 566 52.874 591 82.874 591 c 0
 114.874 591 136.466 566 131 535 c 0
 125.534 504 94.126 479 63.126 479 c 0
 31.126 479 9.35742 503 14.8232 534 c 0
EndSplineSet
EndChar

StartChar: ring
Encoding: 730 730 267
Width: 196
GlyphClass: 2
Flags: HW
HStem: 474 39<63.0263 133.711> 612 38<63.3267 133.209>
VStem: 13 40<522.079 602.575> 144 39<521.969 601.702>
LayerCount: 2
Fore
SplineSet
113.517 650 m 0
 161.517 650 191.287 609 183 562 c 0
 174.36 513 129.483 474 82.4834 474 c 0
 36.4834 474 4.36035 513 13 562 c 0
 21.4639 610 67.5166 650 113.517 650 c 0
106.816 612 m 0
 81.8164 612 57.7607 589 53.1768 563 c 0
 48.415 536 64.3604 513 90.3604 513 c 0
 117.36 513 139.769 538 144 562 c 0
 148.408 587 132.816 612 106.816 612 c 0
EndSplineSet
EndChar

StartChar: tilde
Encoding: 732 732 268
Width: 336
GlyphClass: 2
Flags: HW
HStem: 568 54<166.82 263.676> 613 52<62.1629 146.569>
VStem: 16 304
LayerCount: 2
Fore
SplineSet
224.322 622 m 0xa0
 270.322 622 298.434 668 310.434 668 c 0
 314.434 668 328.376 662 327.142 655 c 0
 325.73 647 286.854 608 259.68 590 c 0
 243.74 579 221.801 568 197.801 568 c 0xa0
 146.801 568 138.735 613 98.7354 613 c 0
 54.7354 613 27.5664 561 19.5664 561 c 0
 15.5664 561 8.33008 571 9.21094 576 c 0
 9.91699 580 49.3809 628 65.8486 642 c 0
 79.9648 654 96.9043 665 119.904 665 c 0x60
 164.904 665 179.322 622 224.322 622 c 0xa0
EndSplineSet
EndChar

StartChar: emdash
Encoding: 8212 8212 270
Width: 1068
GlyphClass: 2
Flags: HW
HStem: 224 55<27.0354 1041.88>
LayerCount: 2
Fore
SplineSet
26.7354 250 m 2
 27.4404 254 l 2
 29.5566 266 32.8486 279 45.8486 279 c 2
 1032.85 279 l 2
 1045.85 279 1044.2 264 1042.44 254 c 2
 1042.09 252 l 2
 1038.21 230 1034.15 224 1023.15 224 c 2
 36.1514 224 l 2
 22.1514 224 24.6191 238 26.7354 250 c 2
EndSplineSet
EndChar

StartChar: quoteleft
Encoding: 8216 8216 271
Width: 227
GlyphClass: 2
Flags: HW
HStem: 464 98<82.4082 175.109>
VStem: 39 39<567.528 642.282>
LayerCount: 2
Fore
SplineSet
105.34 464 m 0
 70.3398 464 24.2764 492 39.0879 576 c 0
 53.1943 656 100.66 687 114.66 687 c 1
 125.484 686 131.897 677 130.134 667 c 0
 127.489 652 88.8438 637 82.3203 600 c 0
 79.6748 585 83.6191 562 118.619 562 c 0
 124.619 562 130.796 563 136.796 563 c 0
 176.796 563 182.035 536 179.214 520 c 0
 174.806 495 146.34 464 105.34 464 c 0
EndSplineSet
EndChar

StartChar: quoteright
Encoding: 8217 8217 272
Width: 227
GlyphClass: 2
Flags: HW
HStem: 586 98<52.2751 144.908>
VStem: 149 40<505.811 580.483>
LayerCount: 2
Fore
SplineSet
121.572 684 m 0
 156.572 684 203.635 656 188.823 572 c 0
 174.718 492 127.428 462 112.428 462 c 0
 101.428 462 95.0146 471 96.7783 481 c 0
 99.5996 497 138.244 512 144.769 549 c 0
 147.236 563 143.292 586 108.292 586 c 0
 102.292 586 96.1162 585 90.1162 585 c 0
 50.1162 585 45.877 612 48.6982 628 c 0
 53.1064 653 80.5723 684 121.572 684 c 0
EndSplineSet
EndChar

StartChar: quotesinglbase
Encoding: 8218 8218 273
Width: 227
GlyphClass: 2
Flags: HW
HStem: -44 98<51.8914 144.152>
VStem: 148 40<-124.657 -49.5172>
LayerCount: 2
Fore
SplineSet
121.572 54 m 0
 155.572 54 202.635 26 187.823 -58 c 0
 173.718 -138 126.428 -168 112.428 -168 c 0
 101.428 -168 95.0146 -159 96.7783 -149 c 0
 99.5996 -133 137.244 -118 143.769 -81 c 0
 146.236 -67 143.292 -44 107.292 -44 c 0
 101.292 -44 96.1162 -45 90.1162 -45 c 0
 50.1162 -45 44.877 -18 47.6982 -2 c 0
 52.1064 23 80.5723 54 121.572 54 c 0
EndSplineSet
EndChar

StartChar: quotedblleft
Encoding: 8220 8220 274
Width: 416
GlyphClass: 2
Flags: HW
HStem: 464 98<82.0918 174.725 272.092 364.725>
VStem: 38 40<567.528 642.751> 228 40<567.528 642.751>
LayerCount: 2
Fore
SplineSet
295.34 464 m 0
 260.34 464 213.276 492 228.088 576 c 0
 242.194 656 289.66 687 304.66 687 c 1
 315.484 686 321.897 677 320.134 667 c 0
 317.489 652 278.844 637 272.32 600 c 0
 269.675 585 272.619 562 308.619 562 c 0
 314.619 562 320.796 563 326.796 563 c 0
 366.796 563 371.035 536 368.214 520 c 0
 363.806 495 336.34 464 295.34 464 c 0
105.34 464 m 0
 70.3398 464 23.2764 492 38.0879 576 c 0
 52.1943 656 99.6602 687 114.66 687 c 1
 125.484 686 131.897 677 130.134 667 c 0
 127.489 652 88.8438 637 82.3203 600 c 0
 79.6748 585 82.6191 562 118.619 562 c 0
 124.619 562 130.796 563 136.796 563 c 0
 176.796 563 181.035 536 178.214 520 c 0
 173.806 495 146.34 464 105.34 464 c 0
EndSplineSet
Substitution2: "'ss01' Style Set 1 in Latin lookup 0 subtable" quotedblleft.001
EndChar

StartChar: quotedblright
Encoding: 8221 8221 275
Width: 416
GlyphClass: 2
Flags: HW
HStem: 586 98<51.8914 144.152 241.891 334.152>
VStem: 148 40<505.343 580.483> 338 40<505.343 580.483>
LayerCount: 2
Fore
SplineSet
121.572 684 m 0
 155.572 684 202.635 656 187.823 572 c 0
 173.718 492 126.428 462 112.428 462 c 2
 111.428 462 l 2
 101.428 462 95.1914 472 96.7783 481 c 0
 99.5996 497 137.244 512 143.769 549 c 0
 146.236 563 143.292 586 107.292 586 c 0
 101.292 586 96.1162 585 90.1162 585 c 0
 50.1162 585 44.877 612 47.6982 628 c 0
 52.1064 653 80.5723 684 121.572 684 c 0
311.572 684 m 0
 345.572 684 392.635 656 377.823 572 c 0
 363.718 492 316.428 462 302.428 462 c 2
 301.428 462 l 2
 291.428 462 285.191 472 286.778 481 c 0
 289.6 497 327.244 512 333.769 549 c 0
 336.236 563 333.292 586 297.292 586 c 0
 291.292 586 286.116 585 280.116 585 c 0
 240.116 585 234.877 612 237.698 628 c 0
 242.106 653 270.572 684 311.572 684 c 0
EndSplineSet
Substitution2: "'ss01' Style Set 1 in Latin lookup 0 subtable" quotedblright.001
EndChar

StartChar: bullet
Encoding: 8226 8226 277
Width: 286
GlyphClass: 2
Flags: HW
HStem: 188 160<89.0344 196.966>
VStem: 63 160<214.034 321.966>
LayerCount: 2
Fore
SplineSet
128.894 188 m 0
 82.8936 188 55.7705 227 63 268 c 0
 71.1113 314 116.106 348 157.106 348 c 0
 203.106 348 230.229 309 223 268 c 0
 214.889 222 169.894 188 128.894 188 c 0
EndSplineSet
EndChar

StartChar: guilsinglleft
Encoding: 8249 8249 280
Width: 223
GlyphClass: 2
Flags: HW
HStem: 52 282<179 192>
VStem: 22 79<170.963 215.713>
LayerCount: 2
Fore
SplineSet
209.862 334 m 0
 217.862 334 223.746 322 222.512 315 c 0
 221.454 309 221.63 310 106.41 201 c 0
 104.058 199 101.705 197 101.177 194 c 0
 100.118 188 102.766 186 175.898 79 c 0
 177.546 77 179.018 74 178.488 71 c 0
 177.077 63 167.138 52 159.138 52 c 0
 153.138 52 154.138 52 25.4131 184 c 0
 23.7656 186 21.2949 189 22 193 c 0
 22.8818 198 26.4102 201 30.9395 204 c 0
 204.862 334 203.862 334 209.862 334 c 0
EndSplineSet
EndChar

StartChar: guilsinglright
Encoding: 8250 8250 281
Width: 223
GlyphClass: 2
Flags: HW
HStem: 52 282<32 43>
VStem: 122 79<170.161 215.625>
LayerCount: 2
Fore
SplineSet
62.8623 334 m 0
 68.8623 334 66.8623 334 195.939 204 c 0
 199.41 201 201.882 198 201 193 c 2
 200.823 192 l 2
 199.766 186 196.766 186 25.0195 57 c 0
 21.4902 54 18.1377 52 14.1377 52 c 0
 7.1377 52 -0.275391 61 1.31152 70 c 0
 1.84082 73 3.37012 76 6.89844 79 c 0
 117.766 186 121.295 189 122 193 c 0
 122.529 196 121.882 198 119.41 201 c 2
 45.749 305 l 2
 43.2773 308 42.8066 311 43.5117 315 c 0
 45.0986 324 56.8623 334 62.8623 334 c 0
EndSplineSet
EndChar

StartChar: fraction
Encoding: 8260 8260 282
Width: 435
GlyphClass: 2
Flags: HW
LayerCount: 2
Fore
SplineSet
-32.6211 -187 m 0
 -39.6211 -187 -61.4453 -186 -59.1523 -173 c 0
 -58.2715 -168 -58.4473 -169 449.034 571 c 0
 452.916 576 456.621 580 465.621 580 c 0
 473.621 580 496.093 577 493.447 562 c 0
 492.742 558 490.213 555 488.685 552 c 0
 -16.916 -183 -14.2109 -179 -18.916 -183 c 0
 -22.4453 -186 -26.6211 -187 -32.6211 -187 c 0
EndSplineSet
EndChar

StartChar: Euro
Encoding: 8364 8364 283
Width: 713
GlyphClass: 2
Flags: HW
HStem: -14 60<351.543 560.238> 234 62<49 119 193 558> 345 61<45 119 193 605> 594 60<346.586 559.047>
VStem: 119 61<296 345>
LayerCount: 2
Fore
SplineSet
499.313 594 m 0
 413.313 594 285.379 549 208.164 406 c 1
 645.164 406 l 1
 609.408 345 l 1
 184.408 345 l 1
 183.526 340 181.116 332 179.177 321 c 0
 177.061 309 176.649 301 175.769 296 c 1
 579.769 296 l 1
 542.836 234 l 1
 177.836 234 l 1
 199.208 100 313.687 46 400.687 46 c 0
 540.687 46 629.261 140 632.79 143 c 1
 636.613 142 l 1
 622.86 64 l 1
 554.396 16 480.106 -14 394.106 -14 c 0
 283.106 -14 139.157 43 113.836 234 c 1
 8.83594 234 l 1
 44.7686 296 l 1
 114.769 296 l 1
 123.408 345 l 1
 24.4082 345 l 1
 60.1641 406 l 1
 144.164 406 l 1
 234.019 598 411.894 654 503.894 654 c 0
 602.894 654 670.956 626 734.261 554 c 1
 709.854 512 695.152 491 695.152 491 c 1
 685.854 512 628.313 594 499.313 594 c 0
EndSplineSet
EndChar

StartChar: trademark
Encoding: 8482 8482 284
Width: 919
GlyphClass: 2
Flags: HW
HStem: 370 31<134.007 186 236 287.974 398.207 447.5 489.25 535.771 730.098 781.808 830.118 877.847> 675 36<81.2008 186 236 336.799> 682 23<400.046 440.89>
VStem: 42 26<620.051 656.362> 186 50<400.096 675> 456 32<401.858 605> 782 48<398.694 604.998>
LayerCount: 2
Fore
SplineSet
809.37 421 m 2xbe
 805.314 398 811.49 399 841.138 397 c 0
 847.138 397 852.609 394 850.669 383 c 0
 849.259 375 844.377 370 836.377 370 c 0
 830.377 370 812.906 373 776.906 373 c 2
 774.906 373 l 2
 736.906 373 718.377 370 712.377 370 c 0
 702.377 370 701.788 378 702.846 384 c 0
 705.138 397 720.138 397 739.49 399 c 0
 755.843 401 758.901 407 761.723 423 c 2
 779.884 526 l 2
 793.461 603 793.813 605 791.813 605 c 1
 791.813 605 782.933 600 727.002 521 c 0
 614.495 365 616.495 365 605.495 365 c 2
 603.495 365 l 1
 583.672 366 589.898 424 503.638 604 c 0
 503.813 605 503.813 605 501.813 605 c 1
 500.051 595 489.058 544 482.005 504 c 0
 464.549 405 463.843 401 473.843 401 c 1
 491.49 399 511.843 401 508.669 383 c 0
 507.259 375 502.377 370 496.377 370 c 0
 490.377 370 472.906 373 438.906 373 c 0
 402.906 373 384.377 370 378.377 370 c 0
 372.377 370 369.259 375 370.669 383 c 0
 373.667 400 391.49 399 411.843 401 c 0
 424.196 403 423.49 399 453.179 522 c 0
 465.643 570 478.222 630 480.338 642 c 0
 481.043 646 469.215 681 437.391 682 c 0
 431.391 682 425.744 684 427.154 692 c 0
 428.918 702 433.446 705 439.446 705 c 2
 509.446 705 l 2
 517.446 705 520.094 703 522.212 698 c 2
 587.234 545 l 1
 630.307 449 630.307 449 634.307 449 c 0
 636.307 449 638.836 452 639.188 454 c 2
 808.979 691 l 2
 814.389 699 815.446 705 825.446 705 c 2
 897.446 705 l 2
 903.446 705 907.094 703 905.154 692 c 0
 900.923 668 854.097 686 849.688 661 c 0
 845.456 637 841.4 614 810.428 427 c 1
 809.37 421 l 2xbe
248.377 370 m 0
 242.377 370 222.906 373 184.906 373 c 2
 182.906 373 l 2
 142.906 373 122.377 370 116.377 370 c 0
 112.377 370 104.729 372 107.021 385 c 0
 109.667 400 119.314 398 147.667 400 c 1
 160.02 402 162.901 407 164.488 416 c 2
 207.864 662 l 2
 209.275 670 210.157 675 200.157 675 c 2
 126.157 675 l 2
 112.157 675 114.157 675 84.3984 631 c 1
 83.8691 628 78.459 620 68.459 620 c 0
 64.459 620 57.1641 624 59.1035 635 c 0
 59.6328 638 85.0938 703 85.0938 703 c 2
 88.1523 709 90.5049 711 98.5049 711 c 2
 382.505 711 l 2
 395.505 711 392.799 707 392.162 641 c 0
 391.985 640 393.633 638 393.28 636 c 0
 391.693 627 382.988 623 378.988 623 c 0
 370.988 623 368.398 631 366.751 633 c 0
 351.804 673 354.157 675 340.157 675 c 2
 268.157 675 l 2xde
 260.157 675 259.451 671 258.217 664 c 2
 213.43 410 l 2
 211.667 400 214.667 400 253.314 398 c 0
 263.138 397 262.433 393 260.493 382 c 0
 259.259 375 254.377 370 248.377 370 c 0
EndSplineSet
EndChar

StartChar: minus
Encoding: 8722 8722 285
Width: 701
GlyphClass: 2
Flags: HW
HStem: 231 57<53 648.954>
LayerCount: 2
Fore
SplineSet
70.9746 231 m 2
 55.9746 231 48.6797 235 51.8535 253 c 2
 54.1465 266 l 2
 57.8486 287 71.0254 288 82.0254 288 c 2
 634.025 288 l 2
 647.025 288 653.32 284 650.675 269 c 2
 648.207 255 l 2
 644.151 232 629.975 231 616.975 231 c 2
 70.9746 231 l 2
EndSplineSet
EndChar

StartChar: f_f
Encoding: 65537 -1 287
Width: 499
GlyphClass: 3
Flags: HW
HStem: 0 37<9.03824 67.2429 141.056 214.72 227.414 291.805 365.069 440.754> 360 51<20.6325 69.1224 141.007 293.875 365.055 485.331> 630 90<476.137 567.731> 643 62<206.359 301.352>
VStem: 71 70<38.2926 360 411 549.4> 294 70<38.1114 358.995 411 571.372> 332 32<608 615>
LayerCount: 2
Fore
SplineSet
370.845 617 m 2xda
 337.845 617 322.43 643 287.43 643 c 0
 210.43 643 167.684 514 154.812 441 c 2
 151.813 424 l 2
 150.403 416 151.521 411 160.521 411 c 2
 288.521 411 l 2
 297.521 411 303.698 412 305.638 423 c 2
 307.048 431 l 2xdc
 328.031 550 376.258 608 377.14 613 c 0
 377.492 615 376.845 617 373.845 617 c 2
 370.845 617 l 2xda
71.5215 411 m 2
 77.5215 411 79.0508 414 80.1084 420 c 2
 80.2852 421 l 2
 90.6885 480 134.843 634 278.717 690 c 0
 301.304 699 325.361 705 348.361 705 c 0xdc
 409.361 705 416.661 667 422.661 667 c 0
 427.661 667 489.007 720 574.007 720 c 0
 626.007 720 637.717 690 634.19 670 c 0
 630.312 648 610.138 630 586.138 630 c 0xec
 556.138 630 537.545 655 505.546 655 c 0
 471.546 655 434.666 633 399.152 528 c 0
 390.92 504 385.512 479 381.104 454 c 2
 375.461 422 l 2
 374.051 414 375.521 411 383.521 411 c 2
 480.521 411 l 2
 492.521 411 495.64 406 493.877 396 c 0
 492.818 390 486.587 366 473.529 360 c 0
 469.353 359 466.353 359 462.353 359 c 2
 374.353 359 l 2
 366.353 359 364.647 355 363.413 348 c 2
 312.278 58 l 2
 308.399 36 318.752 38 368.047 34 c 0
 380.87 33 382.636 26 380.344 13 c 0
 378.58 3 374.17 -5 363.17 -5 c 0
 354.17 -5 327.051 0 270.051 0 c 0
 220.051 0 179.17 -5 176.17 -5 c 0
 166.17 -5 164.58 3 165.991 11 c 0
 169.693 32 175.518 31 209.575 37 c 0
 229.28 41 237.693 32 249.86 101 c 2
 294.766 350 l 2
 295.823 356 294.529 360 285.529 360 c 2
 155.529 360 l 2
 147.529 360 141.353 359 139.59 349 c 2
 88.6309 60 l 1
 88.2783 58 l 2
 86.8672 50 85.9277 39 102.575 37 c 0
 143.047 34 158.752 38 154.52 14 c 0
 152.58 3 148.993 -6 138.993 -6 c 0
 135.993 -6 98.0508 0 49.0508 0 c 0
 0.0507812 0 -39.0068 -6 -42.0068 -6 c 0
 -52.0068 -6 -53.4199 3 -50.9512 17 c 0
 -47.248 38 -35.4824 31 -3.07227 39 c 0
 13.6338 43 16.1621 46 37.3213 166 c 2
 69.7656 350 l 2
 71.3525 359 67.5293 360 59.5293 360 c 2
 40.5293 360 l 2
 29.5293 360 21.2344 364 23.8789 379 c 0
 28.1113 403 37.5215 411 49.5215 411 c 2
 71.5215 411 l 2
EndSplineSet
Ligature2: "'liga' Standard Ligatures in Latin lookup 1 per glyph data 1" f f
EndChar

StartChar: f_i
Encoding: 65538 -1 288
Width: 475
GlyphClass: 3
Flags: HW
HStem: -6 43<18.1213 79.6467 153.04 229.992 251.092 325.612 397.141 452.929> 359 52<20.0811 82.5469 153.06 326.485> 402 20G<374.5 383.5> 656 65<235.164 360.933>
VStem: 82 71<38.4601 358.944 411.009 541.351> 327 67<40.9917 355.634>
LayerCount: 2
Fore
SplineSet
391.095 721 m 0xdc
 435.095 721 462.392 700 456.926 669 c 0
 452.87 646 430.873 629 406.873 629 c 2
 405.873 629 l 2
 372.873 629 354.634 656 317.634 656 c 0
 227.634 656 182.537 508 172.66 469 c 0
 169.897 459 168.134 449 166.194 438 c 2
 164.607 429 l 2
 161.963 414 162.434 411 171.434 411 c 2
 298.434 411 l 1xdc
 352.963 414 381.373 422 390.373 422 c 0xbc
 399.373 422 411.668 418 407.612 395 c 0
 406.555 389 383.685 299 363.407 184 c 0
 360.233 166 343.19 58 343.309 53 c 0
 344.545 43 348.545 43 378.487 37 c 0
 385.311 36 395.782 33 392.961 17 c 0
 391.727 10 386.081 -5 373.081 -5 c 0
 365.081 -5 341.963 0 292.963 0 c 0
 244.963 0 204.905 -6 201.905 -6 c 0
 191.905 -6 188.14 1 189.902 11 c 0
 193.958 34 197.605 32 243.663 38 c 0
 269.369 42 274.014 57 277.012 74 c 2
 285.122 120 l 2
 308.397 252 321.211 319 325.091 341 c 0
 327.207 353 323.383 354 300.735 356 c 0
 289.088 358 277.265 359 264.265 359 c 2
 162.265 359 l 2
 156.265 359 153.088 358 151.854 351 c 2
 101.248 64 l 1
 100.719 61 l 2
 98.9561 51 97.6631 38 116.487 37 c 0
 161.782 33 173.84 39 169.784 16 c 0
 167.668 4 161.905 -6 149.905 -6 c 0
 146.905 -6 108.963 0 60.9629 0 c 0
 11.9629 0 -28.0947 -6 -31.0947 -6 c 0
 -44.0947 -6 -43.626 8 -41.6865 19 c 0
 -38.8652 35 -29.2178 33 8.83984 39 c 0
 24.1924 41 24.9561 51 28.0713 63 c 0
 34.4795 88 48.4697 156 82.6777 350 c 0
 84.7939 362 77.2646 359 40.4404 360 c 0
 30.4404 360 20.1465 364 22.6143 378 c 0
 27.7285 407 43.9043 408 47.9043 408 c 2
 48.9043 408 l 1
 89.2568 410 90.9043 408 92.4912 417 c 2
 92.8438 419 l 1
 109.598 497 144.998 573 193.344 626 c 0
 274.037 715 368.095 721 391.095 721 c 0xdc
EndSplineSet
Ligature2: "'liga' Standard Ligatures in Latin lookup 1 per glyph data 1" f i
EndChar

StartChar: f_l
Encoding: 65539 -1 289
Width: 460
GlyphClass: 3
Flags: HW
HStem: -6 45<11.1216 72.8318 146 222.988 241.024 309.036 383.553 451.843> 359 52<17.1307 74.8379 146.023 258.046> 656 64<200.436 288.606>
VStem: 77 69<39.0996 358.944 411.009 577.529> 310 73<39.4059 634.46>
LayerCount: 2
Fore
SplineSet
85.3154 417 m 2
 86.7256 425 l 2
 93.0732 461 111.356 542 153.465 605 c 0
 187.281 655 258.742 720 349.742 720 c 0
 378.742 720 388.332 712 399.332 712 c 0
 412.332 712 424.271 723 433.271 723 c 0
 444.271 723 445.685 714 443.921 704 c 2
 332.306 71 l 2
 326.663 39 338.017 41 377.782 34 c 0
 388.43 32 393.548 27 391.255 14 c 0
 389.315 3 385.729 -6 374.729 -6 c 0
 372.729 -6 332.787 0 281.787 0 c 0
 233.787 0 193.905 -5 191.905 -5 c 0
 176.905 -5 179.374 9 180.608 16 c 0
 183.958 35 191.782 34 225.487 38 c 0
 252.017 41 256.661 56 260.188 76 c 2
 345.177 558 l 1
 346.588 566 l 2
 350.996 591 357.107 637 309.752 652 c 0
 303.281 655 296.457 656 289.457 656 c 0
 207.457 656 172.066 512 158.312 434 c 0
 154.786 414 154.257 411 165.257 411 c 2
 246.257 411 l 2
 257.257 411 267.552 407 264.73 391 c 2
 264.555 390 l 2
 262.968 381 256.088 359 233.088 359 c 2
 155.088 359 l 2
 149.088 359 145.912 358 144.678 351 c 2
 94.0713 64 l 1
 93.1904 59 l 2
 91.6035 50 90.4873 38 109.311 37 c 0
 154.605 33 166.663 39 162.608 16 c 0
 160.492 4 154.729 -6 142.729 -6 c 0
 140.729 -6 101.787 0 53.7871 0 c 0
 4.78711 0 -35.2715 -6 -38.2715 -6 c 0
 -50.2715 -6 -50.8027 8 -48.8633 19 c 0
 -46.042 35 -36.3945 33 2.66309 39 c 0
 17.0166 41 17.7793 51 20.8955 63 c 0
 27.3037 88 41.2939 156 75.501 350 c 0
 77.6172 362 71.0879 359 37.2646 360 c 0
 26.2646 360 16.9697 364 19.4385 378 c 0
 24.7285 408 41.7285 408 45.7285 408 c 0
 80.0811 410 83.7285 408 85.3154 417 c 2
EndSplineSet
Ligature2: "'liga' Standard Ligatures in Latin lookup 1 per glyph data 1" f l
EndChar

StartChar: f_f_i
Encoding: 65540 -1 290
Width: 712
GlyphClass: 3
Flags: HW
HStem: 0 37<8.03824 65.9997 140.056 213.72 236.405 300.805 374.075 449.754 490.232 563.602 636.141 691.923> 360 51<19.6325 68.1602 140.007 302.875 374.055 566.311> 402 20G<613.5 622.5> 644 61<208.918 307.215> 668 59<432.573 543.301>
VStem: 70 70<38.2926 360 411 552.357> 303 70<38.1114 358.995 411 572.813> 565 71<40.3151 74 77 355.724>
LayerCount: 2
Fore
SplineSet
292.988 644 m 0xd7
 209.988 644 168.006 525 153.194 441 c 2
 150.196 424 l 2
 148.786 416 149.904 411 158.904 411 c 2
 296.904 411 l 2
 305.904 411 312.081 412 314.021 423 c 2
 315.431 431 l 2
 336.414 550 384.641 608 385.522 613 c 0
 385.875 615 385.228 617 382.228 617 c 2
 379.228 617 l 2
 346.228 617 330.988 644 292.988 644 c 0xd7
599.624 727 m 0x8f
 683.624 727 694.629 693 690.75 671 c 0
 686.342 646 662.521 630 639.521 630 c 0
 600.521 630 581.221 668 535.221 668 c 0
 492.221 668 421.049 633 389.486 454 c 2
 383.844 422 l 2xaf
 382.434 414 383.904 411 391.904 411 c 2
 537.904 411 l 1xc7
 592.434 414 619.844 422 628.844 422 c 0xa7
 637.844 422 650.139 418 646.083 395 c 0
 645.025 389 622.156 299 601.878 184 c 0
 598.704 166 580.661 58 581.779 53 c 0
 583.017 43 586.017 43 616.958 37 c 0
 622.782 36 634.253 33 631.432 17 c 0
 630.197 10 624.553 -5 611.553 -5 c 0
 603.553 -5 580.435 0 531.435 0 c 0
 482.435 0 442.376 -6 439.376 -6 c 0
 430.376 -6 426.61 1 428.374 11 c 0
 432.43 34 435.076 32 482.135 38 c 0
 507.84 42 512.484 57 515.482 74 c 1
 515.012 77 l 1
 522.594 120 l 2
 545.868 252 559.683 319 563.562 341 c 0
 565.678 353 561.854 354 539.207 356 c 1
 528.56 358 516.735 359 505.735 359 c 2
 382.735 359 l 2
 374.735 359 373.03 355 371.796 348 c 2
 320.661 58 l 2
 316.782 36 328.135 38 376.43 34 c 0
 389.253 33 391.019 26 388.727 13 c 0
 386.963 3 382.553 -5 371.553 -5 c 0
 362.553 -5 335.435 0 278.435 0 c 0
 228.435 0 187.553 -5 184.553 -5 c 0
 174.553 -5 172.963 3 174.374 11 c 0
 178.076 32 182.724 30 217.958 37 c 0
 237.663 41 246.076 32 258.243 101 c 2
 303.148 350 l 2
 304.206 356 302.912 360 293.912 360 c 2
 153.912 360 l 2
 145.912 360 139.735 359 137.973 349 c 2
 87.0137 60 l 1
 86.6611 58 l 2
 85.25 50 84.3105 39 100.958 37 c 0
 141.43 34 157.135 38 152.902 14 c 0
 150.963 3 147.376 -6 137.376 -6 c 0
 134.376 -6 96.4346 0 47.4346 0 c 0
 -1.56543 0 -40.624 -6 -43.624 -6 c 0
 -53.624 -6 -55.0371 3 -52.5684 17 c 0
 -48.8652 38 -37.0996 31 -4.68945 39 c 0
 5.66309 41 9.54492 46 12.1318 55 c 0
 20.3643 79 25.6533 109 42.2285 203 c 2
 68.1484 350 l 2
 69.7354 359 65.9121 360 57.9121 360 c 2
 38.9121 360 l 2
 27.9121 360 19.6172 364 22.2617 379 c 0
 26.4941 403 35.9043 411 47.9043 411 c 2
 69.9043 411 l 2
 75.9043 411 77.6094 415 78.4912 420 c 2
 78.668 421 l 2
 92.5977 500 133.349 595 210.399 652 c 0
 243.808 677 301.744 705 355.744 705 c 2
 356.744 705 l 2xd7
 419.744 705 423.868 666 430.868 666 c 0
 438.044 667 489.624 727 599.624 727 c 0x8f
EndSplineSet
Ligature2: "'liga' Standard Ligatures in Latin lookup 1 per glyph data 0" f f i
EndChar

StartChar: f_f_l
Encoding: 65541 -1 291
Width: 708
GlyphClass: 3
Flags: HW
HStem: 0 37<18.0354 75.6759 150.056 223.72 253.473 316.765 392.069 467.692 487.057 554.494 630.521 697.75> 360 51<9.66742 78.3494 150.007 320.875 392.055 511.948> 645 60<218.947 322.472> 703 20G<611.5 621.5>
VStem: 80 70<38.2926 360 411 552.477> 321 70<50.4385 358.995 411 574.152> 557 73<39.238 633.094>
LayerCount: 2
Fore
SplineSet
396.58 617 m 2xee
 363.58 617 347.518 645 303.518 645 c 0
 263.518 645 219.286 621 180.89 511 c 0
 172.834 488 167.603 464 163.547 441 c 2
 160.55 424 l 2
 159.139 416 160.257 411 169.257 411 c 2
 315.257 411 l 2
 323.257 411 330.434 412 332.373 423 c 2
 333.783 431 l 2
 354.767 550 401.993 608 402.875 613 c 0
 403.228 615 402.58 617 399.58 617 c 2
 396.58 617 l 2xee
449.396 667 m 2
 455.396 667 511.742 720 599.742 720 c 0
 625.742 720 635.332 712 645.332 712 c 2
 646.332 712 l 2
 659.332 712 671.271 723 680.271 723 c 0xde
 691.271 723 692.508 713 690.921 704 c 2
 580.893 80 l 2
 580.364 77 578.835 74 578.306 71 c 0
 572.663 39 584.017 41 623.782 34 c 0
 635.43 32 639.548 27 637.256 14 c 0
 635.315 3 631.729 -6 621.729 -6 c 0
 618.729 -6 578.787 0 528.787 0 c 0
 480.787 0 440.905 -5 437.905 -5 c 0
 422.905 -5 425.374 9 426.608 16 c 0
 429.958 35 437.782 34 472.487 38 c 0
 498.017 41 503.661 56 507.188 76 c 2
 593.764 567 l 2
 602.052 614 591.873 630 569.518 645 c 1
 555.752 652 543.281 655 532.281 655 c 0
 460.281 655 422.475 537 407.839 454 c 2
 402.196 422 l 2
 400.786 414 402.257 411 410.257 411 c 2
 507.257 411 l 2
 518.257 411 522.376 406 520.612 396 c 0
 519.555 390 512.322 366 499.265 360 c 0
 496.088 359 492.088 359 489.088 359 c 2
 400.088 359 l 2
 393.088 359 391.383 355 390.148 348 c 2
 339.014 58 l 2
 335.135 36 345.487 38 394.782 34 c 0
 406.605 33 409.371 26 407.079 13 c 0
 405.315 3 399.905 -5 389.905 -5 c 0
 379.905 -5 352.787 0 296.787 0 c 0
 245.787 0 204.905 -5 201.905 -5 c 0
 191.905 -5 190.315 3 191.727 11 c 0
 195.43 32 202.253 31 236.311 37 c 0
 249.84 40 255.311 37 262.604 50 c 0
 267.19 59 274.832 91 276.596 101 c 2
 321.501 350 l 2
 322.56 356 321.265 360 312.265 360 c 2
 163.265 360 l 2
 155.265 360 150.088 359 148.325 349 c 2
 97.3662 60 l 1
 97.0137 58 l 2
 95.6035 50 94.6631 39 111.311 37 c 0
 151.782 34 167.487 38 163.255 14 c 0
 161.315 3 156.729 -6 146.729 -6 c 0
 144.729 -6 105.787 0 57.7871 0 c 0
 7.78711 0 -30.2715 -6 -33.2715 -6 c 0
 -45.2715 -6 -44.332 5 -42.2158 17 c 0
 -38.5127 38 -27.7471 31 5.66309 39 c 0
 22.3691 43 24.8975 46 50.2891 190 c 2
 78.501 350 l 2
 80.0879 359 75.2646 360 68.2646 360 c 2
 29.2646 360 l 2
 21.2646 360 9.61719 362 12.6143 379 c 0
 16.8467 403 26.2568 411 38.2568 411 c 2
 80.2568 411 l 2
 92.2568 411 85.668 419 101.013 472 c 1
 124.237 547 165.052 614 222.104 654 c 0
 272.452 690 337.098 705 373.098 705 c 0
 431.098 705 444.75 669 446.396 667 c 1
 449.396 667 l 2
EndSplineSet
Ligature2: "'liga' Standard Ligatures in Latin lookup 1 per glyph data 0" f f l
EndChar

StartChar: circumflex.cap
Encoding: 65542 -1 292
Width: 271
GlyphClass: 2
Flags: HW
HStem: 804 79<102.094 167.759>
VStem: 14 243<742 755>
LayerCount: 2
Fore
SplineSet
15.6875 732 m 0
 3.6875 732 2.4502 742 3.15625 746 c 0
 4.74316 755 4.21387 752 109.081 859 c 0
 116.491 867 132.312 883 151.312 883 c 0
 161.312 883 166.607 879 173.844 869 c 0
 246.566 754 247.919 756 246.332 747 c 0
 245.274 741 238.688 732 227.688 732 c 0
 217.688 732 209.098 740 204.156 746 c 0
 157.267 792 149.383 804 135.383 804 c 0
 109.383 804 39.6875 732 15.6875 732 c 0
EndSplineSet
EndChar

StartChar: acute.cap
Encoding: 65543 -1 293
Width: 282
GlyphClass: 2
Flags: HW
HStem: 730 169
VStem: 17 248
LayerCount: 2
Fore
SplineSet
239.899 899 m 0
 260.899 899 277.255 884 273.552 863 c 0
 268.438 834 239.499 823 224.265 816 c 0
 30.2764 731 31.1006 730 22.1006 730 c 0
 12.1006 730 3.51074 738 5.62695 750 c 0
 7.39062 760 15.8008 768 29.2109 776 c 2
 184.844 876 l 2
 199.607 886 219.899 899 239.899 899 c 0
EndSplineSet
EndChar

StartChar: grave.cap
Encoding: 65544 -1 294
Width: 282
GlyphClass: 2
Flags: HW
HStem: 730 169
VStem: 17 248
LayerCount: 2
Fore
SplineSet
25.5518 863 m 0
 29.4307 885 49.8994 899 70.8994 899 c 0
 91.8994 899 107.607 886 118.844 876 c 0
 252.271 765 248.801 768 251.743 762 c 0
 253.037 758 254.332 754 253.45 749 c 0
 251.335 737 240.101 730 230.101 730 c 2
 229.101 730 l 2
 221.101 730 221.276 731 58.2646 816 c 0
 49.1465 821 20.2617 833 25.5518 863 c 0
EndSplineSet
EndChar

StartChar: breve.cap
Encoding: 65545 -1 295
Width: 324
GlyphClass: 2
Flags: HW
HStem: 728 65<98.8173 225.357>
VStem: 16 293<834 848>
LayerCount: 2
Fore
SplineSet
161.735 793 m 0
 227.735 793 284.726 861 295.726 861 c 0
 306.726 861 318.609 849 316.847 839 c 0
 315.965 834 236.274 728 152.274 728 c 2
 148.274 728 l 2
 64.2744 728 22.9648 834 23.8467 839 c 0
 25.4336 848 38.7256 861 51.7256 861 c 0
 63.7256 861 95.7354 793 161.735 793 c 0
EndSplineSet
EndChar

StartChar: longs_i
Encoding: 65546 -1 296
Width: 476
GlyphClass: 3
Flags: HW
HStem: -6 44<252.136 327.058 397.719 462.991> -6 45<18.0865 79.5371 152.472 229.856> 360 50<20.8714 82.6363> 421 20<383.5 390> 656 65<236.537 360.933>
VStem: 84 68<115.416 360> 328 67<39.1511 336.573>
LayerCount: 2
Fore
SplineSet
165.842 436 m 0x7e
 163.196 421 165.431 428 153.794 362 c 2
 111.122 120 l 2
 108.125 103 104.656 89 102.717 78 c 0
 96.7217 44 98.6631 38 116.487 37 c 2
 160.782 33 l 2
 168.782 33 171.195 24 169.432 14 c 0
 167.668 4 160.905 -6 149.905 -6 c 0
 146.905 -6 108.963 0 60.9629 0 c 0
 11.9629 0 -28.0947 -6 -31.0947 -6 c 0
 -44.0947 -6 -43.626 8 -41.6865 19 c 0
 -39.042 34 -26.2178 33 8.83984 39 c 0
 29.3691 42 29.1318 52 82.3252 348 c 0
 83.9121 357 84.2646 359 72.4404 360 c 1
 40.4404 360 l 2
 25.4404 360 21.6748 367 23.6143 378 c 0
 28.9043 408 44.9043 408 48.9043 408 c 2
 85.2568 410 l 2
 98.2568 410 88.3711 439 127.535 525 c 0
 203.276 688 331.095 721 391.095 721 c 0
 435.095 721 462.392 700 456.926 669 c 0
 452.87 646 429.873 629 406.873 629 c 2
 405.873 629 l 2
 372.873 629 354.634 656 317.634 656 c 0
 235.634 656 181.535 525 165.842 436 c 0x7e
EndSplineSet
Refer: 203 305 S 1 0 0 1 234 0 2
Ligature2: "'liga' Standard Ligatures in Latin lookup 1 per glyph data 3" longs i
EndChar

StartChar: caron.cap
Encoding: 65547 -1 297
Width: 271
GlyphClass: 2
Flags: HW
HStem: 732 79<103.114 168.906>
VStem: 14 243<860 874>
LayerCount: 2
Fore
SplineSet
255.312 883 m 0
 262.312 883 269.255 877 267.844 869 c 0
 266.257 860 266.786 863 161.919 756 c 0
 154.509 748 138.688 732 119.688 732 c 0
 109.688 732 104.393 736 97.1562 746 c 0
 27.5518 856 23.0811 859 24.668 868 c 0
 25.7256 874 32.3125 883 43.3125 883 c 0
 53.3125 883 61.9023 875 66.8438 869 c 0
 112.733 823 121.617 811 135.617 811 c 0
 161.617 811 231.312 883 255.312 883 c 0
EndSplineSet
EndChar

StartChar: longs_longs
Encoding: 65548 -1 298
Width: 439
GlyphClass: 3
Flags: HW
HStem: -6 43<9.02019 67.0701 141.012 215.867 227.199 292.504 365 441.867> 360 51<20.0274 69.0488 245.027 294.027> 630 90<473.298 567.731> 643 62<205.947 301.638> 655 12<371 373>
VStem: 71 70<37.75 360 411 549.823> 244 121<360 411> 296 69<38.4201 360 411 581.069>
LayerCount: 2
Fore
SplineSet
305.285 421 m 0xce
 330.5 564 374.376 603 376.316 614 c 0
 376.669 616 375.845 617 372.845 617 c 2
 369.845 617 l 2
 339.845 617 322.43 643 287.43 643 c 0
 210.43 643 167.859 515 154.812 441 c 2
 151.813 424 l 2
 150.403 416 141.353 359 139.59 349 c 2
 88.4541 59 l 2
 84.0469 34 100.399 36 141.87 33 c 0
 153.693 32 157.106 23 155.344 13 c 0
 153.757 4 146.993 -6 138.993 -6 c 0
 135.993 -6 98.0508 0 49.0508 0 c 0
 0.0507812 0 -39.0068 -6 -42.0068 -6 c 0
 -52.0068 -6 -53.4199 3 -50.9512 17 c 0
 -48.1299 33 -42.3066 32 -10.4248 37 c 0
 12.2803 41 14.752 38 37.8506 169 c 2
 69.7656 350 l 2
 71.3525 359 66.5293 360 59.5293 360 c 2
 40.5293 360 l 2
 25.5293 360 21.292 370 23.2314 381 c 0
 24.29 387 31.5215 411 49.5215 411 c 2
 71.5215 411 l 2
 78.5215 411 79.2266 415 80.2852 421 c 0
 111.143 596 239.361 705 348.361 705 c 0xd6
 410.361 705 413.661 667 423.661 667 c 0xce
 427.661 667 491.007 720 574.007 720 c 0
 626.007 720 637.717 690 634.19 670 c 0
 630.84 651 615.138 630 587.138 630 c 0xe6
 555.138 630 537.545 655 505.546 655 c 0
 423.546 655 389.744 503 381.104 454 c 2
 375.461 422 l 2
 371.053 397 367.821 373 363.413 348 c 2
 312.278 58 l 2
 308.575 37 316.752 38 368.047 34 c 0
 379.87 33 383.106 23 381.344 13 c 0
 380.109 6 375.17 -5 363.17 -5 c 0
 352.17 -5 329.051 0 270.051 0 c 0
 226.051 0 197.17 -5 181.17 -5 c 0
 168.17 -5 163.698 -2 165.814 10 c 0
 169.87 33 176.518 31 209.575 37 c 0
 231.28 41 238.047 34 249.86 101 c 0
 285.949 300 290.357 325 294.766 350 c 0xcd
 296.353 359 291.529 360 284.529 360 c 2
 265.529 360 l 2
 250.529 360 246.292 370 248.231 381 c 0
 249.29 387 256.521 411 274.521 411 c 2
 296.521 411 l 2
 303.521 411 304.227 415 305.285 421 c 0xce
EndSplineSet
Ligature2: "'liga' Standard Ligatures in Latin lookup 1 per glyph data 3" longs longs
EndChar

StartChar: longs_l
Encoding: 65549 -1 299
Width: 460
GlyphClass: 3
Flags: HW
HStem: -5 43<11.0803 72.4618 146.51 223.93 241.027 308.863 383.512 451.907> 360 50<16.7383 74.9686> 656 64<201.444 312.041>
VStem: 77 69<114.998 360 409.156 575.581> 310 73<39.4737 633.725>
LayerCount: 2
Fore
SplineSet
147.322 366 m 2
 96.54 78 l 2
 90.7217 45 91.4873 38 109.311 37 c 2
 153.605 33 l 2
 161.605 33 165.019 24 163.432 15 c 0
 161.668 5 153.729 -6 142.729 -6 c 0
 140.729 -6 101.787 0 53.7871 0 c 0
 4.78711 0 -35.2715 -6 -38.2715 -6 c 0
 -50.2715 -6 -50.8027 8 -48.8633 19 c 0
 -46.042 35 -34.3945 33 2.66309 39 c 0
 22.1924 42 21.6035 50 75.501 350 c 0
 76.7354 357 76.0879 359 65.2646 360 c 1
 37.2646 360 l 2
 21.2646 360 17.499 367 19.6143 379 c 0
 24.7285 408 41.7285 408 45.7285 408 c 2
 78.0811 410 l 2
 84.0811 410 84.6094 413 85.3154 417 c 2
 85.668 419 l 2
 98.8926 494 135.752 652 277.273 706 c 0
 293.332 712 322.742 720 349.742 720 c 0
 381.742 720 387.508 713 399.508 713 c 0
 412.508 713 424.271 723 433.271 723 c 0
 444.271 723 445.685 714 443.921 704 c 2
 331.953 69 l 2
 326.84 40 337.017 41 377.782 34 c 0
 389.43 32 393.371 26 391.255 14 c 0
 388.61 -1 385.905 -5 373.905 -5 c 0
 359.905 -5 333.787 0 281.787 0 c 0
 235.787 0 207.905 -5 193.905 -5 c 0
 179.905 -5 177.61 -1 180.432 15 c 0
 184.135 36 192.782 34 225.487 38 c 0
 254.017 41 257.014 58 260.717 79 c 2
 345.177 558 l 2
 350.819 590 357.931 636 309.752 652 c 0
 303.281 655 296.457 656 289.457 656 c 0
 216.457 656 177.003 540 158.312 434 c 2
 157.431 429 l 2
 154.786 414 158.078 427 147.322 366 c 2
EndSplineSet
Ligature2: "'liga' Standard Ligatures in Latin lookup 1 per glyph data 3" longs l
EndChar

StartChar: longs_longs_i
Encoding: 65550 -1 300
Width: 713
GlyphClass: 3
Flags: HW
HStem: -6 40<8.05684 65.9898 140.298 214.967 236.134 300.668 374.231 450.967> -6 44<489.136 564.058 634.719 699.991> 360 51<19.0274 68.0488 254.808 303.998> 421 20<620.5 627> 644 61<210.678 307.358> 668 59<432.47 542.929>
VStem: 70 70<37.6372 360 411 551.625> 254 120<360 411> 304 70<38.1504 360 411 573.284> 565 67<39.1511 336.573>
LayerCount: 2
Fore
SplineSet
292.912 360 m 2xb6c0
 274.912 360 l 2
 258.912 360 255.675 370 257.614 381 c 0xb740
 258.673 387 264.904 411 283.904 411 c 2
 304.904 411 l 2
 311.904 411 313.609 415 314.668 421 c 2
 318.724 444 l 2
 337.414 550 382.76 603 384.699 614 c 0
 385.052 616 384.228 617 381.228 617 c 2
 378.228 617 l 2
 348.228 617 328.988 644 292.988 644 c 0
 250.988 644 182.112 605 153.194 441 c 2
 150.196 424 l 2
 148.786 416 139.735 359 137.973 349 c 2
 86.8379 59 l 2
 82.2529 33 98.958 37 140.43 34 c 0
 152.253 33 155.489 23 153.727 13 c 0
 152.14 4 145.376 -6 137.376 -6 c 0
 134.376 -6 96.4346 0 47.4346 0 c 0
 -1.56543 0 -40.624 -6 -43.624 -6 c 0
 -53.624 -6 -55.0371 3 -52.5684 17 c 0
 -49.3945 35 -41.7471 33 -12.042 37 c 0
 8.4873 40 13.6631 41 27.9463 122 c 2
 68.1484 350 l 2
 69.7354 359 64.9121 360 57.9121 360 c 2
 38.9121 360 l 2
 23.9121 360 19.6748 370 21.6143 381 c 0
 22.6729 387 29.9043 411 47.9043 411 c 2
 69.9043 411 l 2
 76.9043 411 77.6094 415 78.668 421 c 0
 90.834 490 136.755 637 281.1 690 c 0
 305.687 699 331.744 705 355.744 705 c 2
 356.744 705 l 2xbac0
 420.744 705 422.044 667 432.044 667 c 0
 440.044 667 487.624 727 599.624 727 c 0
 683.624 727 694.629 693 690.75 671 c 0
 687.047 650 667.521 630 639.521 630 c 0
 599.521 630 580.221 668 535.221 668 c 0
 492.221 668 421.049 633 389.486 454 c 2
 383.844 422 l 2
 382.609 415 384.844 422 371.796 348 c 2
 320.661 58 l 2x36c0
 316.782 36 329.135 38 376.43 34 c 0
 388.253 33 391.489 23 389.727 13 c 0
 388.492 6 383.553 -5 371.553 -5 c 0
 360.553 -5 337.435 0 278.435 0 c 0
 233.435 0 205.553 -5 189.553 -5 c 0xb740
 176.553 -5 172.081 -2 174.197 10 c 0
 178.253 33 185.9 31 217.958 37 c 0
 239.663 41 246.43 34 258.243 101 c 2
 303.148 350 l 2
 304.735 359 299.912 360 292.912 360 c 2xb6c0
EndSplineSet
Refer: 203 305 S 1 0 0 1 471 0 2
Ligature2: "'liga' Standard Ligatures in Latin lookup 1 per glyph data 2" longs longs i
EndChar

